{"glyphs":{"0":{"ha":806,"x_min":83,"x_max":740,"o":"m 740 595 q 707 327 740 441 q 621 139 675 213 q 497 27 567 64 q 350 -10 426 -10 q 244 15 293 -10 q 159 88 195 39 q 103 210 124 137 q 83 382 83 284 q 116 649 83 535 q 202 838 148 763 q 326 950 256 913 q 472 988 396 988 q 578 963 529 988 q 663 889 627 938 q 719 767 699 840 q 740 595 740 693 m 702 597 q 684 756 702 688 q 635 869 667 824 q 561 936 604 914 q 469 958 519 958 q 339 923 401 958 q 227 818 276 889 q 149 639 178 747 q 119 381 119 530 q 138 220 119 288 q 187 108 156 153 q 261 42 219 64 q 353 20 304 20 q 484 54 421 20 q 595 159 547 88 q 673 338 644 229 q 702 597 702 447 z "},"1":{"ha":806,"x_min":162,"x_max":620,"o":"m 620 28 l 616 0 l 162 0 l 166 28 l 379 28 l 484 889 q 488 910 485 899 q 492 931 490 921 l 249 719 q 237 714 242 713 q 228 719 231 715 l 219 733 l 505 981 l 532 981 l 415 28 l 620 28 z "},"2":{"ha":806,"x_min":65,"x_max":704,"o":"m 626 33 q 638 20 640 33 l 635 0 l 65 0 l 67 13 q 70 23 67 18 q 77 31 74 27 l 436 380 q 527 472 485 428 q 601 561 569 515 q 650 655 632 606 q 668 763 668 704 q 652 849 668 813 q 610 909 637 885 q 549 945 583 933 q 476 957 514 957 q 388 941 429 957 q 313 898 347 926 q 255 830 280 869 q 217 744 231 791 q 209 731 214 734 q 196 728 203 727 l 178 730 q 222 838 193 790 q 290 919 251 885 q 378 970 330 952 q 481 988 427 988 q 566 974 526 988 q 637 933 606 960 q 686 864 667 906 q 704 765 704 822 q 684 649 704 701 q 631 549 665 596 q 553 457 598 501 q 460 364 509 412 l 115 27 q 152 32 132 30 q 195 33 173 33 l 626 33 z "},"3":{"ha":806,"x_min":88,"x_max":699,"o":"m 178 730 q 222 838 193 790 q 290 919 251 885 q 378 970 330 952 q 481 988 426 988 q 565 975 525 988 q 635 936 605 962 q 682 870 665 910 q 699 776 699 830 q 681 674 699 719 q 632 594 663 628 q 560 538 601 560 q 476 506 519 515 q 558 481 522 499 q 617 435 594 463 q 653 372 641 407 q 665 294 665 336 q 640 176 665 231 q 571 78 615 120 q 469 13 528 37 q 345 -11 411 -11 q 253 0 292 -11 q 187 30 215 11 q 141 74 159 49 q 113 126 124 99 q 96 182 101 153 q 88 236 90 210 l 101 241 q 114 243 106 244 q 124 230 122 242 q 128 206 126 224 q 138 165 131 188 q 159 115 145 141 q 198 68 174 90 q 259 33 222 47 q 349 19 296 19 q 467 44 415 19 q 556 109 519 69 q 610 197 592 149 q 629 293 629 246 q 616 370 629 334 q 572 432 602 406 q 495 474 542 458 q 381 490 448 489 l 384 515 q 500 535 448 517 q 588 588 551 554 q 644 667 624 621 q 664 771 664 714 q 649 854 664 819 q 608 912 633 889 q 548 946 582 935 q 476 957 514 957 q 387 941 428 957 q 312 898 346 926 q 254 830 278 869 q 216 744 229 791 q 208 731 213 734 q 195 728 203 727 l 178 730 z "},"4":{"ha":806,"x_min":53,"x_max":720,"o":"m 510 322 l 580 892 q 586 926 582 909 l 93 322 l 510 322 m 720 322 l 718 305 q 703 293 717 293 l 538 293 l 502 0 l 471 0 l 507 293 l 69 293 q 59 296 62 293 q 55 304 56 299 l 53 319 l 593 978 l 622 978 l 542 322 l 720 322 z "},"5":{"ha":806,"x_min":89,"x_max":708,"o":"m 708 976 l 706 961 q 699 949 705 953 q 683 944 693 944 l 338 944 l 232 581 q 322 599 280 593 q 400 605 363 605 q 510 586 463 605 q 589 535 558 568 q 636 456 621 501 q 652 356 652 410 q 623 201 652 269 q 545 86 594 133 q 434 14 497 39 q 304 -11 372 -11 q 236 -5 269 -11 q 177 13 204 2 q 127 38 149 24 q 89 67 105 52 l 101 81 q 114 88 106 88 q 134 77 120 88 q 172 55 149 67 q 230 32 196 42 q 310 22 264 22 q 425 44 370 22 q 523 109 481 66 q 590 213 565 151 q 615 355 615 275 q 601 443 615 403 q 561 513 588 483 q 491 558 533 542 q 392 575 449 575 q 310 568 354 575 q 216 548 267 562 l 194 557 l 314 976 l 708 976 z "},"6":{"ha":741,"x_min":108,"x_max":678,"o":"m 351 19 q 470 42 417 19 q 563 105 524 65 q 622 202 601 146 q 642 323 642 258 q 628 416 642 374 q 586 486 613 457 q 520 531 559 515 q 434 547 482 547 q 314 521 368 547 q 222 453 260 495 q 163 359 184 412 q 142 252 142 306 q 157 159 142 202 q 198 85 171 117 q 263 36 224 54 q 351 19 301 19 m 299 588 q 246 519 269 551 q 204 459 222 488 q 311 545 249 514 q 444 576 374 576 q 541 557 498 576 q 615 506 585 539 q 661 427 645 473 q 678 326 678 381 q 652 190 678 251 q 583 83 627 128 q 478 14 538 38 q 348 -11 417 -11 q 249 7 294 -11 q 174 59 205 25 q 125 143 142 94 q 108 254 108 192 q 117 332 108 294 q 145 412 126 371 q 193 498 164 453 q 264 594 223 543 l 564 967 q 583 976 570 976 l 615 976 l 299 588 z "},"7":{"ha":806,"x_min":170,"x_max":773,"o":"m 773 976 l 771 960 q 763 940 769 948 l 219 15 q 192 0 210 0 l 170 0 l 717 925 q 724 935 720 931 q 731 944 727 940 l 189 944 q 179 956 177 944 l 181 976 l 773 976 z "},"8":{"ha":806,"x_min":94,"x_max":699,"o":"m 353 18 q 466 37 414 18 q 555 91 517 56 q 615 176 593 126 q 636 288 636 226 q 614 389 636 349 q 559 452 592 428 q 487 484 526 475 q 413 494 448 494 q 353 489 385 494 q 290 472 322 484 q 230 440 259 460 q 178 390 201 419 q 143 319 156 360 q 130 224 130 278 q 146 139 130 177 q 191 74 162 101 q 261 33 220 47 q 353 18 303 18 m 222 714 q 233 642 222 676 q 268 581 244 608 q 329 539 292 555 q 415 523 365 523 q 523 543 476 523 q 600 598 569 564 q 647 677 631 633 q 663 769 663 722 q 650 844 663 810 q 613 905 638 879 q 552 944 588 930 q 469 959 516 959 q 367 940 413 959 q 289 889 322 922 q 239 811 257 856 q 222 714 222 766 m 489 510 q 561 484 528 501 q 619 440 594 467 q 658 375 644 413 q 672 289 672 338 q 648 163 672 219 q 580 69 623 108 q 478 9 537 30 q 351 -11 419 -11 q 245 5 292 -11 q 164 51 197 22 q 112 124 131 81 q 94 220 94 167 q 114 337 94 287 q 167 423 133 388 q 245 480 200 458 q 340 510 290 501 q 274 539 302 519 q 226 584 245 558 q 197 643 207 610 q 187 713 187 676 q 207 819 187 769 q 265 907 228 869 q 356 966 303 944 q 472 988 408 988 q 569 970 526 988 q 640 924 611 953 q 684 855 669 894 q 699 772 699 816 q 684 680 699 723 q 643 603 670 638 q 577 545 616 569 q 489 510 538 521 z "},"9":{"ha":806,"x_min":156,"x_max":705,"o":"m 392 451 q 506 476 455 451 q 594 541 558 501 q 650 631 631 581 q 670 732 670 681 q 656 822 670 781 q 615 894 642 864 q 552 941 589 924 q 470 958 515 958 q 360 936 411 958 q 272 877 309 915 q 213 784 234 838 q 192 665 192 731 q 206 577 192 617 q 245 510 219 538 q 309 467 272 482 q 392 451 346 451 m 524 411 q 577 482 553 450 q 619 544 601 513 q 569 493 597 515 q 511 455 542 471 q 447 431 481 440 q 381 423 414 423 q 287 441 328 423 q 216 491 245 459 q 171 567 187 523 q 156 663 156 611 q 181 793 156 733 q 250 895 206 852 q 351 963 293 939 q 474 988 409 988 q 569 969 526 988 q 641 916 611 950 q 688 834 672 882 q 705 728 705 786 q 695 644 705 683 q 666 569 685 606 q 619 491 647 531 q 554 402 591 451 l 262 8 q 253 2 258 3 q 243 0 249 0 l 211 0 l 524 411 z "},"\u0000":{"ha":0,"x_min":0,"x_max":0,"o":""}," ":{"ha":363,"x_min":0,"x_max":0,"o":""},"A":{"ha":829,"x_min":-26,"x_max":753,"o":"m 625 350 l 488 895 q 483 915 485 905 q 478 936 481 925 q 469 915 474 925 q 460 895 465 905 l 188 350 l 625 350 m 753 0 l 725 0 q 710 11 714 0 l 632 322 l 174 322 l 19 11 q 11 3 16 6 q 1 0 7 0 l -26 0 l 465 976 l 501 976 l 753 0 z "},"Ą":{"ha":829,"x_min":-26,"x_max":808,"o":"m 625 350 l 488 895 q 483 915 485 905 q 478 936 481 925 q 469 915 474 925 q 460 895 465 905 l 188 350 l 625 350 m 808 -196 q 761 -223 788 -213 q 706 -233 734 -233 q 639 -211 665 -233 q 614 -149 614 -190 q 623 -102 614 -124 q 648 -61 633 -80 q 682 -26 663 -42 q 719 1 701 -10 q 710 11 713 3 l 632 322 l 174 322 l 19 11 q 11 3 16 6 q 1 0 7 0 l -26 0 l 465 976 l 501 976 l 753 0 l 750 0 q 717 -22 735 -8 q 682 -53 698 -35 q 655 -93 666 -71 q 644 -141 644 -115 q 664 -190 644 -172 q 715 -208 683 -208 q 748 -203 734 -208 q 772 -194 762 -199 q 787 -184 781 -189 q 797 -180 793 -180 q 802 -184 799 -180 l 808 -196 z "},"Æ":{"ha":1194,"x_min":-31,"x_max":1190,"o":"m 608 350 l 608 946 q 583 899 598 922 l 233 350 l 608 350 m 643 944 l 643 511 l 1056 511 l 1051 480 l 643 480 l 643 32 l 1076 32 l 1069 0 l 608 0 l 608 322 l 215 322 l 17 11 q 9 3 13 6 q -1 0 4 0 l -31 0 l 595 976 l 1190 976 l 1186 944 l 643 944 z "},"B":{"ha":806,"x_min":95,"x_max":723,"o":"m 377 31 q 500 48 446 31 q 591 97 553 65 q 648 178 628 130 q 667 288 667 226 q 651 368 667 332 q 606 428 635 403 q 532 467 576 453 q 434 481 489 481 l 192 481 l 136 31 l 377 31 m 195 508 l 407 508 q 533 531 480 508 q 619 590 585 553 q 670 671 653 626 q 686 761 686 716 q 630 898 686 849 q 457 947 574 947 l 249 947 l 195 508 m 460 976 q 658 922 594 976 q 723 768 723 867 q 706 674 723 719 q 659 593 690 629 q 588 533 629 558 q 496 499 546 508 q 650 432 596 486 q 705 290 705 378 q 682 168 705 222 q 616 77 659 115 q 513 20 574 40 q 374 0 451 0 l 95 0 l 215 976 l 460 976 z "},"C":{"ha":877,"x_min":90,"x_max":866,"o":"m 459 21 q 556 30 513 21 q 632 53 599 39 q 689 83 665 67 q 731 113 714 99 q 757 135 747 126 q 772 144 767 144 q 777 142 774 144 l 790 126 q 723 70 758 96 q 646 27 687 45 q 557 -1 605 9 q 454 -11 510 -11 q 304 19 372 -11 q 189 105 237 49 q 116 238 142 160 q 90 412 90 316 q 128 646 90 540 q 233 828 166 752 q 392 946 301 904 q 590 988 484 988 q 678 980 640 988 q 750 958 717 973 q 811 921 783 943 q 866 870 839 899 l 856 857 q 843 852 851 852 q 831 860 838 852 q 811 879 824 867 q 779 904 798 890 q 733 929 760 917 q 670 948 706 940 q 588 956 635 956 q 407 918 490 956 q 261 809 323 880 q 163 639 199 739 q 128 414 128 538 q 152 250 128 323 q 220 127 176 178 q 325 48 264 76 q 459 21 386 21 z "},"Ç":{"ha":877,"x_min":90,"x_max":866,"o":"m 437 -11 q 293 24 358 -8 q 184 110 229 55 q 114 242 139 165 q 90 412 90 318 q 128 646 90 540 q 233 828 166 752 q 392 946 301 904 q 590 988 484 988 q 678 980 640 988 q 750 958 717 973 q 811 921 783 943 q 866 870 839 899 l 856 857 q 843 852 851 852 q 831 860 838 852 q 811 879 824 867 q 779 904 798 890 q 733 929 760 917 q 670 948 706 940 q 588 956 635 956 q 407 918 490 956 q 261 809 323 880 q 163 639 199 739 q 128 414 128 538 q 152 250 128 323 q 220 127 176 178 q 325 48 264 76 q 459 21 386 21 q 556 30 513 21 q 632 53 599 39 q 689 83 665 67 q 731 113 714 99 q 757 135 747 126 q 772 144 767 144 q 777 142 774 144 l 790 126 q 724 71 759 96 q 648 28 688 46 q 561 0 608 10 q 460 -11 514 -10 l 435 -72 q 515 -99 486 -81 q 544 -153 544 -117 q 535 -193 544 -176 q 510 -223 526 -211 q 472 -242 494 -235 q 425 -249 450 -249 q 375 -239 399 -249 q 337 -215 351 -230 l 343 -206 q 351 -200 347 -200 q 359 -205 354 -200 q 373 -214 365 -209 q 396 -224 382 -219 q 430 -228 410 -228 q 492 -209 469 -228 q 514 -156 514 -190 q 506 -127 514 -139 q 482 -108 497 -115 q 447 -96 467 -100 q 404 -89 427 -92 l 437 -11 z "},"D":{"ha":981,"x_min":95,"x_max":907,"o":"m 907 565 q 870 329 907 433 q 768 151 833 224 q 613 39 703 78 q 419 0 524 0 l 95 0 l 215 976 l 539 976 q 692 948 624 976 q 808 866 760 919 q 881 736 856 813 q 907 565 907 660 m 867 564 q 844 724 867 653 q 777 844 821 795 q 673 920 734 894 q 535 946 611 946 l 249 946 l 136 31 l 422 31 q 600 67 518 31 q 741 171 681 103 q 834 339 800 240 q 867 564 867 438 z "},"Ð":{"ha":985,"x_min":17,"x_max":912,"o":"m 428 31 q 606 67 524 31 q 747 171 688 103 q 839 339 806 240 q 872 564 872 438 q 849 724 872 653 q 783 844 826 795 q 678 920 740 894 q 542 946 617 946 l 254 946 l 201 508 l 467 508 l 464 483 l 198 483 l 142 31 l 428 31 m 545 976 q 697 948 629 976 q 813 866 765 919 q 886 736 860 813 q 912 565 912 660 q 875 329 912 433 q 773 151 838 224 q 619 39 708 78 q 425 0 530 0 l 101 0 l 161 483 l 17 483 l 19 508 l 164 508 l 222 976 l 545 976 z "},"E":{"ha":750,"x_min":95,"x_max":747,"o":"m 249 944 l 196 511 l 611 511 l 607 480 l 192 480 l 137 32 l 631 32 l 627 0 l 95 0 l 215 976 l 747 976 l 742 944 l 249 944 z "},"Ę":{"ha":750,"x_min":95,"x_max":747,"o":"m 249 944 l 196 511 l 611 511 l 607 480 l 192 480 l 137 32 l 631 32 l 627 0 l 560 0 q 526 -22 545 -8 q 492 -53 508 -35 q 465 -93 476 -71 q 453 -141 453 -115 q 473 -190 453 -172 q 524 -208 493 -208 q 558 -203 544 -208 q 581 -194 572 -199 q 597 -184 591 -189 q 606 -180 603 -180 q 612 -184 609 -180 l 617 -196 q 571 -223 598 -213 q 516 -233 544 -233 q 449 -211 474 -233 q 424 -149 424 -190 q 433 -102 424 -124 q 457 -62 442 -81 q 491 -27 472 -43 q 527 0 509 -12 l 95 0 l 215 976 l 747 976 l 742 944 l 249 944 z "},"F":{"ha":734,"x_min":95,"x_max":747,"o":"m 249 944 l 194 497 l 624 497 l 619 465 l 190 465 l 133 0 l 95 0 l 215 976 l 747 976 l 742 944 l 249 944 z "},"G":{"ha":952,"x_min":90,"x_max":893,"o":"m 819 96 q 744 51 783 71 q 664 17 706 31 q 573 -4 621 3 q 467 -11 524 -11 q 310 19 380 -11 q 191 105 240 49 q 116 238 142 160 q 90 412 90 316 q 128 649 90 542 q 233 830 165 755 q 394 947 300 906 q 602 988 488 988 q 695 980 653 988 q 773 959 738 973 q 837 923 808 944 q 893 873 867 901 l 882 860 q 866 854 876 851 q 854 864 862 856 q 832 883 846 872 q 799 907 819 894 q 750 930 778 919 q 685 948 722 941 q 599 956 647 956 q 408 918 495 956 q 259 809 322 880 q 163 639 197 739 q 128 413 128 538 q 153 249 128 322 q 222 125 177 176 q 330 47 267 74 q 472 19 394 19 q 567 26 524 19 q 647 44 609 32 q 718 73 684 56 q 788 111 753 90 l 823 399 l 635 399 q 626 403 629 399 q 624 410 623 406 l 626 428 l 860 428 l 819 96 z "},"H":{"ha":968,"x_min":95,"x_max":891,"o":"m 891 976 l 771 0 l 733 0 l 792 481 l 192 481 l 133 0 l 95 0 l 215 976 l 253 976 l 195 510 l 796 510 l 853 976 l 891 976 z "},"Ħ":{"ha":981,"x_min":82,"x_max":997,"o":"m 833 723 l 233 723 l 206 510 l 807 510 l 833 723 m 994 723 l 871 723 l 782 0 l 744 0 l 803 481 l 203 481 l 144 0 l 106 0 l 195 723 l 82 723 l 85 748 l 199 748 l 226 976 l 264 976 l 235 748 l 836 748 l 865 976 l 902 976 l 874 748 l 997 748 l 994 723 z "},"I":{"ha":330,"x_min":95,"x_max":253,"o":"m 133 0 l 95 0 l 215 976 l 253 976 l 133 0 z "},"Į":{"ha":331,"x_min":-6,"x_max":253,"o":"m 130 0 q 97 -22 115 -8 q 62 -53 78 -35 q 35 -93 46 -71 q 24 -141 24 -115 q 43 -190 24 -172 q 94 -208 63 -208 q 128 -203 114 -208 q 151 -194 142 -199 q 167 -184 161 -189 q 176 -180 173 -180 q 182 -184 179 -180 l 188 -196 q 141 -223 168 -213 q 86 -233 114 -233 q 19 -211 44 -233 q -6 -149 -6 -190 q 3 -102 -6 -124 q 27 -62 13 -81 q 61 -27 42 -43 q 97 0 79 -12 l 96 0 l 216 976 l 253 976 l 133 0 l 130 0 z "},"J":{"ha":535,"x_min":-26,"x_max":468,"o":"m 383 294 q 349 156 374 214 q 288 60 324 98 q 203 6 251 23 q 99 -11 156 -12 q 32 -6 62 -11 q -26 10 2 -1 l -24 27 q -20 34 -22 31 q -10 38 -17 38 q 4 35 -4 38 q 25 29 13 32 q 56 23 38 26 q 101 20 74 20 q 185 34 144 20 q 258 79 225 47 q 313 163 290 110 q 346 294 336 215 l 430 976 l 468 976 l 383 294 z "},"K":{"ha":799,"x_min":95,"x_max":826,"o":"m 195 513 l 253 513 q 274 514 265 513 q 291 517 283 515 q 305 525 298 520 q 319 538 311 530 l 765 962 q 781 974 774 972 q 797 976 788 976 l 826 976 l 354 528 q 333 510 342 516 q 313 501 324 503 q 348 473 333 494 l 731 0 l 704 0 q 686 3 691 0 q 676 13 681 6 l 315 454 q 304 467 309 462 q 293 476 299 473 q 277 482 286 480 q 252 483 267 483 l 192 483 l 133 0 l 95 0 l 215 978 l 253 978 l 195 513 z "},"L":{"ha":642,"x_min":95,"x_max":581,"o":"m 581 33 l 577 0 l 95 0 l 215 976 l 253 976 l 137 33 l 581 33 z "},"Ł":{"ha":657,"x_min":25,"x_max":596,"o":"m 596 33 l 592 0 l 110 0 l 161 420 l 25 348 l 28 369 q 31 378 28 375 q 40 385 33 382 l 165 453 l 230 976 l 267 976 l 206 472 l 500 629 l 498 610 q 495 601 497 605 q 486 593 493 597 l 201 439 l 151 33 l 596 33 z "},"Ľ":{"ha":642,"x_min":95,"x_max":581,"o":"m 530 1006 q 540 993 540 1006 q 536 973 540 985 q 527 941 533 961 q 509 891 520 921 q 482 817 498 860 q 475 809 478 812 q 464 806 472 806 l 453 806 l 509 1006 l 530 1006 m 581 33 l 577 0 l 95 0 l 215 976 l 253 976 l 137 33 l 581 33 z "},"M":{"ha":1157,"x_min":95,"x_max":1080,"o":"m 1080 976 l 960 0 l 927 0 l 1037 894 q 1038 903 1038 899 q 1040 914 1039 908 l 577 197 q 560 185 569 185 l 553 185 q 538 197 542 185 l 238 917 q 238 905 238 911 q 237 894 238 899 l 128 0 l 95 0 l 215 976 l 238 976 q 253 968 247 976 l 555 242 q 560 223 558 233 q 565 233 563 228 q 571 242 567 238 l 1040 968 q 1048 975 1044 973 q 1058 976 1051 976 l 1080 976 z "},"N":{"ha":968,"x_min":95,"x_max":891,"o":"m 891 976 l 771 0 l 757 0 q 740 10 747 0 l 239 917 l 237 894 l 128 0 l 95 0 l 215 976 l 232 976 q 240 975 238 976 q 247 968 243 974 l 748 63 q 748 75 748 69 q 749 86 749 81 l 858 976 l 891 976 z "},"Ŋ":{"ha":969,"x_min":95,"x_max":892,"o":"m 778 48 l 767 -39 q 707 -195 755 -140 q 577 -250 659 -250 q 532 -245 553 -250 q 491 -231 512 -240 l 496 -217 q 502 -210 499 -211 q 508 -208 505 -208 q 530 -215 513 -208 q 577 -222 547 -222 q 682 -177 642 -222 q 734 -42 722 -132 l 740 11 l 239 915 q 239 902 239 908 q 238 890 238 896 l 128 0 l 95 0 l 215 976 l 232 976 q 247 967 242 976 l 749 64 q 749 76 749 70 q 750 88 749 83 l 859 976 l 892 976 l 778 48 z "},"O":{"ha":1017,"x_min":90,"x_max":945,"o":"m 945 566 q 908 328 945 435 q 805 147 871 222 q 650 31 740 72 q 456 -10 560 -10 q 305 20 372 -10 q 189 105 237 50 q 116 238 142 160 q 90 410 90 315 q 128 648 90 542 q 231 830 165 754 q 386 947 297 906 q 578 988 475 988 q 730 957 663 988 q 846 872 798 927 q 919 739 894 817 q 945 566 945 661 m 906 565 q 882 728 906 656 q 815 851 858 800 q 711 929 772 901 q 574 956 650 956 q 399 918 481 956 q 257 810 317 881 q 163 639 197 740 q 128 413 128 538 q 152 250 128 322 q 219 127 176 178 q 323 49 263 76 q 459 22 384 22 q 637 59 555 22 q 778 167 719 97 q 872 338 838 238 q 906 565 906 439 z "},"Ø":{"ha":1017,"x_min":54,"x_max":972,"o":"m 235 110 q 334 44 277 67 q 459 22 390 22 q 637 59 555 22 q 778 167 719 97 q 872 338 838 238 q 906 565 906 439 q 885 720 906 651 q 825 840 864 789 l 235 110 m 808 860 q 706 931 765 906 q 574 956 647 956 q 399 918 481 956 q 257 810 317 881 q 163 639 197 740 q 128 413 128 538 q 151 252 128 323 q 217 129 174 181 l 808 860 m 849 869 q 920 737 895 813 q 945 566 945 660 q 908 328 945 435 q 805 147 871 222 q 650 31 740 72 q 456 -10 560 -10 q 320 14 381 -10 q 212 81 258 38 l 99 -58 q 70 -72 85 -72 l 54 -72 l 193 101 q 117 234 143 156 q 90 410 90 313 q 128 648 90 542 q 231 830 165 754 q 386 947 297 906 q 578 988 475 988 q 720 962 656 988 q 831 888 783 936 l 928 1008 q 939 1018 934 1015 q 951 1021 943 1021 l 972 1021 l 849 869 z "},"Œ":{"ha":1421,"x_min":92,"x_max":1417,"o":"m 424 22 q 586 60 512 22 q 716 170 661 99 q 801 343 770 241 q 833 572 833 445 q 812 732 833 660 q 754 853 792 803 q 661 930 716 903 q 539 957 607 957 q 378 918 453 957 q 248 808 303 880 q 161 634 193 736 q 130 406 130 533 q 151 246 130 317 q 210 125 172 175 q 303 49 249 76 q 424 22 357 22 m 924 944 l 872 511 l 1282 511 l 1278 480 l 868 480 l 813 32 l 1302 32 l 1297 0 l 774 0 l 807 273 q 739 154 779 206 q 649 66 699 102 q 540 11 599 30 q 416 -8 481 -8 q 282 21 342 -8 q 179 104 222 50 q 114 234 137 158 q 92 403 92 310 q 126 643 92 535 q 220 828 160 751 q 362 946 281 904 q 538 988 444 988 q 658 965 603 988 q 752 902 712 943 q 819 802 793 860 q 856 670 846 743 l 894 976 l 1417 976 l 1414 944 l 924 944 z "},"P":{"ha":732,"x_min":95,"x_max":710,"o":"m 365 439 q 490 461 433 439 q 587 523 547 483 q 650 616 628 563 q 672 733 672 670 q 611 891 672 835 q 428 947 549 947 l 249 947 l 187 439 l 365 439 m 431 976 q 640 915 570 976 q 710 738 710 854 q 685 604 710 665 q 613 500 659 544 q 502 433 566 457 q 361 409 438 409 l 183 409 l 133 0 l 95 0 l 215 976 l 431 976 z "},"Þ":{"ha":732,"x_min":95,"x_max":685,"o":"m 340 234 q 466 256 409 234 q 563 318 522 278 q 626 411 603 357 q 648 528 648 465 q 587 686 648 631 q 402 741 526 741 l 224 741 l 161 234 l 340 234 m 406 771 q 615 710 544 771 q 685 533 685 649 q 659 399 685 460 q 587 295 633 338 q 477 227 541 251 q 337 203 413 203 l 158 203 l 133 0 l 95 0 l 215 976 l 253 976 l 228 771 l 406 771 z "},"Q":{"ha":1017,"x_min":90,"x_max":945,"o":"m 128 413 q 152 250 128 322 q 219 127 176 178 q 323 49 263 76 q 459 22 384 22 q 637 59 555 22 q 778 167 719 97 q 872 338 838 238 q 906 565 906 439 q 882 728 906 656 q 815 851 858 800 q 711 929 772 901 q 574 956 650 956 q 399 918 481 956 q 257 810 317 881 q 163 639 197 740 q 128 413 128 538 m 651 32 q 558 1 607 12 q 456 -10 508 -10 q 305 20 372 -10 q 189 105 237 50 q 116 238 142 160 q 90 410 90 315 q 128 648 90 542 q 231 830 165 754 q 386 947 297 906 q 578 988 475 988 q 730 957 663 988 q 846 872 798 927 q 919 739 894 817 q 945 566 945 661 q 926 393 945 474 q 873 247 908 313 q 790 131 839 181 q 682 47 742 81 l 885 -223 l 858 -223 q 833 -212 842 -223 l 651 32 z "},"R":{"ha":769,"x_min":95,"x_max":704,"o":"m 193 489 l 363 489 q 488 508 431 489 q 584 561 544 526 q 645 647 624 597 q 667 759 667 697 q 606 900 667 854 q 430 947 546 947 l 230 947 l 248 931 l 193 489 m 433 976 q 635 923 567 976 q 704 764 704 870 q 682 644 704 698 q 618 552 659 590 q 520 490 577 513 q 395 463 463 467 q 415 442 406 455 l 693 0 l 663 0 q 650 2 656 0 q 640 12 645 4 l 378 434 q 357 454 369 449 q 320 460 346 460 l 190 460 l 133 0 l 95 0 l 215 976 l 433 976 z "},"S":{"ha":685,"x_min":30,"x_max":635,"o":"m 626 876 q 615 869 622 869 q 597 882 608 869 q 565 913 585 896 q 511 943 544 929 q 426 956 478 956 q 324 937 369 956 q 248 886 279 918 q 200 810 217 853 q 183 719 183 767 q 201 642 183 673 q 247 589 218 611 q 312 552 276 567 q 387 522 349 537 q 462 491 426 508 q 527 450 499 474 q 574 392 556 426 q 591 309 591 358 q 569 186 591 244 q 505 84 547 128 q 405 15 464 40 q 272 -11 346 -11 q 191 -2 227 -11 q 126 23 156 6 q 74 63 97 39 q 30 116 50 86 l 42 130 q 48 134 45 133 q 55 136 50 136 q 67 127 60 136 q 84 106 74 119 q 111 78 95 93 q 151 50 128 63 q 205 29 174 38 q 276 20 235 20 q 392 42 340 20 q 480 103 444 65 q 536 193 517 141 q 556 303 556 244 q 538 379 556 349 q 492 431 521 410 q 427 468 463 453 q 352 497 390 483 q 277 527 313 511 q 211 568 240 544 q 165 626 183 592 q 148 713 148 661 q 167 816 148 767 q 222 904 186 866 q 311 965 258 942 q 431 988 364 988 q 548 963 498 988 q 635 889 598 939 l 626 876 z "},"Ş":{"ha":685,"x_min":30,"x_max":635,"o":"m 626 876 q 615 869 622 869 q 597 882 608 869 q 565 913 585 896 q 511 943 544 929 q 426 956 478 956 q 324 937 369 956 q 248 886 279 918 q 200 810 217 853 q 183 719 183 767 q 201 642 183 673 q 247 589 218 611 q 312 552 276 567 q 387 522 349 537 q 462 491 426 508 q 527 450 499 474 q 574 392 556 426 q 591 309 591 358 q 570 189 591 246 q 510 89 549 133 q 415 19 471 46 q 290 -10 359 -8 l 265 -72 q 345 -99 316 -81 q 374 -153 374 -117 q 365 -193 374 -176 q 340 -223 356 -211 q 302 -242 324 -235 q 255 -249 280 -249 q 205 -239 229 -249 q 167 -215 181 -230 l 173 -206 q 181 -200 177 -200 q 189 -205 184 -200 q 203 -214 194 -209 q 226 -224 212 -219 q 260 -228 240 -228 q 322 -209 299 -228 q 344 -156 344 -190 q 335 -127 344 -139 q 312 -108 327 -115 q 277 -96 297 -100 q 234 -89 257 -92 l 267 -11 q 188 -1 223 -10 q 125 24 153 8 q 73 64 97 40 q 30 116 50 87 l 42 130 q 48 134 45 133 q 55 136 50 136 q 67 127 60 136 q 84 106 74 119 q 111 78 95 93 q 151 50 128 63 q 205 29 174 38 q 276 20 235 20 q 392 42 340 20 q 480 103 444 65 q 536 193 517 141 q 556 303 556 244 q 538 379 556 349 q 492 431 521 410 q 427 468 463 453 q 352 497 390 483 q 277 527 313 511 q 211 568 240 544 q 165 626 183 592 q 148 713 148 661 q 167 816 148 767 q 222 904 186 866 q 311 965 258 942 q 431 988 364 988 q 548 963 498 988 q 635 889 598 939 l 626 876 z "},"T":{"ha":730,"x_min":81,"x_max":780,"o":"m 776 944 l 449 944 l 333 0 l 295 0 l 411 944 l 81 944 l 84 976 l 780 976 l 776 944 z "},"Ŧ":{"ha":762,"x_min":97,"x_max":796,"o":"m 465 944 l 421 590 l 644 590 l 641 564 l 418 564 l 349 0 l 311 0 l 381 564 l 154 564 l 157 590 l 383 590 l 427 944 l 97 944 l 100 976 l 796 976 l 792 944 l 465 944 z "},"U":{"ha":934,"x_min":119,"x_max":869,"o":"m 419 21 q 546 48 488 21 q 647 121 603 74 q 719 231 691 168 q 756 366 747 294 l 831 976 l 869 976 l 794 366 q 752 218 783 288 q 671 98 720 149 q 557 17 622 47 q 415 -12 492 -12 q 280 17 338 -12 q 185 98 222 47 q 134 218 149 149 q 129 366 119 288 l 204 976 l 242 976 l 167 367 q 170 232 158 295 q 215 122 183 169 q 299 48 247 75 q 419 21 350 21 z "},"Ų":{"ha":932,"x_min":119,"x_max":869,"o":"m 869 976 l 794 366 q 758 233 785 296 q 691 120 732 170 q 595 38 649 71 q 477 -7 542 4 q 443 -29 462 -15 q 409 -60 425 -42 q 382 -100 392 -78 q 371 -148 371 -122 q 391 -197 371 -179 q 442 -215 410 -215 q 475 -210 461 -215 q 499 -201 489 -206 q 514 -191 508 -196 q 524 -187 520 -187 q 529 -191 526 -187 l 535 -203 q 488 -230 515 -220 q 433 -240 461 -240 q 366 -218 392 -240 q 341 -156 341 -197 q 349 -112 341 -133 q 371 -73 358 -91 q 402 -39 385 -54 q 437 -12 419 -24 q 426 -12 431 -12 q 415 -12 420 -12 q 280 17 338 -12 q 185 98 222 47 q 134 218 149 149 q 129 366 119 288 l 204 976 l 242 976 l 167 367 q 170 232 158 295 q 215 122 183 169 q 299 48 247 75 q 419 21 350 21 q 546 48 488 21 q 647 121 603 74 q 719 231 691 168 q 756 366 747 294 l 831 976 l 869 976 z "},"V":{"ha":824,"x_min":92,"x_max":870,"o":"m 870 976 l 378 0 l 345 0 l 92 976 l 121 976 q 134 965 133 976 l 358 88 q 364 67 361 78 q 367 44 366 56 q 377 67 372 56 q 387 88 381 78 l 825 965 q 842 976 830 976 l 870 976 z "},"W":{"ha":1291,"x_min":104,"x_max":1322,"o":"m 1322 976 l 918 0 l 885 0 l 711 903 q 709 917 710 909 q 708 932 708 924 q 702 917 705 924 q 697 903 700 909 l 301 0 l 268 0 l 104 976 l 133 976 q 147 965 145 976 l 288 90 q 291 69 290 80 q 293 47 292 59 q 300 69 297 59 q 308 90 304 80 l 693 965 q 710 976 698 976 l 717 976 q 731 965 728 976 l 900 90 q 903 70 901 80 q 905 49 904 60 q 912 70 908 60 q 919 90 916 80 l 1276 965 q 1283 973 1278 970 q 1294 976 1288 976 l 1322 976 z "},"X":{"ha":791,"x_min":-27,"x_max":796,"o":"m 436 523 l 718 0 l 684 0 q 674 5 676 0 q 669 13 671 9 l 409 502 q 406 496 408 499 q 401 490 403 493 l 28 13 q 10 0 19 0 l -27 0 l 384 522 l 135 976 l 169 976 q 179 973 176 976 q 185 964 182 970 l 412 540 q 419 554 413 546 l 744 967 q 761 976 750 976 l 796 976 l 436 523 z "},"Y":{"ha":744,"x_min":88,"x_max":794,"o":"m 391 410 l 340 0 l 302 0 l 353 411 l 88 976 l 121 976 q 135 966 132 976 l 365 468 q 371 453 369 460 q 376 438 374 445 q 384 453 380 446 q 393 468 388 460 l 746 966 q 763 976 751 976 l 794 976 l 391 410 z "},"Z":{"ha":758,"x_min":-4,"x_max":775,"o":"m 772 963 q 764 948 771 956 l 51 32 l 656 32 l 651 0 l -4 0 l -2 13 q 1 20 -1 17 q 6 27 3 23 l 719 944 l 125 944 l 130 976 l 775 976 l 772 963 z "},"a":{"ha":683,"x_min":53,"x_max":601,"o":"m 564 644 q 515 660 540 656 q 461 665 490 665 q 366 649 413 665 q 278 602 319 632 q 202 532 237 573 q 143 444 168 492 q 103 342 117 396 q 90 233 90 288 q 98 144 90 183 q 124 78 106 106 q 168 36 141 51 q 232 22 194 22 q 316 44 275 22 q 395 110 358 67 q 467 212 433 152 q 528 345 501 272 l 564 644 m 521 275 q 461 160 494 213 q 391 71 428 108 q 311 13 353 33 q 224 -8 269 -8 q 147 9 179 -8 q 94 58 115 26 q 64 132 74 89 q 53 228 53 176 q 69 345 53 288 q 111 454 84 402 q 177 549 139 506 q 261 625 215 593 q 358 675 306 657 q 464 693 409 693 q 536 686 503 693 q 601 660 569 678 l 521 0 l 506 0 q 494 5 497 0 q 492 16 492 10 l 521 275 z "},"ą":{"ha":684,"x_min":53,"x_max":601,"o":"m 564 644 q 515 660 540 656 q 461 665 490 665 q 366 649 413 665 q 278 602 319 632 q 202 532 237 573 q 143 444 168 492 q 103 342 117 396 q 90 233 90 288 q 98 144 90 183 q 124 78 106 106 q 168 36 141 51 q 232 22 194 22 q 316 44 275 22 q 395 110 358 67 q 467 212 433 152 q 528 345 501 272 l 564 644 m 519 0 q 485 -22 504 -8 q 451 -53 467 -35 q 424 -93 435 -71 q 413 -141 413 -115 q 432 -190 413 -172 q 483 -208 452 -208 q 517 -203 503 -208 q 540 -194 531 -199 q 556 -184 550 -189 q 565 -180 562 -180 q 571 -184 568 -180 l 576 -196 q 530 -223 557 -213 q 475 -233 503 -233 q 408 -211 433 -233 q 383 -149 383 -190 q 393 -100 383 -124 q 419 -58 403 -77 q 456 -22 435 -38 q 494 6 476 -6 q 492 16 492 9 l 521 275 q 461 160 494 213 q 391 71 428 108 q 311 13 353 33 q 224 -8 269 -8 q 147 9 179 -8 q 94 58 115 26 q 64 132 74 89 q 53 228 53 176 q 69 345 53 288 q 111 454 84 402 q 177 549 139 506 q 261 625 215 593 q 358 675 306 657 q 464 693 409 693 q 536 686 503 693 q 601 660 569 678 l 521 0 l 519 0 z "},"æ":{"ha":1020,"x_min":32,"x_max":943,"o":"m 464 357 q 163 299 259 350 q 67 151 67 247 q 77 90 67 115 q 105 48 87 65 q 149 24 124 31 q 204 16 174 16 q 291 33 249 16 q 366 82 333 50 q 422 159 399 113 q 452 261 444 204 l 464 357 m 760 667 q 663 647 707 667 q 586 589 619 626 q 530 499 553 552 q 499 381 508 447 q 687 398 610 384 q 810 435 763 413 q 877 487 857 458 q 897 551 897 517 q 887 600 897 578 q 859 636 877 622 q 816 659 841 651 q 760 667 790 667 m 943 127 q 880 66 910 92 q 816 24 849 41 q 750 0 784 8 q 678 -8 716 -8 q 537 49 591 -8 q 469 209 483 106 q 421 105 453 147 q 351 37 390 63 q 273 0 313 11 q 199 -11 233 -11 q 133 -2 163 -11 q 80 25 102 6 q 44 74 57 44 q 32 145 32 103 q 57 242 32 199 q 136 314 83 284 q 271 362 189 344 q 467 382 353 379 l 475 450 q 455 609 488 553 q 342 665 422 665 q 258 650 294 665 q 196 618 222 635 q 155 585 171 600 q 133 570 140 570 q 126 572 128 570 q 121 578 124 574 l 117 587 q 225 668 170 640 q 345 696 279 696 q 466 647 427 696 q 506 512 506 598 q 551 589 525 554 q 609 647 576 623 q 680 683 641 670 q 763 696 719 696 q 830 685 799 696 q 882 656 860 675 q 917 611 904 638 q 929 552 929 584 q 907 476 929 511 q 833 415 884 441 q 699 374 781 389 q 495 358 616 358 q 493 323 494 340 q 492 286 492 305 q 505 174 492 223 q 543 90 518 124 q 603 39 568 56 q 683 21 639 21 q 753 30 722 21 q 809 51 784 38 q 853 80 834 65 q 886 109 872 96 q 910 131 900 122 q 926 140 919 140 q 936 135 932 140 l 943 127 z "},"b":{"ha":707,"x_min":65,"x_max":633,"o":"m 115 138 q 151 83 131 105 q 195 47 172 60 q 244 26 219 33 q 297 20 270 20 q 385 39 344 20 q 459 91 426 58 q 519 168 493 124 q 562 259 544 211 q 589 358 580 308 q 598 455 598 408 q 588 542 598 503 q 559 609 578 581 q 511 651 540 636 q 446 665 483 665 q 360 642 403 665 q 278 577 317 619 q 203 475 238 535 q 140 341 168 415 l 115 138 m 149 415 q 211 528 176 477 q 285 617 246 580 q 367 674 324 653 q 454 694 410 694 q 533 677 499 694 q 589 628 567 660 q 622 553 611 597 q 633 457 633 509 q 623 351 633 406 q 592 245 613 297 q 543 148 572 194 q 477 67 514 101 q 395 12 440 32 q 299 -8 351 -8 q 189 20 240 -8 q 109 106 138 49 l 94 15 q 90 4 92 8 q 81 0 88 0 l 65 0 l 186 1004 l 221 1004 l 149 415 z "},"c":{"ha":633,"x_min":59,"x_max":577,"o":"m 551 126 q 480 58 513 85 q 416 17 447 32 q 353 -3 384 3 q 287 -8 322 -8 q 185 12 228 -8 q 114 69 142 33 q 73 154 86 105 q 59 261 59 203 q 70 369 59 315 q 102 470 81 422 q 153 560 123 519 q 220 632 183 601 q 301 679 257 662 q 394 696 344 696 q 455 689 427 696 q 504 670 482 683 q 544 642 526 658 q 577 604 562 625 l 567 593 q 557 589 563 589 q 542 601 551 589 q 514 627 532 613 q 466 654 495 642 q 392 666 437 666 q 274 632 328 666 q 180 541 219 598 q 118 411 140 485 q 95 260 95 338 q 107 166 95 210 q 142 90 118 122 q 203 39 166 58 q 291 21 240 21 q 363 30 331 21 q 419 51 394 38 q 463 80 444 65 q 495 108 481 95 q 518 130 508 122 q 533 139 527 139 q 544 135 540 139 l 551 126 l 551 126 z "},"ç":{"ha":633,"x_min":59,"x_max":577,"o":"m 277 -8 q 180 15 221 -6 q 112 72 139 35 q 72 156 85 108 q 59 261 59 205 q 70 369 59 315 q 102 470 81 422 q 153 560 123 519 q 220 632 183 601 q 301 679 257 662 q 394 696 344 696 q 455 689 427 696 q 504 670 482 683 q 544 642 526 658 q 577 604 562 625 l 567 593 q 557 589 563 589 q 542 601 551 589 q 514 627 532 613 q 466 654 495 642 q 392 666 437 666 q 274 632 328 666 q 180 541 219 598 q 118 411 140 485 q 95 260 95 338 q 107 166 95 210 q 142 90 118 122 q 203 39 166 58 q 291 21 240 21 q 363 30 331 21 q 419 51 394 38 q 463 80 444 65 q 495 108 481 95 q 518 130 508 122 q 533 139 527 139 q 544 135 540 139 l 551 126 q 483 61 515 87 q 422 20 451 35 q 362 -1 392 5 q 299 -8 332 -8 l 274 -72 q 354 -99 325 -81 q 383 -153 383 -117 q 374 -193 383 -176 q 349 -223 365 -211 q 311 -242 333 -235 q 264 -249 289 -249 q 214 -239 238 -249 q 176 -215 190 -230 l 182 -206 q 190 -200 186 -200 q 198 -205 193 -200 q 212 -214 203 -209 q 235 -224 221 -219 q 269 -228 249 -228 q 331 -209 308 -228 q 353 -156 353 -190 q 344 -127 353 -139 q 321 -108 336 -115 q 286 -96 306 -100 q 243 -89 266 -92 l 277 -8 z "},"d":{"ha":708,"x_min":56,"x_max":665,"o":"m 574 551 q 538 605 558 583 q 494 640 517 626 q 444 659 470 653 q 392 665 419 665 q 304 646 345 665 q 230 594 263 627 q 171 519 197 562 q 127 428 145 476 q 101 330 110 380 q 92 233 92 279 q 101 144 92 183 q 131 78 111 106 q 178 35 150 50 q 244 21 206 21 q 329 43 286 21 q 411 108 372 66 q 485 209 451 150 q 548 342 520 269 l 574 551 m 665 1004 l 542 0 l 527 0 q 515 5 518 0 q 513 16 513 10 l 542 274 q 480 160 515 212 q 406 70 445 108 q 323 12 366 33 q 235 -8 280 -8 q 157 9 190 -8 q 101 59 123 27 q 67 134 78 90 q 56 230 56 178 q 67 335 56 281 q 97 441 77 390 q 147 539 117 492 q 213 619 176 585 q 294 674 250 654 q 390 694 339 694 q 499 668 449 694 q 578 585 549 641 l 631 1004 l 665 1004 z "},"ď":{"ha":708,"x_min":56,"x_max":826,"o":"m 815 1006 q 826 993 826 1006 q 823 973 826 985 q 813 941 819 961 q 794 891 806 921 q 767 817 783 860 q 761 809 764 812 q 750 806 758 806 l 741 806 l 797 1006 l 815 1006 m 574 551 q 538 605 558 583 q 494 640 517 626 q 444 659 470 653 q 392 665 419 665 q 304 646 345 665 q 230 594 263 627 q 171 519 197 562 q 127 428 145 476 q 101 330 110 380 q 92 233 92 279 q 101 144 92 183 q 131 78 111 106 q 178 35 150 50 q 244 21 206 21 q 329 43 286 21 q 411 108 372 66 q 485 209 451 150 q 548 342 520 269 l 574 551 m 665 1004 l 542 0 l 527 0 q 515 5 518 0 q 513 16 513 10 l 542 274 q 480 160 515 212 q 406 70 445 108 q 323 12 366 33 q 235 -8 280 -8 q 157 9 190 -8 q 101 59 123 27 q 67 134 78 90 q 56 230 56 178 q 67 335 56 281 q 97 441 77 390 q 147 539 117 492 q 213 619 176 585 q 294 674 250 654 q 390 694 339 694 q 499 668 449 694 q 578 585 549 641 l 631 1004 l 665 1004 z "},"đ":{"ha":708,"x_min":56,"x_max":744,"o":"m 574 549 q 538 602 558 581 q 494 638 517 624 q 444 657 470 651 q 392 663 419 663 q 304 644 345 663 q 230 593 263 626 q 171 518 197 561 q 127 427 145 475 q 101 329 110 379 q 92 233 92 279 q 101 144 92 183 q 131 78 111 106 q 178 35 150 50 q 244 21 206 21 q 329 43 286 21 q 411 108 372 66 q 485 209 451 150 q 548 342 520 269 l 574 549 m 742 809 l 642 809 l 542 0 l 527 0 q 515 5 518 0 q 513 16 513 10 l 542 274 q 480 160 515 212 q 406 70 445 108 q 323 12 366 33 q 235 -8 280 -8 q 157 9 190 -8 q 101 59 123 27 q 67 134 78 90 q 56 230 56 178 q 67 335 56 281 q 97 440 77 389 q 147 538 117 492 q 213 617 176 583 q 294 672 250 651 q 390 692 339 692 q 498 665 449 692 q 578 583 548 638 l 606 809 l 458 809 q 446 814 449 809 q 445 825 444 819 l 447 835 l 610 835 l 631 1004 l 665 1004 l 644 835 l 744 835 l 742 809 z "},"ð":{"ha":719,"x_min":60,"x_max":638,"o":"m 299 21 q 499 115 424 21 q 597 392 573 210 q 576 469 591 431 q 534 539 561 508 q 469 590 508 570 q 378 609 431 609 q 257 582 310 609 q 169 508 205 555 q 115 400 133 462 q 96 268 96 338 q 111 165 96 210 q 155 87 127 119 q 219 38 183 55 q 299 21 256 21 m 497 858 q 554 795 528 831 q 598 716 580 760 q 627 618 617 672 q 638 501 638 565 q 616 300 638 393 q 552 139 595 207 q 445 31 510 70 q 296 -8 381 -8 q 202 12 245 -8 q 127 67 159 31 q 78 153 96 103 q 60 266 60 203 q 82 409 60 342 q 145 528 104 477 q 245 608 186 578 q 377 638 303 638 q 447 627 411 638 q 513 594 482 617 q 568 537 544 572 q 606 453 592 502 q 578 685 613 590 q 475 840 542 781 l 365 735 l 358 745 q 356 752 356 748 q 359 759 356 756 l 458 853 q 375 901 420 883 q 279 930 330 920 q 269 947 265 934 l 274 958 q 381 927 328 948 q 480 872 434 907 l 585 972 l 591 962 q 593 954 594 958 q 589 946 593 949 l 497 858 z "},"e":{"ha":644,"x_min":59,"x_max":572,"o":"m 398 667 q 287 640 336 667 q 200 570 238 614 q 139 470 163 526 q 103 354 114 414 q 269 378 199 365 q 389 408 340 392 q 467 442 438 424 q 514 479 497 460 q 536 519 531 499 q 542 562 542 540 q 534 596 542 578 q 510 630 527 615 q 466 656 493 646 q 398 667 438 667 m 554 127 q 490 66 521 92 q 426 24 458 40 q 361 -1 394 7 q 289 -8 327 -8 q 190 10 233 -8 q 117 63 147 28 q 74 145 88 97 q 59 256 59 194 q 69 359 59 307 q 99 460 79 412 q 148 552 119 509 q 214 626 176 594 q 299 676 252 658 q 399 694 345 694 q 482 681 449 694 q 535 647 515 667 q 564 604 556 627 q 572 563 572 581 q 565 510 572 535 q 538 463 558 485 q 485 420 519 440 q 399 384 451 401 q 273 352 347 367 q 99 328 199 338 q 95 292 96 310 q 94 256 94 274 q 106 158 94 201 q 144 84 119 115 q 207 37 169 53 q 294 21 244 21 q 364 30 333 21 q 420 51 395 38 q 464 80 445 65 q 497 109 483 96 q 521 131 511 122 q 538 140 531 140 q 547 135 543 140 l 554 127 z "},"ę":{"ha":644,"x_min":59,"x_max":572,"o":"m 398 667 q 287 640 336 667 q 200 570 238 614 q 139 470 163 526 q 103 354 114 414 q 269 378 199 365 q 389 408 340 392 q 467 442 438 424 q 514 479 497 460 q 536 519 531 499 q 542 562 542 540 q 534 596 542 578 q 510 630 527 615 q 466 656 493 646 q 398 667 438 667 m 422 -196 q 375 -223 402 -213 q 320 -233 348 -233 q 253 -211 278 -233 q 228 -149 228 -190 q 236 -106 228 -126 q 257 -67 244 -85 q 287 -34 270 -49 q 321 -7 303 -19 q 305 -8 313 -8 q 289 -8 297 -8 q 190 10 233 -8 q 117 63 147 28 q 74 145 88 97 q 59 256 59 194 q 69 359 59 307 q 99 460 79 412 q 148 552 119 509 q 214 626 176 594 q 299 676 252 658 q 399 694 345 694 q 482 681 449 694 q 535 647 515 667 q 564 604 556 627 q 572 563 572 581 q 565 510 572 535 q 538 463 558 485 q 485 420 519 440 q 399 384 451 401 q 273 352 347 367 q 99 328 199 338 q 95 292 96 310 q 94 256 94 274 q 106 158 94 201 q 144 84 119 115 q 207 37 169 53 q 294 21 244 21 q 364 30 333 21 q 420 51 395 38 q 464 80 445 65 q 497 109 483 96 q 521 131 511 122 q 538 140 531 140 q 547 135 543 140 l 554 127 q 459 43 505 74 q 364 0 414 13 q 331 -22 349 -8 q 296 -53 312 -35 q 269 -93 280 -71 q 258 -141 258 -115 q 277 -190 258 -172 q 328 -208 297 -208 q 362 -203 348 -208 q 385 -194 376 -199 q 401 -184 395 -189 q 410 -180 407 -180 q 416 -184 413 -180 l 422 -196 z "},"f":{"ha":419,"x_min":66,"x_max":470,"o":"m 208 632 l 132 10 l 104 -158 q 85 -174 101 -174 l 74 -174 l 173 631 l 76 635 q 66 646 66 636 l 67 658 l 176 658 l 188 756 q 214 858 195 815 q 261 930 233 901 q 324 973 289 959 q 399 987 359 987 q 437 983 417 987 q 470 972 456 980 l 466 956 q 460 951 465 951 q 447 952 456 951 q 427 957 439 954 q 399 959 415 959 q 338 948 367 959 q 285 913 308 937 q 245 850 262 888 q 222 756 229 811 l 210 658 l 415 658 l 410 632 l 208 632 z "},"ﬀ":{"ha":815,"x_min":66,"x_max":856,"o":"m 595 658 l 811 658 l 808 631 l 592 631 l 517 10 l 490 -158 q 471 -174 486 -174 l 460 -174 l 558 631 l 209 631 l 133 10 l 106 -158 q 88 -174 101 -174 l 76 -174 l 175 631 l 78 635 q 66 645 66 635 l 68 658 l 178 658 l 190 749 q 216 850 197 807 q 262 923 235 894 q 325 965 290 951 q 400 979 360 979 q 438 976 418 979 q 471 965 457 972 l 467 948 q 460 943 465 943 q 447 945 455 943 q 427 949 439 947 q 400 951 416 951 q 338 941 367 951 q 286 906 309 930 q 247 843 263 882 q 224 749 231 805 l 211 658 l 561 658 l 574 758 q 600 859 581 816 q 647 932 619 903 q 709 974 674 960 q 785 988 744 988 q 822 985 803 988 q 856 974 842 981 l 851 957 q 844 952 849 952 q 832 954 840 952 q 812 958 824 956 q 785 960 801 960 q 723 949 752 960 q 670 914 694 938 q 631 851 647 890 q 608 757 615 813 l 595 658 z "},"ﬁ":{"ha":669,"x_min":66,"x_max":576,"o":"m 576 658 l 495 0 l 459 0 l 537 631 l 210 631 l 133 10 l 106 -158 q 87 -175 101 -175 l 76 -175 l 174 630 l 77 634 q 66 644 66 635 l 67 658 l 178 658 l 187 728 q 217 841 194 792 q 275 924 240 890 q 357 975 310 958 q 457 992 403 992 q 479 991 467 992 q 503 988 491 990 q 526 983 515 986 q 543 977 536 981 l 540 961 q 533 956 538 956 q 518 958 528 956 q 495 962 509 960 q 460 965 481 965 q 372 950 413 965 q 301 907 332 936 q 250 833 270 878 q 222 728 229 789 l 212 658 l 576 658 z "},"ﬃ":{"ha":1050,"x_min":66,"x_max":959,"o":"m 956 631 l 878 0 l 842 0 l 920 631 l 591 631 l 514 10 l 487 -158 q 468 -175 482 -175 l 457 -175 l 556 631 l 209 631 l 133 10 l 106 -158 q 88 -174 101 -174 l 76 -174 l 175 631 l 78 635 q 66 645 66 635 l 68 658 l 178 658 l 190 749 q 216 850 197 807 q 262 923 235 894 q 325 965 290 951 q 400 979 360 979 q 438 976 418 979 q 471 965 457 972 l 467 948 q 460 943 465 943 q 447 945 455 943 q 427 949 439 947 q 400 951 416 951 q 338 941 367 951 q 286 906 309 930 q 247 843 263 882 q 224 749 231 805 l 211 658 l 560 658 l 568 728 q 599 841 576 792 q 657 924 622 890 q 738 975 692 958 q 838 992 784 992 q 860 991 848 992 q 884 988 872 990 q 907 983 897 986 q 924 977 917 981 l 921 961 q 914 956 919 956 q 900 958 909 956 q 876 962 890 960 q 841 965 862 965 q 753 950 794 965 q 682 907 713 936 q 631 833 651 878 q 603 728 610 789 l 593 658 l 959 658 l 956 631 l 956 631 z "},"ﬂ":{"ha":704,"x_min":66,"x_max":651,"o":"m 210 632 l 133 10 l 106 -158 q 87 -175 101 -175 l 76 -175 l 174 630 l 77 634 q 66 644 66 635 l 67 658 l 178 658 l 184 708 q 215 823 192 771 q 274 913 238 876 q 359 972 310 951 q 467 992 408 992 q 554 988 512 992 q 632 983 596 983 l 651 983 l 531 0 l 496 0 l 612 956 q 541 961 579 958 q 468 965 503 965 q 373 947 416 965 q 299 895 331 928 q 246 815 267 862 q 218 708 225 767 l 212 658 l 404 658 l 401 632 l 210 632 z "},"ﬄ":{"ha":1087,"x_min":66,"x_max":1035,"o":"m 211 658 l 561 658 l 567 708 q 598 823 575 771 q 657 913 621 876 q 742 972 693 951 q 851 992 791 992 q 930 988 891 992 q 1004 983 969 984 l 1035 983 l 915 0 l 878 0 l 995 956 q 924 961 963 958 q 851 965 886 965 q 757 947 799 965 q 682 895 714 928 q 629 815 650 862 q 601 708 608 767 l 595 658 l 811 658 l 808 631 l 592 631 l 516 10 l 488 -158 q 469 -175 484 -175 l 458 -175 l 558 631 l 208 631 l 133 10 l 106 -158 q 99 -171 103 -167 q 88 -174 94 -174 l 76 -174 l 174 630 l 78 635 q 66 644 66 635 l 68 658 l 178 658 l 189 749 q 215 850 196 807 q 261 923 234 894 q 324 965 289 951 q 399 979 360 979 q 437 976 417 979 q 471 965 456 972 l 466 948 q 459 943 464 943 q 447 945 454 943 q 427 949 439 947 q 400 951 415 951 q 338 941 367 951 q 286 906 309 930 q 246 843 263 882 q 223 749 230 805 l 211 658 z "},"g":{"ha":626,"x_min":-29,"x_max":628,"o":"m 282 284 q 369 304 331 284 q 433 356 407 324 q 474 429 460 388 q 488 512 488 470 q 476 581 488 551 q 445 629 465 610 q 397 658 425 648 q 333 667 368 667 q 247 649 285 667 q 183 599 209 630 q 143 527 157 567 q 130 444 130 487 q 171 324 130 365 q 282 284 213 284 m 472 -47 q 468 -8 472 -26 q 456 24 463 9 q 438 51 448 38 q 418 75 428 63 q 238 80 315 89 q 109 45 160 71 q 31 -17 57 20 q 5 -97 6 -54 q 20 -155 5 -129 q 63 -197 35 -180 q 127 -223 90 -214 q 211 -232 165 -232 q 318 -216 270 -232 q 400 -174 366 -200 q 453 -115 434 -148 q 472 -47 472 -81 m 628 661 l 627 649 q 623 642 626 645 q 612 637 620 638 l 482 633 q 519 513 519 587 q 509 440 519 472 q 484 379 499 407 q 451 328 469 351 q 419 283 434 305 q 394 238 404 260 q 385 191 385 216 q 393 155 384 172 q 416 121 402 138 q 445 88 429 105 q 475 51 461 71 q 497 8 488 31 q 506 -44 506 -15 q 483 -125 505 -86 q 423 -193 462 -163 q 329 -242 383 -224 q 208 -260 274 -260 q 113 -249 156 -260 q 38 -218 69 -239 q -11 -168 6 -198 q -29 -99 -29 -138 q 4 -2 -28 -45 q 93 67 36 40 q 227 104 150 94 q 394 101 304 113 q 367 138 378 119 q 356 184 356 158 q 358 209 356 197 q 366 235 360 222 q 382 266 372 249 q 407 303 392 283 q 344 270 378 281 q 276 258 311 258 q 203 271 236 258 q 147 307 170 283 q 110 365 123 331 q 97 444 97 400 q 113 536 97 492 q 159 616 128 581 q 235 673 190 651 q 336 694 279 694 q 452 661 406 694 l 628 661 z "},"h":{"ha":706,"x_min":65,"x_max":607,"o":"m 153 444 q 217 549 181 503 q 291 627 252 595 q 372 677 330 660 q 456 694 414 694 q 531 677 500 694 q 580 627 562 660 q 602 547 597 594 q 600 438 607 499 l 549 0 l 513 0 l 565 438 q 550 605 578 546 q 446 665 522 665 q 364 644 406 665 q 284 587 323 624 q 210 497 245 550 q 146 378 174 444 l 100 0 l 65 0 l 186 1004 l 222 1004 l 153 444 z "},"ĥ":{"ha":706,"x_min":44,"x_max":607,"o":"m 90 1075 q 81 1070 86 1072 q 72 1069 76 1069 l 44 1069 l 210 1203 l 241 1203 l 374 1069 l 345 1069 q 338 1070 342 1069 q 331 1075 333 1072 l 226 1178 l 223 1182 l 219 1178 l 90 1075 m 153 444 q 217 549 181 503 q 291 627 252 595 q 372 677 330 660 q 456 694 414 694 q 531 677 500 694 q 580 627 562 660 q 602 547 597 594 q 600 438 607 499 l 549 0 l 513 0 l 565 438 q 550 605 578 546 q 446 665 522 665 q 364 644 406 665 q 284 587 323 624 q 210 497 245 550 q 146 378 174 444 l 100 0 l 65 0 l 186 1004 l 222 1004 l 153 444 z "},"ħ":{"ha":706,"x_min":42,"x_max":607,"o":"m 153 443 q 217 547 181 501 q 291 625 252 593 q 372 675 330 658 q 456 692 414 692 q 531 674 500 692 q 580 624 562 657 q 602 544 597 592 q 600 435 607 497 l 549 0 l 513 0 l 565 435 q 550 602 578 543 q 446 662 522 662 q 364 642 406 662 q 284 585 323 622 q 209 495 244 548 q 146 376 174 442 l 100 0 l 65 0 l 163 809 l 42 809 l 45 835 l 165 835 l 186 1004 l 222 1004 l 201 835 l 369 835 l 366 822 q 347 809 364 809 l 198 809 l 153 443 z "},"i":{"ha":281,"x_min":72,"x_max":244,"o":"m 191 685 l 107 0 l 72 0 l 156 685 l 191 685 m 244 932 q 230 899 244 913 q 198 885 215 885 q 167 899 180 885 q 153 932 153 913 q 167 966 153 951 q 199 980 181 980 q 230 966 216 980 q 244 932 244 951 z "},"į":{"ha":281,"x_min":-33,"x_max":244,"o":"m 103 0 q 70 -22 89 -8 q 35 -53 51 -35 q 8 -93 19 -71 q -3 -141 -3 -115 q 17 -190 -3 -172 q 68 -208 37 -208 q 101 -203 88 -208 q 125 -194 115 -199 q 141 -184 135 -189 q 150 -180 147 -180 q 156 -184 153 -180 l 161 -196 q 115 -223 142 -213 q 60 -233 88 -233 q -7 -211 18 -233 q -33 -149 -33 -190 q -23 -102 -33 -124 q 1 -61 -14 -80 q 35 -26 17 -42 q 72 1 54 -10 l 156 685 l 191 685 l 107 0 l 103 0 m 199 980 q 230 966 216 980 q 244 932 244 951 q 230 899 244 913 q 198 885 215 885 q 167 899 180 885 q 153 932 153 913 q 167 966 153 951 q 199 980 181 980 z "},"ı":{"ha":281,"x_min":72,"x_max":191,"o":"m 191 685 l 107 0 l 72 0 l 156 685 l 191 685 z "},"j":{"ha":281,"x_min":-117,"x_max":247,"o":"m 191 685 l 93 -107 q 76 -167 89 -140 q 44 -215 64 -195 q -2 -247 24 -235 q -61 -258 -29 -258 q -92 -255 -79 -258 q -117 -244 -105 -251 l -112 -226 q -106 -220 -110 -221 q -97 -222 -102 -220 q -83 -227 -92 -224 q -62 -230 -75 -230 q 20 -197 -10 -230 q 58 -107 51 -163 l 156 685 l 191 685 m 247 932 q 232 899 247 913 q 201 885 218 885 q 170 899 183 885 q 156 932 156 913 q 170 966 156 951 q 201 980 183 980 q 233 966 219 980 q 247 932 247 951 z "},"ȷ":{"ha":281,"x_min":-117,"x_max":191,"o":"m 191 685 l 93 -107 q 76 -167 89 -140 q 44 -215 64 -195 q -2 -247 24 -235 q -61 -258 -29 -258 q -92 -255 -79 -258 q -117 -244 -105 -251 l -112 -226 q -106 -220 -110 -221 q -97 -222 -102 -220 q -83 -227 -92 -224 q -62 -230 -75 -230 q 20 -197 -10 -230 q 58 -107 51 -163 l 156 685 l 191 685 z "},"k":{"ha":592,"x_min":64,"x_max":581,"o":"m 222 1004 l 145 381 l 174 381 q 192 384 185 381 q 208 395 199 386 l 522 671 q 535 681 528 678 q 551 685 542 685 l 581 685 l 242 388 q 220 372 229 376 q 235 362 229 368 q 246 349 240 356 l 521 0 l 492 0 q 480 2 485 0 q 469 11 474 4 l 215 335 q 195 351 205 347 q 167 356 186 356 l 142 356 l 99 0 l 64 0 l 187 1004 l 222 1004 z "},"ĸ":{"ha":590,"x_min":63,"x_max":581,"o":"m 183 685 l 146 381 l 173 381 q 188 383 179 381 q 208 395 197 384 l 522 671 q 534 681 528 678 q 551 685 541 685 l 581 685 l 242 388 q 231 379 236 383 q 219 372 225 375 q 234 362 228 368 q 246 349 240 356 l 520 0 l 492 0 q 479 2 484 0 q 469 11 474 4 l 214 335 q 195 351 204 347 q 167 356 186 356 l 142 356 l 99 0 l 63 0 l 149 685 l 183 685 z "},"ł":{"ha":360,"x_min":42,"x_max":363,"o":"m 363 651 l 363 635 q 361 626 363 630 q 352 618 360 622 l 222 556 l 154 0 l 120 0 l 185 541 l 42 473 l 42 490 q 44 499 42 495 q 53 506 47 502 l 190 573 l 242 1004 l 276 1004 l 226 588 l 363 651 z "},"ľ":{"ha":278,"x_min":72,"x_max":408,"o":"m 397 1006 q 408 993 408 1006 q 405 973 408 985 q 395 941 401 961 q 377 891 388 921 q 350 817 366 860 q 343 809 347 812 q 332 806 340 806 l 323 806 l 379 1006 l 397 1006 m 72 0 l 194 1004 l 228 1004 l 106 0 l 72 0 z "},"m":{"ha":1078,"x_min":65,"x_max":979,"o":"m 65 0 l 147 688 l 161 688 q 172 683 169 688 q 176 672 176 678 l 150 436 q 210 544 177 497 q 280 626 243 592 q 358 677 317 659 q 441 694 399 694 q 510 678 483 694 q 549 632 536 663 q 564 556 562 601 q 559 455 565 512 q 619 560 585 515 q 691 635 653 606 q 769 680 729 665 q 846 694 808 694 q 918 677 890 694 q 961 627 947 660 q 977 547 975 594 q 972 438 979 499 l 920 0 l 885 0 l 937 438 q 942 534 943 492 q 931 605 942 576 q 897 649 920 634 q 836 665 874 665 q 762 649 800 665 q 687 600 724 633 q 617 517 651 567 q 556 399 583 467 l 509 0 l 474 0 l 526 438 q 533 534 532 492 q 524 605 533 576 q 492 649 514 634 q 432 665 470 665 q 274 589 346 665 q 144 373 201 514 l 99 0 l 65 0 z "},"n":{"ha":707,"x_min":65,"x_max":608,"o":"m 150 433 q 213 542 178 494 q 289 625 249 591 q 371 676 328 658 q 457 694 414 694 q 532 677 501 694 q 581 627 563 660 q 603 547 599 594 q 601 438 608 499 l 549 0 l 515 0 l 566 438 q 551 605 579 546 q 447 665 524 665 q 364 644 406 665 q 282 585 322 624 q 207 493 242 547 q 144 371 172 438 l 100 0 l 65 0 l 147 688 l 161 688 q 172 683 169 688 q 175 672 175 678 l 150 433 z "},"ŋ":{"ha":707,"x_min":65,"x_max":608,"o":"m 150 433 q 213 542 178 494 q 289 625 249 591 q 371 676 328 658 q 457 694 414 694 q 532 677 501 694 q 581 627 563 660 q 603 547 599 594 q 601 438 608 499 l 551 10 l 544 -49 q 483 -205 532 -150 q 351 -260 434 -260 q 307 -256 327 -260 q 266 -242 288 -251 l 270 -228 q 275 -220 272 -222 q 282 -218 278 -218 q 304 -225 287 -218 q 352 -231 321 -231 q 457 -187 415 -231 q 508 -51 498 -142 l 566 438 q 551 605 579 546 q 447 665 524 665 q 364 644 406 665 q 282 585 322 624 q 207 493 242 547 q 144 371 172 438 l 100 0 l 65 0 l 147 688 l 161 688 q 172 683 169 688 q 175 672 176 678 l 150 433 z "},"o":{"ha":709,"x_min":61,"x_max":631,"o":"m 303 21 q 422 55 368 21 q 514 144 476 88 q 573 270 552 199 q 594 417 594 342 q 580 521 594 475 q 539 599 566 567 q 474 648 513 631 q 389 665 436 665 q 307 650 345 665 q 236 608 268 635 q 178 544 203 581 q 134 463 152 507 q 107 370 116 419 q 97 271 97 322 q 111 166 97 213 q 152 87 126 119 q 217 38 178 55 q 303 21 255 21 m 299 -8 q 200 11 244 -8 q 125 67 156 31 q 78 155 94 103 q 61 271 61 206 q 72 378 61 325 q 103 477 83 431 q 152 564 123 524 q 218 633 181 604 q 299 678 255 662 q 392 694 342 694 q 491 675 447 694 q 566 619 535 656 q 614 532 597 583 q 631 417 631 481 q 620 310 631 363 q 589 210 609 258 q 540 123 569 163 q 474 53 510 83 q 393 8 437 24 q 299 -8 349 -8 z "},"ø":{"ha":709,"x_min":38,"x_max":648,"o":"m 163 74 q 303 19 216 19 q 385 35 347 19 q 456 77 424 50 q 515 142 489 105 q 558 223 540 179 q 586 317 576 267 q 596 417 596 366 q 584 514 596 471 q 549 590 572 558 l 163 74 m 531 610 q 389 668 477 668 q 307 653 345 668 q 235 611 268 638 q 177 547 203 584 q 133 465 151 509 q 106 372 115 421 q 96 271 96 322 q 109 170 96 215 q 146 93 122 126 l 531 610 m 570 616 q 615 529 599 579 q 631 417 631 479 q 620 310 631 363 q 589 210 609 258 q 539 123 568 163 q 473 53 510 83 q 392 8 436 24 q 299 -8 349 -8 q 212 6 251 -8 q 142 49 173 21 l 81 -35 q 68 -46 75 -43 q 54 -49 61 -49 l 38 -49 l 125 67 q 77 155 94 104 q 61 271 61 206 q 85 429 61 353 q 152 565 109 506 q 257 660 196 624 q 392 696 318 696 q 482 680 442 696 q 552 635 522 665 l 606 707 q 615 717 610 715 q 628 720 619 720 l 648 720 l 570 616 z "},"œ":{"ha":1123,"x_min":60,"x_max":1043,"o":"m 275 20 q 394 49 342 20 q 483 130 446 78 q 541 253 519 182 q 567 410 563 325 q 562 514 571 466 q 531 595 553 561 q 475 648 510 629 q 392 667 440 667 q 270 637 325 667 q 177 550 215 606 q 117 413 138 494 q 96 233 96 333 q 106 154 96 192 q 136 86 115 116 q 192 38 158 56 q 275 20 226 20 m 865 668 q 764 646 810 668 q 682 583 717 624 q 624 485 647 542 q 592 356 601 427 q 745 379 680 366 q 857 407 810 392 q 934 440 904 422 q 982 476 965 457 q 1007 514 1000 494 q 1014 554 1014 534 q 1005 597 1014 576 q 978 634 997 618 q 932 659 960 649 q 865 668 904 668 m 1040 127 q 977 66 1008 92 q 914 24 946 41 q 847 0 881 8 q 775 -8 813 -8 q 692 8 729 -8 q 628 56 655 24 q 584 132 601 87 q 563 235 568 177 q 516 133 544 178 q 449 57 487 88 q 365 9 411 26 q 266 -8 319 -8 q 173 11 212 -8 q 109 65 134 31 q 72 141 83 98 q 60 231 60 184 q 85 427 60 341 q 156 574 111 514 q 263 665 201 633 q 396 696 324 696 q 477 681 442 696 q 537 638 513 666 q 576 571 562 610 q 595 484 591 532 q 641 572 613 533 q 703 639 668 611 q 780 681 738 667 q 870 696 822 696 q 943 685 911 696 q 998 657 976 675 q 1032 612 1020 638 q 1043 555 1043 586 q 1025 484 1043 518 q 956 421 1006 450 q 818 369 906 392 q 590 331 730 347 q 589 309 590 320 q 589 286 589 298 q 602 174 589 223 q 640 90 615 124 q 701 39 665 56 q 781 21 736 21 q 850 30 819 21 q 907 51 882 38 q 950 80 931 65 q 984 109 969 96 q 1008 131 998 122 q 1024 140 1017 140 q 1033 135 1029 140 l 1040 127 z "},"p":{"ha":708,"x_min":34,"x_max":634,"o":"m 116 138 q 152 83 132 105 q 196 47 172 60 q 245 26 219 33 q 298 20 271 20 q 386 39 345 20 q 460 91 426 58 q 519 168 494 124 q 563 259 545 211 q 590 358 581 308 q 599 455 599 408 q 589 542 599 503 q 560 609 579 581 q 512 651 540 636 q 447 665 484 665 q 361 642 403 665 q 278 577 318 619 q 203 475 238 535 q 140 341 168 415 l 116 138 m 148 411 q 210 526 175 474 q 284 616 244 578 q 367 674 324 653 q 455 694 410 694 q 534 677 500 694 q 590 628 567 660 q 623 553 612 597 q 634 457 634 509 q 624 351 634 406 q 593 245 613 297 q 544 148 573 194 q 477 67 515 101 q 396 12 440 32 q 300 -8 351 -8 q 243 -1 271 -8 q 192 19 216 6 q 147 54 167 33 q 112 103 126 75 l 69 -248 l 34 -248 l 148 688 l 161 688 q 173 683 169 688 q 176 672 176 678 l 148 411 z "},"þ":{"ha":708,"x_min":34,"x_max":634,"o":"m 116 138 q 152 83 132 105 q 196 47 172 60 q 245 26 219 33 q 298 20 271 20 q 386 39 345 20 q 460 91 426 58 q 519 168 494 124 q 563 259 545 211 q 590 358 581 308 q 599 455 599 408 q 589 542 599 503 q 560 609 579 581 q 512 651 540 636 q 447 665 484 665 q 361 642 403 665 q 278 577 318 619 q 203 475 238 535 q 140 341 168 415 l 116 138 m 149 415 q 211 528 176 477 q 285 617 246 580 q 367 674 324 653 q 455 694 410 694 q 534 677 500 694 q 590 628 567 660 q 623 553 612 597 q 634 457 634 509 q 624 351 634 406 q 593 245 613 297 q 544 148 573 194 q 477 67 515 101 q 396 12 440 32 q 300 -8 351 -8 q 191 19 242 -8 q 111 103 141 47 l 71 -229 q 65 -243 69 -237 q 52 -248 60 -248 l 34 -248 l 187 1004 l 222 1004 l 149 415 z "},"q":{"ha":685,"x_min":53,"x_max":601,"o":"m 564 644 q 515 660 540 656 q 461 665 490 665 q 366 649 413 665 q 278 602 319 632 q 202 532 237 573 q 143 444 168 492 q 103 342 117 396 q 90 233 90 288 q 98 144 90 183 q 124 78 106 106 q 168 36 141 51 q 232 22 194 22 q 316 44 274 22 q 395 109 357 67 q 466 210 433 151 q 526 342 499 269 l 564 644 m 517 265 q 458 154 490 204 q 388 67 425 103 q 309 11 350 31 q 224 -8 267 -8 q 147 9 179 -8 q 94 58 115 26 q 64 132 74 89 q 53 228 53 176 q 69 345 53 288 q 111 454 84 402 q 177 549 139 506 q 261 625 215 593 q 358 675 306 657 q 464 693 409 693 q 536 686 503 693 q 601 660 569 678 l 491 -248 l 474 -248 q 458 -241 463 -248 q 456 -219 454 -235 l 517 265 z "},"r":{"ha":447,"x_min":65,"x_max":456,"o":"m 151 438 q 214 566 179 512 q 287 651 248 619 q 369 690 326 682 q 456 681 412 699 l 450 649 q 358 657 402 667 q 276 609 315 646 q 204 512 238 573 q 144 370 171 451 l 99 0 l 65 0 l 147 688 l 161 688 q 172 683 169 688 q 176 672 176 678 l 151 438 z "},"s":{"ha":542,"x_min":21,"x_max":488,"o":"m 479 614 q 469 608 475 608 q 454 617 463 608 q 427 637 444 626 q 383 657 410 648 q 315 667 356 667 q 243 653 277 667 q 183 618 209 640 q 142 567 157 597 q 126 506 126 538 q 140 454 126 475 q 176 418 153 433 q 226 393 198 403 q 285 371 255 382 q 343 348 315 360 q 394 318 372 336 q 430 275 416 301 q 443 213 443 250 q 426 131 443 171 q 378 59 409 90 q 302 8 347 27 q 204 -11 258 -11 q 144 -5 171 -11 q 95 11 117 1 q 56 38 74 22 q 21 72 38 53 l 30 83 q 42 90 35 90 q 57 78 47 90 q 85 53 67 67 q 134 27 104 39 q 210 15 165 15 q 292 31 255 15 q 356 72 329 46 q 397 134 382 99 q 411 208 411 169 q 398 263 411 241 q 362 301 384 285 q 311 328 340 317 q 253 349 283 339 q 194 371 223 360 q 144 400 166 383 q 108 441 122 417 q 94 501 94 465 q 112 574 94 539 q 159 636 129 609 q 231 678 190 663 q 319 694 272 694 q 414 678 374 694 q 488 626 454 661 l 479 614 z "},"ş":{"ha":542,"x_min":21,"x_max":488,"o":"m 30 83 q 42 90 35 90 q 57 78 47 90 q 85 53 67 67 q 134 27 104 39 q 210 15 165 15 q 292 31 255 15 q 356 72 329 46 q 397 134 382 99 q 411 208 411 169 q 398 263 411 241 q 362 301 384 285 q 311 328 340 317 q 253 349 283 339 q 194 371 223 360 q 144 400 166 383 q 108 441 122 417 q 94 501 94 465 q 112 574 94 539 q 159 636 129 609 q 231 678 190 663 q 319 694 272 694 q 414 678 374 694 q 488 626 454 661 l 479 614 q 469 608 475 608 q 454 617 463 608 q 427 637 444 626 q 383 657 410 648 q 315 667 356 667 q 243 653 277 667 q 183 618 209 640 q 142 567 157 597 q 126 506 126 538 q 140 454 126 475 q 176 418 153 433 q 226 393 198 403 q 285 371 255 382 q 343 348 315 360 q 394 318 372 336 q 430 275 416 301 q 443 213 443 250 q 427 132 443 172 q 380 61 410 92 q 307 10 350 30 q 213 -11 265 -10 l 188 -72 q 268 -99 239 -81 q 297 -153 297 -117 q 288 -193 297 -176 q 263 -223 279 -211 q 225 -242 247 -235 q 178 -249 203 -249 q 128 -239 152 -249 q 90 -215 103 -230 l 96 -206 q 104 -200 100 -200 q 112 -205 107 -200 q 126 -214 117 -209 q 149 -224 135 -219 q 183 -228 163 -228 q 244 -209 222 -228 q 267 -156 267 -190 q 258 -127 267 -139 q 235 -108 250 -115 q 200 -96 220 -100 q 157 -89 180 -92 l 190 -11 q 135 -3 160 -10 q 91 14 111 3 q 53 39 71 24 q 21 72 36 53 l 30 83 z "},"ß":{"ha":732,"x_min":63,"x_max":680,"o":"m 178 658 q 217 785 189 726 q 288 890 246 845 q 381 961 329 935 q 490 987 433 987 q 571 973 535 987 q 631 935 606 958 q 667 882 655 912 q 680 820 680 851 q 661 735 680 771 q 614 672 642 699 q 553 623 586 644 q 492 580 520 601 q 445 534 464 558 q 426 478 426 510 q 443 429 426 447 q 485 397 460 410 q 539 372 510 384 q 592 342 567 360 q 634 295 617 324 q 651 221 651 267 q 633 129 651 172 q 585 56 616 87 q 510 7 553 24 q 413 -11 466 -11 q 353 -5 380 -11 q 305 11 327 1 q 265 38 283 22 q 231 72 247 53 l 240 83 q 245 89 243 87 q 253 90 248 90 q 269 79 259 90 q 298 53 280 67 q 345 27 317 39 q 418 16 374 16 q 501 32 464 16 q 563 74 538 47 q 603 136 589 100 q 617 213 617 172 q 600 281 617 255 q 558 323 583 306 q 503 351 533 340 q 449 377 474 363 q 407 413 424 392 q 390 470 390 434 q 409 535 390 508 q 457 585 428 562 q 519 630 485 608 q 581 677 552 651 q 628 737 609 703 q 647 816 647 770 q 639 861 647 837 q 612 908 631 886 q 562 944 593 930 q 485 959 531 959 q 393 936 438 959 q 311 872 349 913 q 248 774 274 831 q 213 647 222 716 l 134 10 l 106 -158 q 88 -174 103 -174 l 76 -174 l 175 630 l 76 635 q 65 644 63 636 l 67 658 l 178 658 z "},"ſ":{"ha":324,"x_min":63,"x_max":472,"o":"m 190 756 q 216 858 197 815 q 263 930 235 901 q 325 973 290 959 q 401 987 360 987 q 439 983 420 987 q 472 972 458 979 l 469 956 q 463 951 467 951 q 449 952 458 951 q 429 957 441 954 q 401 959 417 959 q 340 948 369 959 q 288 913 311 937 q 249 850 265 888 q 226 756 233 811 l 134 10 l 106 -158 q 88 -174 103 -174 l 76 -174 l 175 630 l 76 635 q 65 644 63 636 l 67 658 l 178 658 l 190 756 z "},"t":{"ha":464,"x_min":63,"x_max":419,"o":"m 111 107 q 111 117 111 111 q 113 136 112 124 q 116 167 114 148 q 122 217 119 187 l 172 631 l 74 631 q 63 641 63 631 l 65 653 l 176 658 l 217 922 q 222 930 219 926 q 230 934 225 934 l 245 934 l 211 658 l 419 658 l 415 631 l 208 631 l 158 217 q 151 170 153 188 q 148 139 149 151 q 147 121 147 127 q 147 112 147 115 q 170 41 147 63 q 229 19 193 19 q 274 27 254 19 q 308 45 294 35 q 332 63 323 55 q 346 72 342 72 q 353 67 350 72 l 359 54 q 297 7 334 25 q 221 -11 259 -11 q 140 17 169 -11 q 111 107 112 46 z "},"ť":{"ha":464,"x_min":63,"x_max":444,"o":"m 433 1006 q 444 993 444 1006 q 441 973 444 985 q 431 941 438 961 q 413 891 424 921 q 385 817 401 860 q 379 809 382 812 q 368 806 376 806 l 359 806 l 415 1006 l 433 1006 m 111 107 q 111 117 111 111 q 113 136 112 124 q 116 167 114 148 q 122 217 119 187 l 172 631 l 74 631 q 63 641 63 631 l 65 653 l 176 658 l 217 922 q 222 930 219 926 q 230 934 225 934 l 245 934 l 211 658 l 419 658 l 415 631 l 208 631 l 158 217 q 151 170 153 188 q 148 139 149 151 q 147 121 147 127 q 147 112 147 115 q 170 41 147 63 q 229 19 193 19 q 274 27 254 19 q 308 45 294 35 q 332 63 323 55 q 346 72 342 72 q 353 67 350 72 l 359 54 q 297 7 334 25 q 221 -11 259 -11 q 140 17 169 -11 q 111 107 112 46 z "},"ŧ":{"ha":473,"x_min":39,"x_max":426,"o":"m 119 107 q 119 117 119 111 q 120 136 119 124 q 124 167 122 148 q 130 217 126 187 l 158 453 l 52 453 q 42 455 46 453 q 40 465 39 458 l 42 478 l 161 478 l 180 631 l 81 631 q 71 641 71 631 l 73 653 l 183 658 l 225 922 q 230 930 226 926 q 238 934 233 934 l 253 934 l 219 658 l 426 658 l 423 631 l 215 631 l 197 478 l 390 478 l 385 453 l 194 453 l 165 217 q 159 170 161 188 q 156 139 157 151 q 155 121 155 127 q 154 112 154 115 q 177 41 154 63 q 237 19 201 19 q 282 27 262 19 q 316 45 301 35 q 340 63 331 55 q 353 72 349 72 q 360 67 358 72 l 367 54 q 304 7 342 25 q 228 -11 267 -11 q 148 17 176 -11 q 119 107 119 46 z "},"u":{"ha":707,"x_min":73,"x_max":624,"o":"m 624 685 l 542 0 l 527 0 q 515 5 519 0 q 512 16 512 10 l 540 254 q 476 145 512 194 q 401 63 441 97 q 318 10 361 28 q 233 -8 275 -8 q 108 59 144 -8 q 88 249 73 126 l 140 685 l 175 685 l 123 249 q 120 152 117 194 q 138 81 124 110 q 178 37 152 52 q 242 22 203 22 q 325 42 283 22 q 407 101 367 63 q 482 193 447 139 q 545 315 517 247 l 589 685 l 624 685 z "},"ų":{"ha":707,"x_min":73,"x_max":624,"o":"m 539 0 q 506 -22 524 -8 q 471 -53 487 -35 q 444 -93 455 -71 q 433 -141 433 -115 q 452 -190 433 -172 q 503 -208 472 -208 q 537 -203 523 -208 q 560 -194 551 -199 q 576 -184 570 -189 q 585 -180 582 -180 q 591 -184 588 -180 l 597 -196 q 550 -223 577 -213 q 495 -233 523 -233 q 428 -211 453 -233 q 403 -149 403 -190 q 413 -100 403 -124 q 440 -58 424 -77 q 476 -22 456 -38 q 515 6 496 -6 q 512 16 512 9 l 540 254 q 476 145 512 194 q 401 63 441 97 q 318 10 361 28 q 233 -8 275 -8 q 108 59 144 -8 q 88 249 73 126 l 140 685 l 175 685 l 123 249 q 120 152 117 194 q 138 81 124 110 q 178 37 152 52 q 242 22 203 22 q 325 42 283 22 q 407 101 367 63 q 482 193 447 139 q 545 315 517 247 l 589 685 l 624 685 l 542 0 l 539 0 z "},"v":{"ha":633,"x_min":65,"x_max":635,"o":"m 635 685 l 281 0 l 252 0 l 65 685 l 90 685 q 100 681 97 685 q 105 672 103 676 l 265 80 q 268 59 267 69 q 270 38 269 48 q 288 80 278 60 l 592 672 q 600 681 595 678 q 610 685 605 685 l 635 685 z "},"w":{"ha":966,"x_min":72,"x_max":960,"o":"m 960 685 l 663 0 l 640 0 q 631 10 632 0 l 514 615 q 512 628 513 622 q 511 641 511 634 q 507 628 509 634 q 501 615 505 622 l 235 10 q 224 0 231 0 l 201 0 l 72 685 l 95 685 q 110 672 107 685 l 217 80 q 219 59 219 69 q 221 40 220 49 q 228 59 224 49 q 238 80 233 69 l 498 678 q 511 688 501 688 l 523 688 q 533 678 532 688 l 647 80 q 650 59 649 69 q 652 39 651 49 q 660 58 656 49 q 668 80 664 68 l 920 672 q 927 681 922 678 q 937 685 931 685 l 960 685 z "},"x":{"ha":585,"x_min":-23,"x_max":565,"o":"m 310 364 l 508 0 l 481 0 q 463 10 467 0 l 284 344 q 281 338 283 341 q 276 331 278 335 l 23 9 q 16 2 19 5 q 6 0 12 0 l -23 0 l 267 365 l 89 685 l 116 685 q 126 683 123 685 q 132 677 129 681 l 292 384 q 300 397 294 390 l 520 676 q 534 685 526 685 l 565 685 l 310 364 z "},"y":{"ha":634,"x_min":67,"x_max":638,"o":"m 638 685 l 156 -233 q 135 -248 148 -248 l 112 -248 l 253 17 l 67 685 l 92 685 q 107 672 105 685 l 269 86 q 273 69 272 78 q 275 53 274 61 q 290 86 281 69 l 597 674 q 613 685 602 685 l 638 685 z "},"z":{"ha":567,"x_min":-4,"x_max":551,"o":"m 551 685 l 549 669 q 547 662 549 665 q 541 654 544 658 l 44 29 l 453 29 l 450 0 l -4 0 l -3 13 q 0 22 -3 17 q 6 29 2 26 l 504 656 l 97 656 l 101 685 l 551 685 z "},"ª":{"ha":474,"x_min":117,"x_max":422,"o":"m 382 779 q 202 746 260 775 q 145 667 145 717 q 167 614 145 631 q 218 598 189 598 q 263 604 242 598 q 302 620 283 610 q 337 643 320 630 q 369 672 353 657 l 382 779 m 169 922 q 236 970 202 954 q 311 985 270 985 q 366 973 344 985 q 401 941 388 961 q 418 895 414 922 q 417 842 422 869 l 385 582 l 374 582 q 367 584 368 582 q 364 592 365 586 l 367 647 q 293 594 330 613 q 209 576 257 576 q 174 581 191 576 q 145 597 158 586 q 124 623 132 607 q 117 662 117 640 q 132 717 117 692 q 180 760 147 742 q 263 789 213 778 q 384 801 313 799 l 389 842 q 306 961 404 961 q 256 953 277 961 q 220 935 235 944 q 196 917 206 925 q 182 908 187 908 q 176 910 178 908 q 173 913 174 912 l 169 922 z "},"º":{"ha":523,"x_min":127,"x_max":483,"o":"m 331 985 q 397 973 368 985 q 444 938 425 960 q 473 884 463 915 q 483 813 483 852 q 469 715 483 759 q 429 639 456 671 q 365 591 403 608 q 281 574 328 574 q 215 586 244 574 q 167 620 186 598 q 137 674 147 643 q 127 744 127 706 q 141 843 127 799 q 182 919 156 888 q 246 968 208 951 q 331 985 284 985 m 284 596 q 358 612 326 596 q 411 656 390 628 q 445 725 433 685 q 456 813 456 765 q 448 874 456 847 q 424 921 440 901 q 384 952 408 941 q 328 963 360 963 q 253 947 285 963 q 200 902 222 931 q 167 833 178 873 q 156 744 156 792 q 188 637 156 678 q 284 596 219 596 z "},"ⁿ":{"ha":397,"x_min":94,"x_max":396,"o":"m 153 911 q 216 963 182 943 q 291 982 251 982 q 372 947 348 982 q 388 851 396 912 l 362 631 l 333 631 l 360 851 q 348 931 367 903 q 281 959 329 959 q 214 941 246 959 q 153 891 181 922 l 122 631 l 94 631 l 135 976 l 149 976 q 158 967 157 976 l 153 911 z "},"`":{"ha":511,"x_min":256,"x_max":403,"o":"m 289 988 q 307 984 301 988 q 319 969 313 980 l 403 805 l 383 805 q 375 807 379 805 q 369 813 372 808 l 256 988 l 289 988 z "},"´":{"ha":511,"x_min":300,"x_max":489,"o":"m 489 988 l 336 813 q 320 805 330 805 l 300 805 l 422 969 q 436 984 429 980 q 454 988 442 988 l 489 988 z "},"ˆ":{"ha":511,"x_min":196,"x_max":498,"o":"m 498 813 l 474 813 q 468 814 472 813 q 462 819 465 815 l 367 947 l 363 953 q 360 950 362 952 q 358 947 359 949 l 234 819 q 220 813 229 813 l 196 813 l 351 976 l 379 976 l 498 813 z "},"ˇ":{"ha":511,"x_min":215,"x_max":516,"o":"m 516 976 l 361 813 l 333 813 l 215 976 l 238 976 q 246 974 242 976 q 251 970 249 972 l 345 842 l 349 835 l 356 842 l 479 970 q 492 976 486 976 l 516 976 z "},"̕":{"ha":0,"x_min":325,"x_max":413,"o":"m 402 1006 q 413 994 413 1006 q 410 974 413 986 q 400 942 407 962 q 382 891 393 922 q 354 817 370 861 q 347 808 351 812 q 337 805 344 805 l 325 805 l 381 1006 l 402 1006 z "},"˜":{"ha":511,"x_min":200,"x_max":519,"o":"m 428 873 q 476 894 458 873 q 498 949 493 915 l 519 949 q 509 908 517 927 q 491 876 502 890 q 463 854 479 862 q 426 846 447 846 q 389 858 406 846 q 356 884 372 870 q 325 911 340 899 q 292 923 310 923 q 245 901 263 923 q 222 847 227 879 l 200 847 q 210 888 203 869 q 230 920 218 906 q 258 942 242 934 q 294 951 274 951 q 333 939 316 951 q 365 912 349 926 q 395 885 380 897 q 428 873 410 873 z "},"¯":{"ha":511,"x_min":185,"x_max":527,"o":"m 188 903 l 527 903 l 524 877 l 185 877 l 188 903 z "},"˘":{"ha":511,"x_min":219,"x_max":507,"o":"m 347 813 q 283 826 309 813 q 243 861 258 839 q 224 914 228 884 q 224 976 219 943 l 249 976 q 249 924 246 949 q 264 881 253 899 q 297 850 276 862 q 350 839 317 839 q 406 850 382 839 q 445 881 429 862 q 470 924 461 899 q 482 976 478 949 l 507 976 q 492 914 503 943 q 462 861 481 884 q 414 826 442 839 q 347 813 385 813 z "},"˚":{"ha":511,"x_min":253,"x_max":460,"o":"m 256 899 q 268 941 258 922 q 294 975 278 960 q 328 997 309 989 q 369 1005 348 1005 q 407 997 390 1005 q 436 975 424 989 q 455 941 449 960 q 458 899 460 922 q 445 857 455 876 q 419 824 435 838 q 385 802 404 810 q 344 794 365 794 q 306 802 324 794 q 277 824 289 810 q 259 857 265 838 q 256 899 253 876 m 279 899 q 294 839 275 863 q 347 815 313 815 q 379 821 364 815 q 406 839 394 827 q 425 866 417 850 q 434 899 432 881 q 432 933 436 917 q 419 959 428 948 q 396 977 410 971 q 366 983 383 983 q 334 977 349 983 q 308 959 319 971 q 289 933 297 948 q 279 899 281 917 z "},"˝":{"ha":511,"x_min":253,"x_max":592,"o":"m 432 988 l 286 813 q 269 805 280 805 l 253 805 l 374 969 q 388 984 381 980 q 406 988 394 988 l 432 988 m 592 988 l 428 813 q 412 805 422 805 l 394 805 l 530 969 q 544 984 539 980 q 563 988 550 988 l 592 988 z "},"˙":{"ha":511,"x_min":316,"x_max":406,"o":"m 406 932 q 392 899 406 913 q 361 885 378 885 q 330 899 343 885 q 316 932 316 913 q 330 966 316 951 q 361 980 343 980 q 392 966 378 980 q 406 932 406 951 z "},"¸":{"ha":511,"x_min":143,"x_max":351,"o":"m 242 -72 q 322 -99 292 -81 q 351 -153 351 -117 q 342 -193 351 -176 q 316 -223 333 -211 q 278 -242 300 -235 q 231 -249 256 -249 q 181 -239 206 -249 q 143 -215 157 -230 l 149 -206 q 158 -200 153 -200 q 166 -205 160 -200 q 180 -214 171 -209 q 202 -224 188 -219 q 236 -228 216 -228 q 298 -209 276 -228 q 320 -156 320 -190 q 312 -127 320 -139 q 289 -108 303 -115 q 253 -96 274 -100 q 210 -89 233 -92 l 249 3 l 272 3 l 242 -72 z "},"˛":{"ha":511,"x_min":145,"x_max":339,"o":"m 328 -180 q 333 -184 331 -180 l 339 -196 q 292 -223 319 -213 q 238 -233 265 -233 q 170 -211 196 -233 q 145 -149 145 -190 q 157 -98 145 -122 q 185 -54 168 -74 q 224 -18 203 -34 q 264 10 244 -2 l 281 0 q 248 -22 267 -8 q 213 -53 229 -35 q 186 -93 197 -71 q 175 -141 175 -115 q 195 -190 175 -172 q 246 -208 215 -208 q 279 -203 265 -208 q 303 -194 293 -199 q 318 -184 313 -189 q 328 -180 324 -180 z "},"Γ":{"ha":702,"x_min":95,"x_max":746,"o":"m 742 945 l 249 945 l 133 0 l 95 0 l 215 976 l 746 976 l 742 945 z "},"Δ":{"ha":831,"x_min":-27,"x_max":756,"o":"m 488 895 q 483 914 485 904 q 479 933 481 923 q 470 914 475 923 q 462 895 466 904 l 28 31 l 708 31 l 488 895 m 756 0 l -27 0 l 468 976 l 501 976 l 756 0 z "},"Θ":{"ha":1017,"x_min":90,"x_max":945,"o":"m 320 517 l 711 517 l 707 485 l 317 485 l 320 517 m 945 566 q 908 328 945 435 q 805 147 871 222 q 650 31 740 72 q 456 -10 560 -10 q 305 20 372 -10 q 189 105 237 50 q 116 238 142 160 q 90 410 90 315 q 128 648 90 542 q 231 830 165 754 q 386 947 297 906 q 578 988 475 988 q 730 957 663 988 q 846 872 798 927 q 919 739 894 817 q 945 566 945 661 m 906 565 q 882 728 906 656 q 815 851 858 800 q 711 929 772 901 q 574 956 650 956 q 399 918 481 956 q 257 810 317 881 q 163 639 197 740 q 128 413 128 538 q 152 250 128 322 q 219 127 176 178 q 323 49 263 76 q 459 22 384 22 q 637 59 555 22 q 778 167 719 97 q 872 338 838 238 q 906 565 906 439 z "},"Λ":{"ha":828,"x_min":-26,"x_max":753,"o":"m 753 0 l 724 0 q 710 11 713 0 l 487 888 q 482 909 484 898 q 478 931 479 919 q 469 909 474 919 q 458 888 464 898 l 19 11 q 13 3 18 6 q 3 0 8 0 l -26 0 l 466 976 l 500 976 l 753 0 z "},"Ξ":{"ha":783,"x_min":15,"x_max":792,"o":"m 792 976 l 788 944 l 131 944 l 135 976 l 792 976 m 676 33 l 673 0 l 15 0 l 19 33 l 676 33 m 235 517 l 575 517 l 570 484 l 231 484 l 235 517 z "},"Π":{"ha":969,"x_min":95,"x_max":892,"o":"m 772 0 l 734 0 l 849 945 l 249 945 l 133 0 l 95 0 l 215 976 l 892 976 l 772 0 z "},"Σ":{"ha":771,"x_min":1,"x_max":778,"o":"m 217 945 q 185 947 199 945 q 154 951 170 948 q 178 925 168 938 q 199 893 189 912 l 422 510 q 428 499 426 503 q 429 490 430 494 q 417 469 427 481 l 94 80 q 65 49 78 62 q 40 26 52 36 q 72 30 56 29 q 102 31 87 31 l 661 31 l 658 0 l 1 0 l 2 13 q 6 23 3 19 q 12 31 8 28 l 398 487 l 122 948 q 118 961 117 956 l 119 976 l 778 976 l 774 945 l 217 945 z "},"Φ":{"ha":1027,"x_min":70,"x_max":976,"o":"m 490 83 q 672 120 590 83 q 814 219 754 157 q 906 365 873 282 q 939 540 939 448 q 916 679 939 613 q 848 795 892 745 q 739 874 803 844 q 591 903 674 903 l 490 83 m 555 903 q 373 866 456 903 q 232 766 291 829 q 140 620 173 703 q 107 445 107 538 q 130 306 107 372 q 198 191 153 240 q 307 113 243 142 q 454 83 372 83 l 555 903 m 595 933 q 759 901 688 933 q 878 815 830 869 q 951 691 926 761 q 976 542 976 620 q 960 415 976 476 q 915 298 944 353 q 843 199 885 244 q 746 121 800 153 q 626 71 692 89 q 487 53 561 53 l 470 -83 l 434 -83 l 451 53 q 287 85 358 53 q 168 170 216 117 q 95 294 119 224 q 70 442 70 365 q 86 570 70 508 q 132 687 102 633 q 206 787 163 742 q 303 864 249 832 q 422 915 358 897 q 559 933 486 933 l 574 1059 l 610 1059 l 595 933 z "},"Ψ":{"ha":1006,"x_min":97,"x_max":995,"o":"m 995 976 l 952 633 q 906 473 941 544 q 814 352 871 402 q 678 275 756 303 q 502 247 600 248 l 472 0 l 433 0 l 463 247 q 293 275 365 248 q 176 352 222 303 q 114 473 131 402 q 108 633 97 544 l 149 976 l 174 976 q 184 972 181 976 q 185 961 187 967 l 145 633 q 150 485 135 550 q 207 374 166 419 q 313 303 247 328 q 467 278 378 278 l 553 976 l 591 976 l 506 278 q 666 303 594 278 q 789 373 737 328 q 872 484 840 419 q 915 633 904 550 l 955 961 q 960 972 956 967 q 971 976 963 976 l 995 976 z "},"Ω":{"ha":992,"x_min":38,"x_max":933,"o":"m 563 34 l 865 34 l 863 15 q 858 4 863 8 q 847 0 852 0 l 527 0 l 555 224 q 692 276 630 242 q 800 360 755 309 q 869 478 844 410 q 894 634 894 547 q 869 774 894 714 q 799 875 843 835 q 694 936 754 916 q 566 957 634 957 q 409 931 485 957 q 274 851 333 904 q 180 719 215 798 q 145 533 145 640 q 163 420 145 471 q 214 331 181 369 q 293 266 247 292 q 397 224 339 239 l 369 0 l 51 0 q 40 4 43 0 q 38 15 38 8 l 40 34 l 343 34 l 364 205 q 261 247 308 219 q 180 316 215 275 q 126 413 146 358 q 107 534 107 467 q 145 728 107 644 q 247 871 183 813 q 395 958 311 928 q 569 988 478 988 q 713 964 646 988 q 828 896 779 941 q 905 786 877 851 q 933 636 933 721 q 906 472 933 544 q 830 345 878 399 q 718 257 782 292 q 584 205 655 222 l 563 34 z "},"α":{"ha":747,"x_min":57,"x_max":694,"o":"m 238 21 q 325 45 283 21 q 405 110 367 69 q 476 209 442 152 q 538 331 509 265 q 539 414 539 372 q 536 492 540 455 q 525 561 533 529 q 501 617 517 593 q 459 653 485 640 q 397 667 434 667 q 316 650 355 667 q 244 604 278 633 q 182 534 210 574 q 135 447 155 494 q 104 348 115 400 q 93 242 93 295 q 132 76 93 132 q 238 21 170 21 m 694 685 q 635 498 667 588 q 567 328 603 408 q 566 216 567 270 q 572 121 566 163 q 594 54 578 79 q 643 29 610 29 l 667 29 l 663 11 q 654 1 662 6 q 631 -3 647 -3 q 580 19 598 -3 q 552 79 561 41 q 542 167 544 117 q 540 273 540 217 q 472 158 508 210 q 397 69 436 106 q 315 12 358 32 q 226 -8 272 -8 q 102 53 147 -8 q 57 238 57 115 q 69 352 57 295 q 103 459 81 408 q 155 553 124 510 q 224 628 186 597 q 304 678 261 660 q 394 696 347 696 q 485 670 451 696 q 535 603 518 645 q 558 506 553 560 q 565 392 563 451 q 605 502 586 447 q 639 614 623 558 q 650 652 646 638 q 658 673 655 666 q 665 683 662 681 q 672 685 668 685 l 694 685 z "},"β":{"ha":697,"x_min":34,"x_max":610,"o":"m 116 138 q 195 51 146 81 q 308 20 245 20 q 419 43 369 20 q 503 105 469 66 q 556 197 538 144 q 575 310 575 250 q 558 400 575 360 q 509 469 541 441 q 432 514 477 498 q 329 529 386 529 l 291 529 l 294 557 l 330 557 q 418 571 374 557 q 496 613 462 585 q 552 686 531 642 q 574 792 574 731 q 563 859 574 828 q 531 912 552 890 q 480 946 510 934 q 410 958 450 958 q 324 939 363 958 q 256 879 285 920 q 207 773 227 838 q 175 616 186 708 l 123 194 l 116 138 m 140 617 q 173 782 151 713 q 228 897 195 851 q 307 964 262 942 q 412 986 353 986 q 497 972 460 986 q 558 931 533 957 q 594 870 582 906 q 607 794 607 835 q 591 698 607 740 q 547 625 575 656 q 483 574 519 594 q 404 544 446 553 q 491 516 453 536 q 556 466 529 496 q 596 397 582 436 q 610 310 610 357 q 589 185 610 243 q 530 84 569 126 q 437 16 492 41 q 313 -8 382 -8 q 253 -1 283 -8 q 198 20 224 6 q 150 56 172 34 q 113 106 128 77 l 92 -63 l 64 -231 q 45 -248 60 -248 l 34 -248 l 88 196 l 140 617 z "},"γ":{"ha":660,"x_min":66,"x_max":653,"o":"m 653 685 q 580 486 616 574 q 504 323 544 399 q 418 177 464 247 q 315 34 372 108 l 281 -248 l 246 -248 l 281 40 q 246 324 264 207 q 205 516 228 442 q 155 625 183 591 q 89 659 126 659 l 66 659 l 68 672 q 74 683 69 679 q 99 687 79 687 q 174 655 142 687 q 231 550 206 623 q 274 357 256 476 q 306 63 292 238 q 396 193 354 126 q 475 333 438 260 q 544 489 512 407 q 607 663 576 570 q 616 681 611 676 q 628 685 621 685 l 653 685 z "},"δ":{"ha":693,"x_min":57,"x_max":608,"o":"m 300 19 q 405 41 355 19 q 492 104 454 63 q 551 204 529 145 q 573 335 573 263 q 557 437 573 392 q 517 518 542 482 q 459 583 492 554 q 394 638 427 613 q 277 588 332 619 q 181 511 222 556 q 116 405 140 466 q 92 265 92 344 q 105 172 92 217 q 143 94 117 128 q 208 40 169 60 q 300 19 247 19 m 601 946 q 597 937 599 939 q 587 935 594 935 q 567 939 583 935 q 528 947 551 942 q 478 954 506 951 q 422 958 450 958 q 344 948 376 958 q 292 923 313 939 q 263 887 272 908 q 254 844 254 866 q 269 789 254 814 q 309 742 285 765 q 366 696 334 719 q 431 648 398 673 q 496 592 464 622 q 552 525 528 563 q 592 442 577 488 q 608 338 608 396 q 584 193 608 258 q 518 84 560 129 q 419 16 476 40 q 298 -8 363 -8 q 192 14 238 -8 q 117 73 147 35 q 72 160 87 110 q 57 264 57 209 q 78 399 57 338 q 141 509 100 460 q 241 593 182 558 q 377 650 301 628 q 318 694 347 672 q 268 738 290 715 q 234 786 247 760 q 221 842 221 812 q 232 895 221 869 q 266 941 242 921 q 330 974 290 961 q 426 986 369 986 q 466 984 444 986 q 512 980 488 983 q 559 972 535 976 q 604 963 583 968 l 601 946 z "},"ε":{"ha":576,"x_min":46,"x_max":533,"o":"m 478 84 q 441 50 464 67 q 391 20 419 33 q 330 0 363 8 q 260 -8 297 -8 q 173 5 213 -8 q 105 42 133 19 q 61 99 77 66 q 46 169 46 131 q 58 237 46 205 q 96 295 71 269 q 159 340 121 322 q 249 365 197 358 q 181 388 208 372 q 137 423 153 403 q 113 466 120 443 q 106 510 106 489 q 121 578 106 544 q 166 638 136 611 q 242 680 197 664 q 347 696 287 696 q 457 676 411 696 q 533 623 503 656 l 524 611 q 513 606 519 606 q 498 615 508 606 q 467 636 487 625 q 418 658 448 648 q 344 667 388 667 q 254 654 292 667 q 190 618 215 640 q 152 567 165 596 q 139 510 139 539 q 151 458 139 482 q 186 416 163 434 q 242 388 209 399 q 316 378 274 378 l 419 378 l 416 351 l 313 351 q 215 338 258 351 q 143 301 172 325 q 98 245 113 278 q 82 173 82 212 q 95 111 82 139 q 132 62 108 83 q 190 31 156 42 q 265 19 224 19 q 350 32 315 19 q 409 59 385 44 q 445 86 432 74 q 463 99 458 99 q 471 94 467 99 l 478 84 z "},"ζ":{"ha":472,"x_min":59,"x_max":559,"o":"m 559 963 q 558 957 559 960 q 550 947 556 954 q 532 929 544 940 q 499 898 520 917 q 403 809 451 855 q 309 715 354 764 q 225 614 264 666 q 157 507 186 562 q 111 393 128 451 q 94 272 94 334 q 108 189 94 224 q 145 131 122 155 q 200 91 168 107 q 270 64 233 76 q 357 30 324 48 q 409 -5 390 13 q 433 -41 427 -23 q 440 -74 440 -58 q 434 -120 440 -99 q 420 -161 429 -142 q 400 -200 412 -181 q 376 -239 389 -219 l 350 -226 q 370 -194 360 -210 q 388 -160 380 -177 q 400 -123 395 -142 q 405 -83 405 -104 q 400 -55 405 -69 q 379 -25 394 -40 q 334 4 363 -10 q 259 33 306 19 q 177 65 214 46 q 114 110 140 83 q 73 175 88 138 q 59 265 59 213 q 94 447 59 361 q 192 616 130 533 q 339 781 254 699 q 522 952 424 863 q 395 948 464 949 q 255 947 326 947 l 192 947 q 183 950 186 947 q 181 958 179 953 l 183 976 l 558 976 l 559 963 z "},"η":{"ha":726,"x_min":42,"x_max":628,"o":"m 172 440 q 235 546 200 499 q 310 626 271 594 q 392 677 350 659 q 476 694 434 694 q 552 677 521 694 q 600 627 583 660 q 623 547 618 594 q 621 438 628 499 l 537 -248 l 501 -248 l 585 438 l 586 438 q 571 605 599 546 q 467 665 543 665 q 384 644 426 665 q 303 587 342 624 q 228 496 264 549 q 165 377 193 443 l 120 0 l 85 0 l 151 533 q 138 632 160 601 q 62 663 116 663 l 42 663 l 43 674 q 50 686 44 683 q 72 690 56 690 q 125 682 102 690 q 163 656 148 674 q 182 608 177 638 q 183 535 188 578 l 172 440 z "},"θ":{"ha":763,"x_min":99,"x_max":680,"o":"m 138 478 q 133 358 133 421 q 146 218 133 281 q 183 111 158 156 q 246 44 208 67 q 335 20 284 20 q 454 52 401 20 q 544 143 506 84 q 607 288 583 203 q 640 478 631 373 l 138 478 m 642 505 q 645 559 644 531 q 646 616 646 587 q 634 758 646 695 q 597 866 622 822 q 535 934 572 910 q 448 958 498 958 q 328 926 381 958 q 237 835 276 894 q 174 693 199 776 q 140 505 149 609 l 642 505 m 449 986 q 548 960 505 986 q 620 887 591 935 q 665 770 649 839 q 680 613 680 701 q 656 353 680 468 q 588 158 633 238 q 479 34 543 77 q 334 -8 415 -8 q 232 17 276 -8 q 158 89 188 42 q 114 206 128 137 q 99 362 99 274 q 122 623 99 507 q 191 819 146 738 q 301 943 236 900 q 449 986 367 986 z "},"ι":{"ha":303,"x_min":68,"x_max":251,"o":"m 142 685 l 178 685 l 113 155 q 128 53 105 88 q 210 19 151 19 l 251 19 l 249 6 q 238 -5 249 -1 q 197 -9 227 -9 q 98 33 128 -9 q 78 154 68 75 l 142 685 z "},"λ":{"ha":668,"x_min":1,"x_max":622,"o":"m 622 22 l 620 9 q 612 -2 619 1 q 585 -6 606 -6 q 543 -1 562 -6 q 508 17 524 3 q 481 53 493 30 q 461 115 469 77 l 352 575 q 348 597 349 587 q 346 616 347 606 q 331 580 341 600 l 49 13 q 41 3 46 7 q 26 0 36 0 l 1 0 l 332 650 l 279 878 q 267 913 274 898 q 249 939 260 928 q 221 953 238 949 q 179 958 204 958 l 143 958 l 144 972 q 152 982 145 978 q 185 986 160 986 q 271 965 242 986 q 311 894 299 943 l 496 115 q 530 43 508 64 q 588 22 552 22 l 622 22 z "},"μ":{"ha":747,"x_min":34,"x_max":692,"o":"m 692 23 l 691 8 q 680 -2 690 2 q 650 -6 670 -6 q 600 3 624 -6 q 560 28 577 11 q 535 73 544 46 q 530 139 527 101 q 413 31 478 70 q 277 -8 349 -8 q 164 25 205 -8 q 110 121 123 58 q 105 57 108 90 q 98 -3 101 24 l 68 -248 l 50 -248 q 38 -243 42 -248 q 35 -231 34 -239 l 148 685 l 185 685 l 128 227 q 132 141 125 179 q 159 76 140 103 q 209 35 178 49 q 283 22 240 22 q 415 62 352 22 q 530 174 478 102 l 593 685 l 630 685 l 565 152 q 566 94 560 118 q 586 54 572 69 q 622 31 601 38 q 670 23 643 23 l 692 23 z "},"ν":{"ha":639,"x_min":65,"x_max":632,"o":"m 632 685 q 555 479 594 572 q 474 306 517 387 q 381 151 431 225 q 273 0 332 76 l 251 0 l 65 685 l 91 685 q 101 681 97 685 q 106 672 104 678 l 264 78 q 268 59 267 69 q 272 40 270 50 q 364 174 321 106 q 446 318 408 242 q 519 481 485 394 q 587 667 554 567 q 595 681 590 677 q 606 685 600 685 l 632 685 z "},"ξ":{"ha":483,"x_min":54,"x_max":522,"o":"m 520 962 q 514 950 519 954 q 502 946 508 946 l 452 946 q 345 926 394 946 q 258 873 295 906 q 201 796 222 840 q 180 705 180 752 q 193 641 180 670 q 231 590 206 611 q 294 556 256 568 q 384 543 333 543 l 427 543 l 424 514 l 365 514 q 244 495 296 514 q 159 442 193 476 q 107 363 124 409 q 90 263 90 317 q 106 185 90 218 q 149 128 122 153 q 213 86 176 103 q 291 53 249 68 q 356 24 331 38 q 395 -6 381 9 q 415 -36 410 -20 q 420 -69 420 -51 q 401 -159 420 -119 q 356 -238 383 -199 l 330 -224 q 350 -192 340 -208 q 368 -158 360 -176 q 381 -119 376 -140 q 386 -76 386 -99 q 382 -50 386 -62 q 365 -25 377 -37 q 330 -1 352 -12 q 272 23 308 11 q 189 57 228 38 q 119 104 149 76 q 72 169 90 131 q 54 259 54 207 q 69 353 54 308 q 113 434 83 398 q 186 496 142 471 q 290 532 230 522 q 225 558 252 541 q 180 598 198 575 q 154 647 163 620 q 145 702 145 673 q 162 785 145 746 q 209 858 179 825 q 280 915 239 891 q 371 951 322 939 q 303 949 338 949 q 221 948 269 948 l 151 948 q 139 960 138 948 l 141 976 l 522 976 l 520 962 z "},"π":{"ha":753,"x_min":13,"x_max":733,"o":"m 731 655 q 713 642 730 642 l 596 642 q 578 511 586 566 q 564 414 570 456 q 552 342 557 373 q 545 285 548 312 q 540 233 542 259 q 538 176 538 208 q 544 101 538 130 q 560 55 549 72 q 587 32 571 38 q 624 26 603 26 l 641 26 l 638 11 q 600 -3 638 -3 q 558 5 576 -3 q 526 30 539 12 q 507 77 513 47 q 500 153 500 107 q 507 249 500 197 q 523 362 513 301 q 544 493 533 423 q 566 642 556 563 l 269 642 q 215 341 246 464 q 152 141 184 218 q 88 30 119 65 q 32 -4 56 -4 q 19 -2 24 -4 q 14 5 13 1 l 17 31 l 29 31 q 71 64 45 31 q 127 169 97 97 q 185 359 156 242 q 236 642 214 475 l 83 642 l 85 656 q 91 667 86 661 q 104 672 95 672 l 733 672 l 731 655 z "},"ρ":{"ha":708,"x_min":24,"x_max":628,"o":"m 110 155 q 149 95 126 121 q 197 53 172 70 q 249 28 222 36 q 303 19 276 19 q 425 51 372 19 q 516 136 479 82 q 573 261 553 190 q 592 412 592 332 q 577 523 592 475 q 538 603 563 571 q 475 651 512 635 q 394 667 439 667 q 305 649 347 667 q 227 595 262 631 q 169 506 193 560 q 138 381 146 452 l 110 155 m 101 380 q 138 519 111 460 q 203 618 164 578 q 291 676 242 657 q 397 696 340 696 q 491 678 449 696 q 565 624 534 660 q 612 534 595 588 q 628 412 628 481 q 606 249 628 326 q 542 116 584 173 q 441 25 501 58 q 306 -8 381 -8 q 247 0 276 -8 q 191 25 217 9 q 142 65 165 42 q 105 117 120 88 l 60 -248 l 24 -248 l 101 380 z "},"σ":{"ha":731,"x_min":63,"x_max":735,"o":"m 424 650 q 278 622 340 650 q 177 544 217 594 q 118 426 137 494 q 99 278 99 358 q 113 169 99 217 q 154 88 127 122 q 220 38 181 55 q 310 20 260 20 q 433 49 379 20 q 523 128 486 77 q 578 251 559 179 q 597 408 597 322 q 587 497 597 456 q 557 570 577 538 q 508 623 538 602 q 440 650 479 644 l 424 650 m 735 678 l 733 667 q 727 655 732 660 q 712 650 723 650 l 502 650 q 559 611 534 635 q 600 554 583 586 q 625 483 617 522 q 633 401 633 444 q 611 238 633 313 q 546 108 588 163 q 443 23 503 53 q 307 -8 383 -8 q 205 11 251 -8 q 128 68 160 31 q 80 158 97 105 q 63 279 63 212 q 86 440 63 367 q 155 566 109 513 q 269 649 201 619 q 427 678 338 678 l 735 678 z "},"ς":{"ha":580,"x_min":65,"x_max":566,"o":"m 556 610 q 551 606 553 608 q 545 605 549 605 q 530 615 540 605 q 501 636 519 624 q 456 658 483 648 q 388 667 428 667 q 270 641 323 667 q 180 568 217 615 q 123 457 143 521 q 103 319 103 394 q 122 211 103 255 q 172 138 140 167 q 245 88 203 108 q 333 52 287 68 q 399 24 373 38 q 439 -5 424 10 q 459 -35 453 -19 q 465 -70 465 -51 q 445 -160 465 -120 q 401 -239 426 -201 l 374 -226 q 394 -193 384 -210 q 412 -158 404 -176 q 425 -120 420 -140 q 430 -77 430 -100 q 425 -50 430 -63 q 408 -25 421 -37 q 373 -1 396 -13 q 315 22 351 10 q 215 63 260 40 q 135 120 169 86 q 84 201 102 154 q 65 316 65 249 q 88 467 65 398 q 153 588 110 537 q 255 667 195 638 q 388 696 314 696 q 492 675 448 696 q 566 622 537 655 l 556 610 z "},"τ":{"ha":572,"x_min":55,"x_max":568,"o":"m 567 658 q 561 647 565 651 q 549 643 557 643 l 305 643 l 246 161 q 261 60 238 94 q 343 25 284 25 l 384 25 l 382 13 q 370 1 381 6 q 330 -3 360 -3 q 231 39 261 -3 q 210 160 201 81 l 269 643 l 55 643 l 57 659 q 73 672 58 672 l 568 672 l 567 658 z "},"υ":{"ha":696,"x_min":80,"x_max":606,"o":"m 598 685 q 601 636 599 662 q 604 586 603 611 q 606 539 605 562 q 606 497 606 515 q 580 264 606 360 q 509 106 553 167 q 409 17 465 45 q 293 -11 352 -11 q 197 6 239 -11 q 128 57 156 24 q 91 138 101 90 q 88 247 80 186 l 141 685 l 176 685 l 123 247 q 125 150 116 192 q 158 78 135 108 q 216 34 181 49 q 298 18 252 18 q 361 28 329 18 q 423 61 393 39 q 480 120 453 84 q 527 209 507 157 q 558 329 547 260 q 569 485 569 397 q 569 526 569 503 q 567 575 568 550 q 565 625 566 601 q 562 669 563 649 q 566 681 561 677 q 574 685 570 685 l 598 685 z "},"φ":{"ha":867,"x_min":63,"x_max":789,"o":"m 399 19 q 554 53 488 20 q 665 140 621 85 q 731 267 709 195 q 753 419 753 340 q 743 516 753 470 q 712 595 733 561 q 662 648 692 628 q 595 668 633 668 q 504 630 538 668 q 460 515 470 591 l 399 19 m 426 515 q 479 650 437 603 q 597 696 521 696 q 678 674 642 696 q 739 615 714 653 q 776 528 763 578 q 789 421 789 478 q 763 254 789 332 q 687 118 737 176 q 564 26 637 60 q 396 -8 490 -8 l 367 -248 l 333 -248 l 362 -8 q 229 17 285 -8 q 136 84 173 42 q 81 181 99 126 q 63 297 63 235 q 80 427 63 366 q 130 540 98 489 q 208 629 163 590 q 311 692 254 668 l 318 678 q 318 667 320 673 q 310 660 315 662 q 217 596 257 635 q 151 510 178 558 q 112 408 125 463 q 99 298 99 354 q 114 193 99 244 q 162 105 130 143 q 245 43 194 66 q 365 19 295 20 l 426 515 z "},"χ":{"ha":578,"x_min":-37,"x_max":557,"o":"m 406 -132 q 422 -175 413 -158 q 442 -204 431 -193 q 466 -220 453 -215 q 497 -225 480 -225 l 517 -225 l 515 -239 q 509 -249 514 -246 q 489 -253 505 -253 q 454 -249 471 -253 q 423 -233 438 -244 q 395 -200 408 -221 q 373 -146 383 -179 l 266 216 q 252 186 260 201 q 238 159 245 171 l 5 -233 q -2 -242 3 -237 q -14 -246 -6 -246 l -37 -246 l 253 242 l 153 581 q 139 616 147 601 q 119 641 131 631 q 90 656 108 651 q 47 661 72 661 l 28 661 l 31 675 q 35 685 31 681 q 56 689 38 689 q 141 667 112 689 q 185 597 171 645 l 282 265 q 295 297 288 281 q 310 325 303 313 l 515 672 q 522 680 517 676 q 533 685 526 685 l 557 685 l 294 241 l 406 -132 z "},"ψ":{"ha":921,"x_min":83,"x_max":833,"o":"m 824 685 q 828 636 826 662 q 830 586 829 611 q 832 539 831 562 q 833 497 833 515 q 816 325 833 399 q 769 195 799 250 q 700 102 740 140 q 616 40 660 64 q 523 5 571 16 q 428 -8 474 -6 l 398 -248 l 363 -248 l 392 -8 q 260 14 319 -6 q 161 73 201 35 q 101 169 120 112 q 92 300 83 226 l 139 685 l 163 685 q 171 680 168 685 q 173 669 174 675 l 128 300 q 136 188 120 238 q 188 100 152 137 q 276 43 223 64 q 395 20 328 22 l 513 976 l 549 976 l 431 21 q 513 33 471 23 q 596 64 556 42 q 673 119 637 85 q 736 203 709 153 q 780 322 764 253 q 796 480 796 390 q 795 524 796 500 q 793 574 794 549 q 791 624 792 599 q 788 669 789 649 q 791 681 788 677 q 800 685 795 685 l 824 685 z "},"ω":{"ha":918,"x_min":62,"x_max":831,"o":"m 772 685 q 814 540 797 618 q 831 381 831 462 q 808 202 831 276 q 747 80 785 128 q 663 11 710 33 q 570 -11 617 -11 q 518 -2 543 -11 q 474 25 494 6 q 441 74 454 44 q 426 145 428 103 q 392 74 412 103 q 348 25 372 44 q 297 -2 324 6 q 244 -11 270 -11 q 175 5 208 -11 q 117 53 142 21 q 77 135 92 86 q 62 252 62 185 q 74 377 62 320 q 106 486 85 434 q 153 586 126 538 q 210 685 180 634 l 233 685 q 242 680 239 685 q 240 666 246 676 q 180 563 206 613 q 135 464 153 513 q 107 363 117 414 q 97 255 97 311 q 112 142 97 187 q 150 69 127 97 q 199 30 172 41 q 249 18 226 18 q 310 32 283 18 q 360 73 338 47 q 396 138 381 100 q 417 224 411 176 l 445 453 l 481 453 l 453 228 q 452 141 447 180 q 473 75 458 102 q 512 33 488 47 q 570 18 537 18 q 615 25 590 18 q 665 49 640 32 q 713 92 690 65 q 755 159 737 119 q 785 253 774 199 q 796 378 796 308 q 780 522 796 447 q 737 667 765 598 q 739 680 734 676 q 750 685 744 685 l 772 685 z "},"΄":{"ha":511,"x_min":334,"x_max":449,"o":"m 334 803 l 413 1013 l 435 1013 q 446 1006 443 1013 q 444 990 449 999 l 358 803 l 334 803 z "},"΅":{"ha":511,"x_min":203,"x_max":560,"o":"m 334 804 l 413 1014 l 435 1014 q 446 1007 443 1014 q 444 990 449 1000 l 358 804 l 334 804 m 558 872 q 552 856 557 864 q 542 843 548 849 q 528 833 535 837 q 513 830 520 830 q 485 843 496 830 q 476 872 475 856 q 492 903 478 890 q 522 916 506 916 q 549 903 538 916 q 558 872 560 890 m 285 872 q 280 856 285 864 q 269 843 276 849 q 255 833 263 837 q 240 830 247 830 q 213 843 224 830 q 205 872 203 856 q 220 903 207 890 q 250 916 234 916 q 277 903 266 916 q 285 872 288 890 z "},"ʹ":{"ha":244,"x_min":142,"x_max":255,"o":"m 255 1040 q 248 968 253 1004 q 231 896 242 931 q 201 827 219 860 q 155 764 182 793 l 147 772 q 147 783 142 776 q 176 827 163 803 q 199 875 190 850 q 211 925 208 899 q 211 976 215 950 l 217 1024 q 222 1035 219 1030 q 232 1040 225 1040 l 255 1040 z "},"͵":{"ha":244,"x_min":44,"x_max":157,"o":"m 157 169 q 150 97 156 133 q 133 25 144 60 q 103 -44 122 -10 q 57 -107 84 -78 l 49 -99 q 49 -88 44 -94 q 78 -44 65 -67 q 101 4 92 -21 q 113 54 110 28 q 113 105 117 79 l 119 153 q 124 164 121 159 q 134 169 127 169 l 157 169 z "},"Б":{"ha":781,"x_min":95,"x_max":744,"o":"m 194 493 l 136 31 l 363 31 q 485 49 432 31 q 575 101 538 67 q 630 187 611 136 q 649 302 649 238 q 591 445 649 397 q 421 493 534 493 l 194 493 m 249 946 l 197 523 l 424 523 q 620 466 554 523 q 687 306 687 409 q 665 178 687 235 q 600 82 642 122 q 498 21 558 42 q 359 0 437 0 l 95 0 l 215 976 l 744 976 l 740 946 l 249 946 z "},"Г":{"ha":690,"x_min":95,"x_max":733,"o":"m 729 945 l 249 945 l 133 0 l 95 0 l 215 976 l 733 976 l 729 945 z "},"Ґ":{"ha":690,"x_min":95,"x_max":761,"o":"m 729 945 l 249 945 l 133 0 l 95 0 l 215 976 l 702 976 l 730 1204 l 761 1204 l 729 945 z "},"Д":{"ha":955,"x_min":-69,"x_max":877,"o":"m 678 31 l 790 945 l 398 945 q 349 675 373 795 q 300 459 324 554 q 250 294 275 365 q 201 171 226 223 q 151 85 176 119 q 100 31 126 51 l 678 31 m 877 31 l 844 -235 q 828 -249 842 -249 l 807 -249 l 838 0 l -5 0 l -34 -235 q -39 -245 -34 -242 q -49 -249 -43 -249 l -69 -249 l -35 31 l 42 31 q 95 66 69 40 q 148 138 122 91 q 202 256 175 185 q 256 429 228 327 q 310 667 283 531 q 365 976 338 802 l 832 976 l 717 31 l 877 31 z "},"Ж":{"ha":1264,"x_min":-19,"x_max":1290,"o":"m 922 559 q 882 522 902 535 q 833 501 862 508 q 880 480 861 495 q 912 442 898 465 l 1183 0 l 1159 0 q 1144 4 1151 0 q 1134 15 1138 8 l 875 431 q 839 469 860 455 q 780 483 817 483 l 659 483 l 600 0 l 563 0 l 623 483 l 503 483 q 440 469 465 483 q 394 431 415 455 l 35 15 q 22 4 29 8 q 6 0 15 0 l -19 0 l 360 442 q 402 480 380 465 q 453 501 424 495 q 410 522 427 508 q 378 559 393 535 l 113 976 l 141 976 q 154 972 149 976 q 163 962 160 968 l 417 565 q 438 538 427 549 q 461 522 449 528 q 488 515 474 517 q 518 513 501 513 l 626 513 l 683 976 l 719 976 l 663 513 l 772 513 q 803 515 788 513 q 831 522 817 517 q 858 538 844 528 q 885 565 871 549 l 1237 962 q 1248 972 1242 968 q 1263 976 1255 976 l 1290 976 l 922 559 z "},"З":{"ha":726,"x_min":13,"x_max":651,"o":"m 148 888 q 267 961 204 937 q 411 985 331 985 q 514 969 469 985 q 590 924 559 953 q 636 857 620 896 q 651 774 651 819 q 634 681 651 722 q 588 608 617 639 q 523 557 560 577 q 447 528 486 537 q 524 498 491 518 q 579 448 557 477 q 613 383 601 419 q 624 308 624 347 q 602 184 624 242 q 536 83 579 126 q 430 15 492 40 q 286 -10 367 -10 q 197 -1 237 -10 q 124 24 156 8 q 64 64 91 40 q 13 117 37 88 l 24 131 q 37 138 30 138 q 50 129 42 138 q 71 107 58 120 q 103 80 84 94 q 148 52 122 65 q 208 30 174 39 q 288 22 243 22 q 414 44 358 22 q 509 105 470 66 q 568 195 547 143 q 588 305 588 247 q 575 385 588 347 q 534 451 561 423 q 467 495 507 478 q 374 511 426 511 l 259 511 l 263 544 l 384 544 q 468 559 426 544 q 542 603 509 574 q 594 674 574 632 q 615 770 615 716 q 601 844 615 810 q 561 902 588 878 q 497 940 535 926 q 409 954 458 954 q 304 941 347 954 q 233 910 261 927 q 188 880 204 894 q 165 867 172 867 q 154 874 157 867 l 148 888 z "},"И":{"ha":969,"x_min":95,"x_max":892,"o":"m 892 976 l 772 0 l 734 0 l 839 853 q 843 889 841 871 q 850 926 846 906 q 832 897 840 910 q 814 872 824 884 l 142 11 q 132 3 138 6 q 119 0 127 0 l 95 0 l 215 976 l 253 976 l 148 123 q 143 88 146 106 q 137 51 141 69 q 155 80 147 67 q 173 104 163 92 l 845 965 q 865 976 853 976 l 892 976 z "},"К":{"ha":805,"x_min":95,"x_max":825,"o":"m 450 556 q 411 520 430 534 q 366 501 392 507 q 408 482 392 496 q 439 445 424 468 l 731 0 l 700 0 q 684 4 690 0 q 673 18 678 8 l 401 435 q 385 456 393 447 q 368 471 378 465 q 345 480 358 477 q 313 483 332 483 l 192 483 l 133 0 l 95 0 l 215 976 l 253 976 l 196 513 l 306 513 q 336 515 322 513 q 363 522 350 517 q 388 538 375 528 q 415 563 400 547 l 769 963 q 797 976 781 976 l 825 976 l 450 556 z "},"Л":{"ha":894,"x_min":-53,"x_max":818,"o":"m 698 0 l 660 0 l 776 945 l 384 945 q 320 601 351 748 q 257 348 288 453 q 193 173 225 242 q 127 64 161 104 q 59 8 94 24 q -13 -8 24 -8 q -27 -7 -19 -8 q -40 -5 -34 -6 q -50 -2 -46 -3 q -53 3 -53 0 l -50 26 l -14 26 q 48 42 17 26 q 109 98 78 58 q 168 207 139 138 q 228 382 198 276 q 289 634 258 488 q 351 976 319 781 l 818 976 l 698 0 z "},"Љ":{"ha":1329,"x_min":-53,"x_max":1256,"o":"m 933 31 q 1055 49 1001 31 q 1144 101 1108 67 q 1200 187 1181 136 q 1219 302 1219 238 q 1161 445 1219 397 q 990 493 1103 493 l 758 493 l 701 31 l 933 31 m 994 523 q 1191 466 1125 523 q 1256 306 1256 410 q 1234 178 1256 235 q 1170 82 1213 122 q 1067 21 1128 42 q 928 0 1006 0 l 660 0 l 776 945 l 384 945 q 320 601 351 748 q 257 348 288 453 q 193 173 225 242 q 127 64 161 104 q 59 8 94 24 q -13 -8 24 -8 q -27 -7 -19 -8 q -40 -5 -34 -6 q -50 -2 -46 -3 q -53 3 -53 0 l -50 26 l -14 26 q 48 42 17 26 q 109 98 78 58 q 168 207 139 138 q 228 382 198 276 q 289 634 258 488 q 351 976 319 781 l 818 976 l 763 523 l 994 523 z "},"Њ":{"ha":1394,"x_min":95,"x_max":1321,"o":"m 997 31 q 1119 49 1066 31 q 1209 101 1172 67 q 1264 187 1245 136 q 1283 302 1283 238 q 1226 445 1283 397 q 1055 493 1168 493 l 831 493 l 774 31 l 997 31 m 1059 523 q 1255 466 1190 523 q 1321 306 1321 410 q 1299 178 1321 235 q 1235 82 1277 122 q 1132 21 1193 42 q 993 0 1071 0 l 733 0 l 792 481 l 192 481 l 133 0 l 95 0 l 215 976 l 253 976 l 195 510 l 796 510 l 853 976 l 891 976 l 835 523 l 1059 523 z "},"Ѳ":{"ha":1017,"x_min":90,"x_max":945,"o":"m 132 486 q 130 450 131 468 q 128 413 128 431 q 152 250 128 322 q 219 127 176 178 q 323 49 263 76 q 459 22 384 22 q 624 53 547 22 q 758 145 700 85 q 854 291 817 205 q 902 486 892 378 l 132 486 m 904 517 q 905 541 905 528 q 906 565 906 553 q 882 728 906 656 q 815 851 858 800 q 711 929 772 901 q 574 956 650 956 q 416 926 490 956 q 284 839 342 896 q 188 701 226 782 q 135 517 149 619 l 904 517 m 578 988 q 730 957 663 988 q 846 872 798 927 q 919 739 894 817 q 945 566 945 661 q 908 328 945 435 q 805 147 871 222 q 650 31 740 72 q 456 -10 560 -10 q 305 20 372 -10 q 189 105 237 50 q 116 238 142 160 q 90 410 90 315 q 128 648 90 542 q 231 830 165 754 q 386 947 297 906 q 578 988 475 988 z "},"П":{"ha":926,"x_min":95,"x_max":849,"o":"m 728 0 l 691 0 l 807 945 l 249 945 l 133 0 l 95 0 l 215 976 l 849 976 l 728 0 z "},"У":{"ha":761,"x_min":96,"x_max":801,"o":"m 801 976 l 325 110 q 252 19 290 47 q 163 -8 214 -8 q 132 -4 143 -8 q 122 7 120 -1 l 124 26 l 160 26 q 234 50 201 26 q 294 124 267 74 l 373 269 l 96 976 l 129 976 q 143 966 139 976 l 376 352 q 392 296 387 324 q 405 324 398 310 q 420 353 412 338 l 752 966 q 769 976 758 976 l 801 976 z "},"Ѵ":{"ha":862,"x_min":92,"x_max":908,"o":"m 739 881 q 795 953 760 929 q 867 977 829 977 q 900 974 893 977 q 906 964 908 972 l 904 947 l 869 947 q 817 926 843 947 q 774 869 790 905 l 378 0 l 346 0 l 92 976 l 120 976 q 134 965 132 976 l 358 89 q 363 67 360 78 q 367 44 365 56 q 376 67 371 56 q 386 89 381 78 l 739 881 z "},"Ф":{"ha":960,"x_min":81,"x_max":903,"o":"m 466 152 q 627 186 553 153 q 753 275 700 219 q 835 405 806 331 q 865 561 865 478 q 844 685 865 626 q 783 788 823 743 q 686 858 744 832 q 556 885 628 884 l 466 152 m 519 885 q 358 851 431 885 q 231 762 284 818 q 149 632 178 706 q 119 476 119 558 q 140 352 119 410 q 201 249 161 293 q 298 179 240 205 q 429 152 356 153 l 519 885 m 559 914 q 707 885 642 913 q 814 808 771 856 q 880 696 858 760 q 903 563 903 633 q 871 394 903 474 q 782 254 840 315 q 643 158 724 194 q 462 122 562 122 l 447 0 l 410 0 l 426 122 q 278 151 342 122 q 170 228 214 179 q 104 340 126 276 q 81 474 81 403 q 114 642 81 563 q 205 782 147 722 q 344 878 263 842 q 523 914 426 913 l 537 1028 l 573 1028 l 559 914 z "},"Ц":{"ha":966,"x_min":95,"x_max":885,"o":"m 885 31 l 853 -235 q 838 -249 851 -249 l 817 -249 l 848 0 l 95 0 l 215 976 l 253 976 l 137 31 l 695 31 l 811 976 l 849 976 l 733 31 l 885 31 z "},"Џ":{"ha":926,"x_min":95,"x_max":849,"o":"m 849 976 l 728 0 l 429 0 l 401 -235 q 385 -249 399 -249 l 364 -249 l 394 0 l 95 0 l 215 976 l 253 976 l 137 31 l 695 31 l 811 976 l 849 976 z "},"Ч":{"ha":816,"x_min":96,"x_max":739,"o":"m 739 976 l 619 0 l 581 0 l 641 485 q 497 447 568 463 q 364 426 426 431 q 250 431 301 422 q 163 468 198 440 q 112 543 128 495 q 105 664 96 591 l 143 976 l 181 976 l 143 664 q 148 561 135 603 q 190 495 160 520 q 265 462 219 471 q 368 457 310 453 q 496 476 426 460 q 644 516 566 492 l 701 976 l 739 976 z "},"Ш":{"ha":1365,"x_min":95,"x_max":1288,"o":"m 1288 976 l 1167 0 l 95 0 l 215 976 l 253 976 l 137 31 l 613 31 l 729 976 l 767 976 l 651 31 l 1133 31 l 1249 976 l 1288 976 z "},"Щ":{"ha":1405,"x_min":95,"x_max":1324,"o":"m 1324 31 l 1292 -235 q 1277 -249 1290 -249 l 1256 -249 l 1287 0 l 95 0 l 215 976 l 253 976 l 137 31 l 613 31 l 729 976 l 767 976 l 651 31 l 1133 31 l 1249 976 l 1288 976 l 1172 31 l 1324 31 z "},"Ъ":{"ha":899,"x_min":76,"x_max":826,"o":"m 502 31 q 624 49 571 31 q 714 101 677 67 q 769 187 750 136 q 788 302 788 238 q 730 445 788 397 q 560 493 673 493 l 332 493 l 275 31 l 502 31 m 563 523 q 759 466 693 523 q 826 306 826 409 q 803 178 826 235 q 739 82 781 122 q 636 21 697 42 q 498 0 576 0 l 234 0 l 350 944 l 76 944 l 81 976 l 392 976 l 336 523 l 563 523 z "},"Ы":{"ha":1091,"x_min":95,"x_max":1014,"o":"m 363 31 q 485 49 432 31 q 575 101 538 67 q 630 187 611 136 q 649 302 649 238 q 591 445 649 397 q 421 493 534 493 l 193 493 l 136 31 l 363 31 m 424 523 q 620 466 554 523 q 687 306 687 409 q 665 178 687 235 q 600 82 642 122 q 498 21 558 42 q 359 0 437 0 l 95 0 l 215 976 l 253 976 l 197 523 l 424 523 m 894 0 l 856 0 l 976 976 l 1014 976 l 894 0 z "},"Ь":{"ha":760,"x_min":95,"x_max":687,"o":"m 363 31 q 485 49 432 31 q 575 101 538 67 q 630 187 611 136 q 649 302 649 238 q 591 445 649 397 q 421 493 534 493 l 193 493 l 136 31 l 363 31 m 424 523 q 620 466 554 523 q 687 306 687 409 q 665 178 687 235 q 600 82 642 122 q 498 21 558 42 q 359 0 437 0 l 95 0 l 215 976 l 253 976 l 197 523 l 424 523 z "},"Э":{"ha":886,"x_min":25,"x_max":814,"o":"m 134 872 q 275 958 201 928 q 441 988 349 988 q 597 956 528 988 q 714 869 666 925 q 788 734 763 813 q 814 562 814 656 q 777 326 814 432 q 674 145 740 220 q 520 30 609 70 q 328 -11 431 -11 q 228 -1 273 -11 q 146 27 183 9 q 80 70 109 45 q 25 126 50 96 l 42 141 q 49 144 45 144 q 57 140 53 144 q 109 89 82 111 q 169 51 137 67 q 241 28 202 36 q 330 21 281 21 q 490 53 414 21 q 625 144 566 85 q 723 291 684 204 q 772 486 762 377 l 250 486 l 253 517 l 774 517 q 775 539 775 528 q 776 561 776 549 q 752 724 776 651 q 684 848 728 797 q 577 928 640 900 q 438 956 515 956 q 320 940 371 956 q 234 904 269 924 q 178 869 199 885 q 152 853 158 853 q 142 858 144 853 l 134 872 z "},"Є":{"ha":888,"x_min":90,"x_max":865,"o":"m 790 126 q 723 70 758 96 q 646 27 688 45 q 557 -1 605 9 q 454 -11 510 -11 q 305 19 372 -11 q 190 105 238 49 q 116 238 142 160 q 90 411 90 315 q 128 646 90 540 q 231 828 165 752 q 388 946 297 904 q 584 988 478 988 q 743 958 675 988 q 865 872 812 928 l 853 857 q 842 852 849 852 q 829 860 838 852 q 807 879 821 867 q 772 904 792 890 q 724 929 751 917 q 660 948 696 940 q 581 956 625 956 q 422 925 497 956 q 288 838 347 894 q 189 700 229 781 q 135 517 149 619 l 659 517 l 655 486 l 132 486 q 130 450 131 468 q 128 415 128 433 q 153 251 128 324 q 221 127 177 178 q 325 48 265 76 q 460 21 386 21 q 549 28 508 21 q 626 51 590 36 q 696 88 663 66 q 762 140 729 110 q 778 141 772 149 l 790 126 l 790 126 z "},"Ю":{"ha":1313,"x_min":95,"x_max":1240,"o":"m 253 976 l 133 0 l 95 0 l 215 976 l 253 976 m 794 23 q 955 61 880 23 q 1084 170 1029 99 q 1171 343 1140 241 q 1202 572 1202 444 q 1182 731 1202 660 q 1123 852 1161 802 q 1031 929 1085 902 q 909 956 976 956 q 748 918 822 956 q 618 808 673 879 q 532 634 563 736 q 500 405 500 532 q 521 246 500 317 q 580 126 542 175 q 673 50 618 76 q 794 23 727 23 m 468 506 q 520 706 481 617 q 618 857 559 794 q 752 953 676 919 q 913 988 827 988 q 1048 958 988 988 q 1151 873 1108 928 q 1217 742 1194 819 q 1240 572 1240 665 q 1206 332 1240 439 q 1110 149 1171 225 q 968 33 1050 74 q 790 -8 885 -8 q 655 21 715 -8 q 551 104 594 50 q 485 234 508 158 q 463 404 463 310 q 463 440 463 422 q 465 475 464 458 l 200 475 l 203 506 l 468 506 z "},"Я":{"ha":826,"x_min":-38,"x_max":749,"o":"m 651 483 l 708 946 l 480 946 q 268 878 342 946 q 195 680 195 810 q 252 534 195 585 q 422 483 309 483 l 651 483 m 628 0 l 591 0 l 647 453 l 468 453 q 433 450 449 453 q 399 439 416 447 q 364 415 382 431 q 326 376 347 400 l 18 15 q 6 4 13 8 q -10 0 -1 0 l -38 0 l 289 383 q 339 431 315 414 q 387 458 363 449 q 287 479 330 462 q 216 524 244 496 q 172 591 187 552 q 158 678 158 631 q 180 805 158 749 q 243 898 201 860 q 345 956 285 936 q 484 976 406 976 l 749 976 l 628 0 z "},"Ђ":{"ha":919,"x_min":82,"x_max":849,"o":"m 587 523 q 783 466 717 523 q 849 306 849 409 q 827 178 849 235 q 763 82 805 122 q 660 21 721 42 q 522 0 599 0 l 450 0 l 453 31 l 526 31 q 648 49 594 31 q 737 101 701 67 q 792 187 774 136 q 811 302 811 238 q 754 445 811 397 q 583 493 697 493 l 342 493 l 281 0 l 244 0 l 359 944 l 82 944 l 86 976 l 731 976 l 727 944 l 397 944 l 346 523 l 587 523 z "},"Ћ":{"ha":932,"x_min":83,"x_max":856,"o":"m 346 519 q 487 558 419 542 q 614 578 555 574 q 719 573 672 583 q 798 536 767 564 q 843 460 829 508 q 847 340 856 413 l 806 0 l 767 0 l 810 340 q 791 480 821 431 q 699 543 761 528 q 545 542 636 557 q 342 490 453 526 l 282 0 l 244 0 l 360 944 l 83 944 l 87 976 l 732 976 l 728 944 l 398 944 l 346 519 z "},"Ѣ":{"ha":906,"x_min":85,"x_max":831,"o":"m 508 31 q 630 49 576 31 q 719 101 683 67 q 774 187 756 136 q 793 302 793 238 q 736 445 793 397 q 565 493 678 493 l 338 493 l 281 31 l 508 31 m 569 523 q 765 466 699 523 q 831 306 831 409 q 809 178 831 235 q 745 82 787 122 q 642 21 703 42 q 503 0 581 0 l 240 0 l 334 765 l 85 765 l 90 796 l 338 796 l 360 976 l 397 976 l 375 796 l 680 796 l 676 765 l 372 765 l 342 523 l 569 523 z "},"б":{"ha":731,"x_min":95,"x_max":701,"o":"m 442 659 q 319 628 376 659 q 220 547 262 598 q 155 428 178 495 q 131 290 131 362 q 181 88 131 156 q 321 19 232 19 q 404 36 365 19 q 477 82 444 53 q 536 151 510 111 q 581 236 563 190 q 610 331 600 281 q 619 429 619 380 q 606 527 619 485 q 570 599 593 570 q 514 644 547 628 q 442 659 481 659 m 701 1013 l 701 998 q 688 980 701 984 l 510 952 q 376 910 433 940 q 277 838 318 880 q 208 745 235 797 q 164 638 181 694 q 139 524 147 582 q 126 412 130 466 q 178 527 145 476 q 255 613 212 578 q 349 667 299 649 q 451 686 399 686 q 531 670 494 686 q 595 623 568 655 q 639 543 623 591 q 655 431 655 496 q 644 325 655 378 q 613 223 633 272 q 563 132 592 174 q 496 59 533 90 q 414 10 458 28 q 319 -8 369 -8 q 234 7 275 -8 q 163 60 194 23 q 114 160 132 98 q 95 315 95 222 q 100 445 95 376 q 121 583 106 514 q 164 718 136 652 q 238 837 192 783 q 348 928 283 890 q 503 981 413 967 l 701 1013 z "},"в":{"ha":644,"x_min":56,"x_max":560,"o":"m 98 321 q 92 241 92 281 q 104 154 92 194 q 140 83 116 113 q 199 36 163 53 q 281 19 234 19 q 370 36 328 19 q 444 81 412 53 q 495 148 476 110 q 515 228 515 185 q 502 290 515 261 q 463 337 490 318 q 389 361 435 356 q 276 355 343 367 l 98 321 m 256 376 q 399 415 345 393 q 482 461 453 436 q 520 511 510 485 q 529 561 529 537 q 523 596 529 578 q 502 630 517 615 q 462 656 487 646 q 399 667 437 667 q 292 640 341 667 q 205 569 242 613 q 141 467 167 524 q 103 347 115 409 l 256 376 m 361 380 q 502 342 456 383 q 548 228 549 301 q 526 136 548 179 q 467 61 504 93 q 381 10 430 28 q 278 -9 333 -9 q 182 10 224 -9 q 113 63 141 29 q 70 141 85 96 q 56 238 56 186 q 67 347 56 292 q 99 453 78 402 q 151 548 120 503 q 220 624 181 592 q 305 675 258 656 q 403 694 351 694 q 476 682 447 694 q 524 651 506 669 q 551 609 543 632 q 560 565 560 587 q 550 513 560 539 q 518 462 541 486 q 457 417 495 438 q 361 380 419 397 z "},"г":{"ha":559,"x_min":32,"x_max":488,"o":"m 322 696 q 386 688 356 696 q 439 664 416 679 q 475 624 462 648 q 488 571 488 601 q 470 507 488 537 q 423 449 452 476 q 355 397 393 422 q 278 348 317 372 q 200 299 238 324 q 133 249 163 275 q 85 196 103 224 q 67 137 67 168 q 80 90 67 111 q 114 53 92 69 q 166 30 135 38 q 231 21 196 21 q 310 32 274 21 q 374 56 346 43 q 420 80 402 69 q 445 91 439 91 q 460 81 455 91 l 465 74 q 353 14 415 35 q 228 -8 291 -8 q 146 3 182 -8 q 84 34 110 15 q 45 79 59 53 q 32 134 32 105 q 50 200 32 169 q 98 258 68 231 q 166 311 128 286 q 243 361 203 337 q 320 410 282 385 q 388 459 358 434 q 435 511 417 484 q 453 568 453 538 q 417 639 453 612 q 317 667 381 667 q 243 656 276 667 q 184 633 210 646 q 143 610 159 621 q 120 599 126 599 q 115 599 118 598 q 110 603 112 600 l 103 616 q 151 650 124 635 q 206 675 177 665 q 264 691 235 685 q 322 696 294 696 z "},"ґ":{"ha":497,"x_min":-24,"x_max":543,"o":"m 502 658 l 503 657 l 383 657 q 318 644 347 657 q 269 603 290 631 q 233 534 248 576 q 207 435 217 492 l 159 160 q 106 36 144 76 q 8 -4 68 -4 q -17 -1 -10 -4 q -23 7 -24 1 l -21 26 l 1 26 q 81 58 49 26 q 125 161 113 91 l 173 434 q 201 545 184 498 q 243 623 218 592 q 303 669 269 654 q 382 685 337 685 l 477 685 l 510 839 q 517 859 513 853 q 530 865 521 865 l 543 865 l 502 658 z "},"д":{"ha":706,"x_min":60,"x_max":621,"o":"m 281 22 q 391 52 337 22 q 488 147 445 83 q 557 309 531 211 q 585 540 584 406 q 513 632 562 597 q 393 667 465 667 q 267 631 322 667 q 173 539 211 596 q 116 410 135 481 q 96 266 96 338 q 110 160 96 206 q 148 84 124 115 q 206 37 172 53 q 281 22 240 22 m 199 983 q 515 888 410 999 q 621 551 621 776 q 592 304 621 409 q 514 130 563 199 q 403 26 465 60 q 275 -8 341 -8 q 187 11 226 -8 q 119 66 147 31 q 76 153 91 102 q 60 269 60 205 q 70 371 60 319 q 100 470 81 423 q 148 558 119 517 q 213 630 176 599 q 294 678 249 660 q 390 695 338 695 q 511 664 459 695 q 590 571 563 632 q 563 745 587 671 q 491 869 538 820 q 373 940 444 918 q 205 957 301 963 q 197 960 199 957 q 197 967 195 963 l 199 983 z "},"ж":{"ha":1196,"x_min":13,"x_max":1165,"o":"m 588 166 q 642 264 608 208 q 716 378 675 319 q 803 494 757 437 q 894 595 849 551 q 984 667 940 640 q 1063 694 1027 694 q 1115 688 1092 694 q 1165 663 1138 681 l 1158 650 q 1148 643 1153 644 q 1137 646 1144 642 q 1120 654 1131 649 q 1096 662 1110 658 q 1063 666 1082 666 q 978 630 1018 666 q 908 533 938 594 q 859 391 877 472 q 842 221 842 310 q 868 67 842 114 q 949 21 895 21 q 998 30 977 21 q 1034 49 1019 38 q 1058 68 1049 59 q 1071 78 1067 77 q 1082 74 1078 78 l 1089 64 q 1053 29 1072 43 q 1015 7 1034 15 q 978 -5 997 -1 q 945 -8 960 -8 q 845 44 881 -8 q 810 210 810 96 q 835 412 810 317 q 905 574 860 507 q 820 481 865 535 q 732 364 775 426 q 649 232 688 301 q 580 94 610 163 l 570 -1 l 538 -1 l 592 525 q 538 427 571 483 q 464 311 505 371 q 377 195 423 252 q 284 93 331 138 q 194 20 238 48 q 114 -8 150 -8 q 63 0 86 -8 q 13 25 40 7 l 20 37 q 30 44 25 44 q 41 41 34 44 q 58 33 47 38 q 82 25 68 29 q 114 22 96 22 q 199 57 159 22 q 270 154 240 93 q 318 296 301 215 q 336 467 336 377 q 309 620 336 573 q 229 667 282 667 q 179 658 201 667 q 143 639 158 649 q 119 619 128 628 q 107 609 110 610 q 96 613 100 608 l 89 623 q 125 658 106 644 q 163 680 144 672 q 199 691 181 688 q 233 694 217 694 q 332 643 297 694 q 368 477 368 591 q 361 372 368 423 q 342 274 355 321 q 312 186 330 227 q 272 111 294 144 q 357 205 312 151 q 446 323 402 260 q 530 456 490 387 q 599 595 569 526 l 608 685 l 640 685 l 588 166 z "},"з":{"ha":581,"x_min":8,"x_max":499,"o":"m 103 602 q 142 639 119 622 q 193 668 165 656 q 254 689 221 681 q 324 696 288 696 q 405 683 372 696 q 459 650 438 671 q 490 604 480 630 q 499 552 499 578 q 491 498 499 526 q 462 445 482 470 q 410 401 442 420 q 331 374 378 382 q 398 356 369 370 q 445 321 426 342 q 473 274 464 300 q 483 219 483 248 q 463 133 483 174 q 408 60 444 92 q 324 10 373 29 q 215 -8 274 -8 q 148 -1 179 -8 q 90 17 116 6 q 43 42 63 28 q 8 70 22 56 l 16 83 q 26 88 20 88 q 46 77 33 88 q 81 54 59 67 q 136 30 103 41 q 215 19 169 19 q 311 35 267 19 q 385 79 354 51 q 432 144 415 107 q 449 222 449 181 q 402 324 449 286 q 261 361 356 361 q 222 360 241 361 q 179 356 203 358 q 180 372 179 364 q 183 387 180 379 q 222 385 203 385 q 260 384 240 384 q 347 395 308 383 q 412 430 385 408 q 453 482 439 452 q 467 547 467 513 q 460 592 467 570 q 435 630 452 613 q 390 657 418 647 q 321 667 362 667 q 233 655 269 667 q 173 627 197 642 q 137 600 150 613 q 119 588 124 588 q 110 592 115 588 l 103 602 z "},"и":{"ha":707,"x_min":73,"x_max":624,"o":"m 624 685 l 542 0 l 527 0 q 515 5 519 0 q 512 16 512 10 l 540 254 q 476 145 512 194 q 401 63 441 97 q 318 10 361 28 q 233 -8 275 -8 q 108 59 144 -8 q 88 249 73 126 l 140 685 l 175 685 l 123 249 q 120 152 117 194 q 138 81 124 110 q 178 37 152 52 q 242 22 203 22 q 325 42 283 22 q 407 101 367 63 q 482 193 447 139 q 545 315 517 247 l 589 685 l 624 685 z "},"к":{"ha":606,"x_min":65,"x_max":604,"o":"m 477 619 q 526 668 499 649 q 586 688 554 688 l 604 688 l 601 669 q 590 660 599 663 q 568 655 581 658 q 540 642 556 651 q 510 613 525 633 l 360 420 q 323 381 341 396 q 274 359 304 367 q 327 333 306 352 q 365 284 349 314 l 528 0 l 508 0 q 492 3 498 0 q 482 13 486 6 l 333 273 q 291 322 316 302 q 232 342 266 342 l 138 327 l 99 0 l 65 0 l 147 685 l 181 685 l 142 353 l 237 370 q 286 389 266 375 q 325 424 307 402 l 477 619 z "},"л":{"ha":726,"x_min":-10,"x_max":644,"o":"m 219 357 q 274 509 243 447 q 347 610 304 571 q 447 667 389 649 q 584 685 505 685 l 644 685 l 561 0 l 526 0 l 606 656 l 578 656 q 457 640 508 656 q 369 588 406 624 q 304 494 331 551 q 255 356 277 437 q 202 184 227 253 q 149 72 176 115 q 90 11 122 29 q 19 -8 59 -8 q -9 3 -10 -8 l -7 22 l 17 22 q 78 41 51 22 q 128 100 106 60 q 173 205 151 141 q 219 357 194 268 z "},"љ":{"ha":1090,"x_min":-10,"x_max":1019,"o":"m 595 131 q 600 87 592 108 q 625 51 608 67 q 667 27 642 36 q 728 19 693 19 q 823 41 776 19 q 905 99 869 63 q 963 183 941 135 q 985 281 985 230 q 978 333 985 308 q 956 378 971 358 q 917 409 941 397 q 860 420 894 420 q 774 399 818 420 q 694 343 731 378 q 631 265 657 309 q 600 176 606 221 l 595 131 m 612 268 q 657 335 629 303 q 719 393 685 368 q 791 433 753 418 q 866 448 828 448 q 933 435 904 448 q 981 400 962 422 q 1009 348 1000 378 q 1019 283 1019 318 q 1007 209 1019 246 q 975 141 996 173 q 927 81 955 108 q 866 34 899 53 q 796 3 833 14 q 721 -8 759 -8 q 647 3 678 -8 q 595 33 615 14 q 566 78 575 52 q 561 133 558 103 l 625 656 l 592 656 q 469 640 522 656 q 376 588 416 624 q 306 494 335 551 q 255 356 277 437 q 202 184 227 253 q 149 72 176 115 q 90 11 122 29 q 19 -8 59 -8 q -9 3 -10 -8 l -7 22 l 17 22 q 78 41 51 22 q 128 100 106 60 q 173 205 151 141 q 219 357 194 268 q 276 509 243 447 q 353 610 308 571 q 459 667 399 649 q 598 685 519 685 l 663 685 l 612 268 z "},"м":{"ha":926,"x_min":24,"x_max":846,"o":"m 846 689 l 760 0 l 728 0 l 803 607 q 806 619 805 613 q 808 631 807 625 l 438 40 q 432 33 435 36 q 424 30 428 30 l 419 30 q 413 33 415 30 q 408 40 410 36 l 208 635 q 206 621 207 628 q 204 608 206 614 q 142 300 177 447 q 62 14 107 152 q 42 0 57 0 l 24 0 q 76 169 53 88 q 119 332 99 251 q 156 501 139 414 q 191 689 174 588 l 213 689 q 221 688 217 689 q 226 681 225 686 l 424 96 q 431 76 429 83 q 434 84 432 80 q 440 93 436 89 l 808 681 q 823 689 814 689 l 846 689 z "},"н":{"ha":702,"x_min":64,"x_max":620,"o":"m 620 685 l 537 0 l 502 0 l 544 349 l 142 349 l 99 0 l 64 0 l 147 685 l 183 685 l 145 377 l 548 377 l 585 685 l 620 685 z "},"њ":{"ha":1047,"x_min":64,"x_max":975,"o":"m 551 131 q 556 87 549 108 q 581 51 564 67 q 624 27 598 36 q 684 19 649 19 q 779 41 733 19 q 861 99 825 63 q 919 183 897 135 q 941 281 941 230 q 934 333 941 308 q 912 378 927 358 q 874 409 897 397 q 816 420 850 420 q 731 399 774 420 q 650 343 687 378 q 588 265 613 309 q 556 176 562 221 l 551 131 m 568 268 q 613 335 585 303 q 675 393 641 368 q 747 433 709 418 q 822 448 785 448 q 889 435 860 448 q 937 400 918 422 q 966 348 956 378 q 975 283 975 318 q 964 209 975 246 q 932 141 952 173 q 883 81 911 108 q 822 34 856 53 q 752 3 789 14 q 677 -8 715 -8 q 603 3 634 -8 q 551 33 572 14 q 523 78 531 52 q 517 133 514 103 l 544 356 l 142 356 l 99 0 l 64 0 l 147 685 l 183 685 l 146 383 l 548 383 l 585 685 l 619 685 l 568 268 z "},"ѳ":{"ha":709,"x_min":61,"x_max":631,"o":"m 100 329 q 98 300 99 315 q 97 270 97 285 q 111 165 97 211 q 151 86 125 118 q 216 36 178 53 q 302 19 254 19 q 406 44 358 19 q 491 112 453 69 q 552 210 528 154 q 588 329 577 267 l 100 329 m 592 356 q 594 386 593 371 q 595 417 595 401 q 581 522 595 475 q 540 600 567 568 q 475 650 513 633 q 389 667 437 667 q 285 642 333 667 q 200 574 238 617 q 139 475 163 532 q 103 356 114 419 l 592 356 m 392 694 q 491 675 447 694 q 566 619 535 656 q 614 531 597 583 q 631 417 631 480 q 620 310 631 363 q 589 210 609 258 q 540 123 569 163 q 474 53 510 83 q 393 8 437 24 q 299 -8 349 -8 q 200 11 244 -8 q 125 67 156 31 q 78 155 94 103 q 61 271 61 206 q 85 428 61 352 q 152 564 109 505 q 257 659 196 623 q 392 694 318 694 z "},"п":{"ha":707,"x_min":65,"x_max":608,"o":"m 150 433 q 213 542 178 494 q 289 625 249 591 q 371 676 328 658 q 457 694 414 694 q 532 677 501 694 q 581 627 563 660 q 603 547 599 594 q 601 438 608 499 l 549 0 l 515 0 l 566 438 q 551 605 579 546 q 447 665 524 665 q 364 644 406 665 q 282 585 322 624 q 207 493 242 547 q 144 371 172 438 l 100 0 l 65 0 l 147 688 l 161 688 q 172 683 169 688 q 175 672 175 678 l 150 433 z "},"т":{"ha":1078,"x_min":65,"x_max":979,"o":"m 65 0 l 147 688 l 161 688 q 172 683 169 688 q 176 672 176 678 l 150 436 q 210 544 177 497 q 280 626 243 592 q 358 677 317 659 q 441 694 399 694 q 510 678 483 694 q 549 632 536 663 q 564 556 562 601 q 559 455 565 512 q 619 560 585 515 q 691 635 653 606 q 769 680 729 665 q 846 694 808 694 q 918 677 890 694 q 961 627 947 660 q 977 547 975 594 q 972 438 979 499 l 920 0 l 885 0 l 937 438 q 942 534 943 492 q 931 605 942 576 q 897 649 920 634 q 836 665 874 665 q 762 649 800 665 q 687 600 724 633 q 617 517 651 567 q 556 399 583 467 l 509 0 l 474 0 l 526 438 q 533 534 532 492 q 524 605 533 576 q 492 649 514 634 q 432 665 470 665 q 274 589 346 665 q 144 373 201 514 l 99 0 l 65 0 z "},"ѵ":{"ha":665,"x_min":64,"x_max":669,"o":"m 526 603 q 554 648 540 631 q 583 675 568 665 q 612 687 597 684 q 641 690 626 690 q 662 688 655 690 q 667 683 669 685 l 665 663 l 648 663 q 596 648 617 663 q 559 597 576 633 l 274 0 l 243 0 l 64 685 l 90 685 q 100 681 97 685 q 105 672 104 676 l 258 78 q 264 42 262 59 q 278 78 271 61 l 526 603 z "},"ф":{"ha":968,"x_min":59,"x_max":892,"o":"m 460 68 q 515 31 483 42 q 579 19 546 19 q 663 38 624 19 q 732 86 701 56 q 786 159 763 117 q 825 249 809 201 q 849 348 841 297 q 857 449 857 399 q 845 551 857 510 q 813 617 833 592 q 764 654 792 643 q 703 665 735 665 q 647 658 676 665 q 594 637 619 651 q 549 605 569 624 q 519 561 529 585 l 460 68 m 492 618 q 437 656 468 644 q 372 667 406 667 q 289 649 327 667 q 219 600 251 631 q 165 527 188 569 q 126 438 142 485 q 102 338 110 390 q 94 237 94 287 q 106 135 94 176 q 138 68 117 94 q 187 32 159 43 q 248 21 215 21 q 303 28 275 21 q 356 48 331 35 q 401 81 381 62 q 431 124 421 99 l 492 618 m 524 605 q 559 641 539 624 q 605 669 580 658 q 657 688 629 681 q 713 694 684 694 q 785 681 752 694 q 842 637 818 667 q 878 561 865 607 q 892 451 892 515 q 882 342 892 397 q 855 235 873 286 q 810 140 837 184 q 750 62 784 95 q 673 10 715 29 q 583 -8 631 -8 q 508 6 540 -8 q 457 43 476 21 l 424 -230 q 401 -249 420 -249 l 386 -249 l 426 81 q 392 45 413 61 q 347 17 372 28 q 294 -2 322 5 q 238 -8 267 -8 q 166 6 199 -8 q 109 49 133 19 q 72 125 85 79 q 59 235 59 171 q 68 344 59 289 q 96 450 78 399 q 140 546 114 501 q 201 623 167 590 q 277 675 235 656 q 369 694 319 694 q 442 680 410 694 q 494 643 474 665 l 536 985 q 558 1004 538 1004 l 573 1004 l 524 605 z "},"ц":{"ha":735,"x_min":73,"x_max":660,"o":"m 660 28 l 599 -235 q 585 -249 597 -249 l 566 -249 l 625 0 l 527 0 q 515 5 519 0 q 512 16 512 10 l 540 254 q 476 145 512 194 q 401 63 441 97 q 318 10 361 28 q 233 -8 275 -8 q 108 59 144 -8 q 88 249 73 126 l 140 685 l 175 685 l 123 249 q 120 152 117 194 q 138 81 124 110 q 178 37 152 52 q 242 22 203 22 q 325 42 283 22 q 407 101 367 63 q 482 193 447 139 q 545 315 517 247 l 589 685 l 624 685 l 544 24 l 545 28 l 660 28 z "},"џ":{"ha":707,"x_min":73,"x_max":624,"o":"m 624 685 l 542 0 l 527 0 q 515 5 519 0 q 512 16 512 10 l 540 254 q 486 159 515 202 q 424 83 457 115 q 355 28 390 50 q 282 -2 319 7 l 253 -235 q 239 -249 252 -249 l 219 -249 l 250 -8 q 241 -8 245 -8 q 233 -8 237 -8 q 108 59 144 -8 q 88 249 73 126 l 140 685 l 175 685 l 123 249 q 120 152 117 194 q 138 81 124 110 q 178 37 152 52 q 242 22 203 22 q 325 42 283 22 q 407 101 367 63 q 482 193 447 139 q 545 315 517 247 l 589 685 l 624 685 z "},"ч":{"ha":626,"x_min":68,"x_max":544,"o":"m 544 685 l 461 0 l 426 0 l 474 399 q 428 335 455 366 q 368 282 401 305 q 297 245 335 258 q 217 231 258 231 q 142 247 172 231 q 95 291 112 263 q 73 358 78 319 q 74 442 68 397 l 101 685 l 137 685 l 109 442 q 108 370 105 403 q 125 313 112 338 q 164 275 139 289 q 226 261 189 261 q 307 276 269 261 q 378 318 346 292 q 437 378 411 344 q 481 452 463 413 l 509 685 l 544 685 z "},"ш":{"ha":1078,"x_min":81,"x_max":996,"o":"m 996 685 l 913 0 l 899 0 q 888 5 892 0 q 885 16 884 9 l 910 250 q 850 142 883 190 q 780 61 817 94 q 702 10 742 28 q 619 -8 661 -8 q 550 8 576 -8 q 511 55 524 24 q 497 130 499 85 q 501 233 495 175 q 441 127 475 172 q 369 51 407 81 q 292 7 331 22 q 215 -8 252 -8 q 142 9 169 -8 q 100 59 114 26 q 83 140 85 92 q 89 249 81 188 l 140 685 l 175 685 l 124 249 q 118 152 117 194 q 130 81 119 110 q 163 37 140 52 q 224 22 186 22 q 299 38 260 22 q 373 86 337 53 q 443 169 410 119 q 504 288 477 219 l 551 685 l 586 685 l 535 249 q 528 152 528 194 q 537 81 527 110 q 568 37 547 52 q 628 22 590 22 q 786 98 714 22 q 917 315 859 174 l 961 685 l 996 685 z "},"щ":{"ha":1101,"x_min":81,"x_max":1021,"o":"m 1021 28 l 960 -235 q 946 -249 958 -249 l 926 -249 l 986 0 l 899 0 q 888 5 892 0 q 885 16 884 9 l 910 250 q 850 142 883 190 q 780 61 817 94 q 702 10 742 28 q 619 -8 661 -8 q 550 8 576 -8 q 511 55 524 24 q 497 130 499 85 q 501 233 495 175 q 441 127 475 172 q 369 51 407 81 q 292 7 331 22 q 215 -8 252 -8 q 142 9 169 -8 q 100 59 114 26 q 83 140 85 92 q 89 249 81 188 l 140 685 l 175 685 l 124 249 q 118 152 117 194 q 130 81 119 110 q 163 37 140 52 q 224 22 186 22 q 299 38 260 22 q 373 86 337 53 q 443 169 410 119 q 504 288 477 219 l 551 685 l 586 685 l 535 249 q 528 152 528 194 q 537 81 527 110 q 568 37 547 52 q 628 22 590 22 q 786 98 714 22 q 917 315 859 174 l 961 685 l 996 685 l 917 28 l 1021 28 z "},"ъ":{"ha":679,"x_min":52,"x_max":607,"o":"m 328 19 q 417 39 374 19 q 495 95 461 60 q 551 176 530 130 q 572 276 572 223 q 566 331 572 305 q 544 377 559 357 q 505 408 529 397 q 447 420 481 420 q 386 411 417 420 q 326 386 356 402 q 270 347 297 369 q 225 298 244 324 q 195 241 206 271 q 183 178 183 210 q 194 110 183 140 q 224 60 205 80 q 269 29 243 40 q 328 19 296 19 m 349 666 q 278 566 308 618 q 229 463 249 515 q 199 361 210 411 q 186 267 189 312 q 234 339 204 306 q 299 396 263 372 q 375 434 335 420 q 454 448 415 448 q 521 435 492 448 q 569 400 550 422 q 598 347 588 378 q 607 281 607 316 q 584 172 607 224 q 523 80 562 120 q 433 16 484 40 q 324 -8 381 -8 q 253 4 285 -8 q 197 43 221 16 q 160 113 174 70 q 147 219 147 156 q 157 323 147 268 q 186 433 167 377 q 237 546 206 490 q 309 656 267 602 l 52 656 l 53 668 q 74 685 56 685 l 351 685 l 349 666 z "},"ы":{"ha":832,"x_min":72,"x_max":749,"o":"m 749 685 l 667 0 l 631 0 l 715 685 l 749 685 m 110 131 q 115 87 107 108 q 139 51 122 67 q 182 27 156 36 q 242 19 208 19 q 337 41 291 19 q 419 99 383 63 q 477 183 456 135 q 499 281 499 230 q 492 333 499 308 q 470 378 485 358 q 432 409 456 397 q 374 420 408 420 q 289 399 333 420 q 208 343 245 378 q 146 265 172 309 q 115 176 120 221 l 110 131 m 126 268 q 172 335 144 303 q 233 393 199 368 q 305 433 267 418 q 381 448 343 448 q 448 435 419 448 q 495 400 476 422 q 524 348 515 378 q 533 283 533 318 q 522 209 533 246 q 490 141 510 173 q 442 81 469 108 q 381 34 414 53 q 310 3 347 14 q 235 -8 274 -8 q 161 3 192 -8 q 110 33 130 14 q 81 78 90 52 q 76 133 72 103 l 143 685 l 178 685 l 126 268 z "},"ь":{"ha":605,"x_min":72,"x_max":533,"o":"m 110 131 q 115 87 107 108 q 139 51 122 67 q 182 27 156 36 q 242 19 208 19 q 337 41 291 19 q 419 99 383 63 q 477 183 456 135 q 499 281 499 230 q 492 333 499 308 q 470 378 485 358 q 432 409 456 397 q 374 420 408 420 q 289 399 333 420 q 208 343 245 378 q 146 265 172 309 q 115 176 120 221 l 110 131 m 126 268 q 172 335 144 303 q 233 393 199 368 q 305 433 267 418 q 381 448 343 448 q 448 435 419 448 q 495 400 476 422 q 524 348 515 378 q 533 283 533 318 q 522 209 533 246 q 490 141 510 173 q 442 81 469 108 q 381 34 414 53 q 310 3 347 14 q 235 -8 274 -8 q 161 3 192 -8 q 110 33 130 14 q 81 78 90 52 q 76 133 72 103 l 143 685 l 178 685 l 126 268 z "},"э":{"ha":633,"x_min":33,"x_max":552,"o":"m 80 615 q 134 652 108 636 q 185 677 160 667 q 236 691 210 687 q 292 696 262 696 q 407 672 358 696 q 489 608 456 649 q 536 511 521 567 q 552 393 552 456 q 530 243 552 316 q 466 115 508 171 q 366 25 425 59 q 231 -8 306 -8 q 115 17 166 -8 q 33 83 64 42 l 42 93 q 46 96 43 94 q 52 98 49 98 q 68 86 56 98 q 101 59 80 74 q 155 32 123 44 q 232 20 188 20 q 341 46 292 20 q 426 115 390 72 q 484 216 462 158 q 514 337 507 273 l 149 337 l 152 363 l 516 363 q 517 377 517 371 q 517 392 517 384 q 503 499 517 449 q 461 587 490 549 q 391 646 433 624 q 290 667 349 667 q 208 656 242 667 q 151 632 174 645 q 115 608 128 619 q 94 597 101 597 q 88 599 90 598 q 84 604 86 601 l 80 615 z "},"є":{"ha":637,"x_min":59,"x_max":577,"o":"m 551 126 q 480 58 513 85 q 416 17 447 32 q 353 -3 384 3 q 287 -8 322 -8 q 185 12 228 -8 q 114 69 142 33 q 73 154 86 105 q 59 261 59 203 q 70 369 59 315 q 102 470 81 422 q 153 560 123 519 q 220 632 183 601 q 301 679 257 662 q 394 696 344 696 q 455 689 427 696 q 504 670 482 683 q 544 642 526 658 q 577 604 562 625 l 568 594 q 558 590 564 590 q 542 602 552 590 q 514 628 533 614 q 467 655 496 642 q 393 667 438 667 q 292 642 340 667 q 208 577 245 618 q 143 480 170 535 q 104 363 117 425 l 460 363 l 457 337 l 100 337 q 96 299 97 318 q 94 261 94 280 q 106 166 94 210 q 141 90 117 122 q 202 39 165 58 q 292 20 240 20 q 364 29 332 20 q 420 51 395 38 q 464 79 445 64 q 495 108 482 94 q 518 130 509 121 q 534 138 528 138 q 544 134 540 138 l 551 126 l 551 126 z "},"ю":{"ha":928,"x_min":63,"x_max":849,"o":"m 543 21 q 653 55 603 21 q 739 145 703 89 q 794 273 774 201 q 813 421 813 345 q 800 524 813 478 q 764 601 788 569 q 706 649 740 632 q 628 665 672 665 q 518 632 568 665 q 433 542 469 598 q 378 415 397 487 q 358 267 358 343 q 371 164 358 209 q 407 86 383 118 q 466 38 431 54 q 543 21 500 21 m 331 356 q 367 486 341 425 q 432 594 393 548 q 523 667 472 640 q 633 694 574 694 q 723 675 683 694 q 791 621 763 656 q 834 535 819 585 q 849 421 849 484 q 827 262 849 339 q 764 125 805 185 q 665 28 723 65 q 538 -8 608 -8 q 449 11 489 -8 q 382 66 410 30 q 339 152 353 101 q 324 267 324 203 q 324 298 324 283 q 326 328 325 313 l 140 328 l 99 0 l 63 0 l 148 685 l 183 685 l 143 356 l 331 356 z "},"я":{"ha":661,"x_min":-20,"x_max":580,"o":"m 504 343 l 543 658 l 351 658 q 260 643 297 658 q 199 603 222 627 q 166 549 176 578 q 156 490 156 519 q 168 431 156 458 q 203 384 180 404 q 261 354 227 365 q 338 343 294 343 l 504 343 m 580 685 l 496 0 l 463 0 l 501 317 l 367 317 q 330 314 346 317 q 300 302 313 310 q 276 283 287 294 q 256 256 265 272 l 127 60 q 78 10 105 25 q 13 -6 51 -6 q -13 -3 -6 -6 q -19 6 -20 0 l -17 22 l 6 22 q 58 35 35 22 q 100 76 81 47 l 227 267 q 259 302 240 288 q 303 324 277 317 q 220 342 255 328 q 164 380 185 357 q 132 431 142 402 q 122 490 122 459 q 134 559 122 524 q 174 622 147 594 q 245 667 202 649 q 351 685 289 685 l 580 685 z "},"ђ":{"ha":692,"x_min":24,"x_max":601,"o":"m 153 440 q 213 520 181 483 q 281 585 245 557 q 355 629 317 613 q 433 645 394 645 q 509 628 478 645 q 561 580 541 610 q 592 507 582 549 q 601 415 601 465 q 584 249 601 329 q 533 89 567 169 q 448 -71 499 10 q 330 -239 397 -152 l 303 -224 q 413 -65 365 -143 q 496 91 462 13 q 548 248 530 169 q 565 409 565 326 q 557 492 565 453 q 531 558 548 530 q 486 601 513 585 q 423 617 459 617 q 349 598 387 617 q 276 549 312 580 q 207 478 240 519 q 147 394 174 438 l 99 0 l 63 0 l 160 790 l 24 790 l 26 819 l 164 819 l 187 1004 l 222 1004 l 199 819 l 464 819 l 461 790 l 196 790 l 153 440 z "},"ѣ":{"ha":706,"x_min":50,"x_max":633,"o":"m 210 131 q 215 87 207 108 q 239 51 222 67 q 282 27 256 36 q 342 19 308 19 q 437 41 391 19 q 519 99 483 63 q 577 183 556 135 q 599 281 599 230 q 592 333 599 308 q 570 378 585 358 q 532 409 556 397 q 474 420 508 420 q 389 399 433 420 q 308 343 345 378 q 246 265 272 309 q 215 176 220 221 l 210 131 m 226 268 q 272 335 244 303 q 333 393 299 368 q 405 433 367 418 q 481 448 443 448 q 548 435 519 448 q 595 400 576 422 q 624 348 615 378 q 633 283 633 318 q 622 209 633 246 q 590 141 610 173 q 542 81 569 108 q 481 34 514 53 q 410 3 447 14 q 335 -8 374 -8 q 261 3 292 -8 q 210 33 230 14 q 181 78 190 52 q 176 133 172 103 l 219 491 l 219 491 l 240 656 l 50 656 l 53 685 l 243 685 l 270 904 l 305 904 l 278 685 l 498 685 l 494 656 l 274 656 l 226 268 z "},"!":{"ha":318,"x_min":67,"x_max":244,"o":"m 244 976 l 195 579 q 187 521 191 548 q 179 466 183 494 q 170 406 175 438 q 158 333 165 374 l 134 333 q 141 406 138 374 q 146 466 144 438 q 152 521 149 494 q 158 579 155 548 l 207 976 l 244 976 m 67 41 q 82 79 67 63 q 119 94 97 94 q 157 79 141 94 q 172 41 172 63 q 157 4 172 19 q 119 -11 141 -11 q 82 4 97 -11 q 67 41 67 19 z "},"?":{"ha":551,"x_min":120,"x_max":521,"o":"m 120 892 q 161 927 139 910 q 211 957 184 944 q 268 979 238 971 q 333 988 299 988 q 406 975 372 988 q 466 939 440 963 q 506 883 492 916 q 521 809 521 850 q 503 710 521 751 q 459 638 486 669 q 401 585 433 608 q 341 541 369 562 q 292 499 313 520 q 266 451 271 478 l 245 333 l 221 333 l 235 453 q 258 506 238 483 q 306 549 278 528 q 365 593 333 570 q 424 644 397 615 q 469 712 451 674 q 487 804 487 751 q 474 869 487 840 q 440 917 462 897 q 389 947 418 937 q 328 958 360 958 q 250 944 283 958 q 192 916 216 931 q 155 887 169 900 q 135 874 141 874 q 127 878 131 874 l 120 892 m 165 41 q 180 79 165 63 q 217 94 194 94 q 255 79 239 94 q 270 41 270 63 q 255 4 270 19 q 217 -11 239 -11 q 180 4 194 -11 q 165 41 165 19 z "},"‽":{"ha":574,"x_min":145,"x_max":551,"o":"m 197 94 q 235 79 219 94 q 251 41 251 63 q 235 4 251 19 q 197 -11 219 -11 q 160 4 175 -11 q 145 41 145 19 q 160 79 145 63 q 197 94 175 94 m 283 949 q 361 962 318 962 q 439 950 403 962 q 499 915 474 938 q 537 860 524 892 q 551 790 551 828 q 531 691 551 733 q 481 618 511 650 q 414 558 450 585 q 345 502 378 531 q 287 439 312 473 q 254 358 262 404 l 244 307 l 222 307 q 211 414 216 355 q 200 530 206 474 l 148 972 l 182 979 l 227 573 q 230 545 228 565 q 234 500 232 526 q 238 447 236 474 q 241 397 240 419 q 279 472 253 440 q 335 531 305 504 q 398 583 366 558 q 457 637 431 608 q 500 702 483 666 q 517 786 517 738 q 506 846 517 819 q 473 892 494 873 q 422 922 452 911 q 355 932 392 932 q 314 928 328 932 q 295 925 300 925 q 285 933 285 925 l 283 949 z "},",":{"ha":286,"x_min":47,"x_max":147,"o":"m 49 -163 q 47 -159 47 -162 q 47 -156 47 -157 q 57 -138 47 -151 q 81 -105 68 -125 q 106 -57 94 -84 q 120 3 118 -29 q 93 -5 109 -5 q 60 9 73 -5 q 47 45 47 23 q 60 80 47 65 q 95 94 73 94 q 133 78 119 94 q 147 33 147 62 q 121 -76 147 -23 q 56 -169 96 -129 l 49 -163 z "},";":{"ha":333,"x_min":74,"x_max":240,"o":"m 76 -163 q 74 -159 74 -162 q 74 -156 74 -157 q 84 -138 74 -151 q 108 -105 95 -125 q 133 -57 122 -84 q 147 3 145 -29 q 120 -5 136 -5 q 87 9 100 -5 q 74 45 74 23 q 87 80 74 65 q 122 94 100 94 q 160 78 146 94 q 174 33 174 62 q 148 -76 174 -23 q 83 -169 123 -129 l 76 -163 m 135 612 q 150 650 135 634 q 187 665 165 665 q 225 650 209 665 q 240 612 240 634 q 225 575 240 590 q 187 560 209 560 q 150 575 165 560 q 135 612 135 590 z "},".":{"ha":315,"x_min":62,"x_max":167,"o":"m 62 41 q 77 79 62 63 q 114 94 92 94 q 152 79 136 94 q 167 41 167 63 q 152 4 167 19 q 114 -11 136 -11 q 77 4 92 -11 q 62 41 62 19 z "},"…":{"ha":980,"x_min":62,"x_max":831,"o":"m 62 41 q 77 79 62 63 q 114 94 92 94 q 152 79 136 94 q 167 41 167 63 q 152 4 167 19 q 114 -11 136 -11 q 77 4 92 -11 q 62 41 62 19 m 394 41 q 409 79 394 63 q 446 94 424 94 q 484 79 468 94 q 499 41 499 63 q 484 4 499 19 q 446 -11 468 -11 q 409 4 424 -11 q 394 41 394 19 m 726 41 q 741 79 726 63 q 778 94 756 94 q 816 79 800 94 q 831 41 831 63 q 816 4 831 19 q 778 -11 800 -11 q 741 4 756 -11 q 726 41 726 19 z "},"‘":{"ha":265,"x_min":143,"x_max":256,"o":"m 158 751 q 145 823 143 787 q 160 894 147 860 q 195 960 173 928 q 245 1018 218 992 l 253 1013 q 256 1008 256 1011 q 254 1003 256 1006 q 249 996 253 1001 q 211 942 227 970 q 187 887 195 915 q 178 832 178 859 q 189 778 178 804 q 190 769 191 774 q 183 762 189 765 l 158 751 z "},"’":{"ha":272,"x_min":134,"x_max":247,"o":"m 233 1013 q 245 941 247 977 q 231 870 244 904 q 194 804 217 835 q 144 746 172 772 l 137 751 q 134 757 134 754 q 141 768 134 759 q 178 822 163 794 q 203 877 194 849 q 212 933 212 906 q 201 985 212 960 q 207 1002 196 997 l 233 1013 z "},"“":{"ha":426,"x_min":143,"x_max":417,"o":"m 158 751 q 145 823 143 787 q 160 894 147 860 q 195 960 173 928 q 245 1018 218 992 l 253 1013 q 256 1008 256 1011 q 254 1003 256 1006 q 249 996 253 1001 q 211 942 227 970 q 187 887 195 915 q 178 832 178 859 q 189 778 178 804 q 190 769 191 774 q 183 762 189 765 l 158 751 m 319 751 q 306 823 304 787 q 321 894 308 860 q 357 960 334 928 q 406 1018 379 992 l 415 1013 q 417 1008 417 1011 q 415 1003 417 1006 q 410 996 414 1001 q 372 942 388 970 q 348 887 356 915 q 340 832 340 859 q 350 778 340 804 q 351 769 352 774 q 344 762 350 765 l 319 751 z "},"”":{"ha":432,"x_min":134,"x_max":408,"o":"m 233 1013 q 245 941 247 977 q 231 870 244 904 q 194 804 217 835 q 144 746 172 772 l 137 751 q 134 757 134 754 q 141 768 134 759 q 178 822 163 794 q 203 877 194 849 q 212 933 212 906 q 201 985 212 960 q 207 1002 196 997 l 233 1013 m 393 1013 q 406 941 408 977 q 391 870 404 904 q 355 804 378 835 q 305 746 332 772 l 297 751 q 294 757 294 754 q 301 768 294 759 q 339 822 323 794 q 364 877 355 849 q 372 933 372 906 q 362 985 372 960 q 367 1002 356 997 l 393 1013 z "},"‚":{"ha":260,"x_min":8,"x_max":122,"o":"m 107 98 q 120 25 122 62 q 105 -45 118 -11 q 69 -111 92 -80 q 19 -169 46 -143 l 11 -164 q 8 -158 8 -161 q 15 -147 8 -156 q 53 -94 37 -122 q 77 -38 69 -66 q 86 18 86 -10 q 76 70 86 45 q 81 87 70 82 l 107 98 z "},"„":{"ha":421,"x_min":8,"x_max":283,"o":"m 107 98 q 120 25 122 62 q 105 -45 118 -11 q 69 -111 92 -80 q 19 -169 46 -143 l 11 -164 q 8 -158 8 -161 q 15 -147 8 -156 q 53 -94 37 -122 q 77 -38 69 -66 q 86 18 86 -10 q 76 70 86 45 q 81 87 70 82 l 107 98 m 268 98 q 281 25 283 62 q 266 -45 279 -11 q 230 -111 253 -80 q 180 -169 207 -143 l 172 -164 q 169 -158 169 -161 q 176 -147 169 -156 q 214 -94 198 -122 q 239 -38 230 -66 q 247 18 247 -10 q 237 70 247 45 q 242 87 231 82 l 268 98 z "},"‹":{"ha":341,"x_min":69,"x_max":269,"o":"m 113 374 q 97 357 103 360 q 102 351 99 355 q 108 340 104 347 l 206 124 q 208 110 210 115 q 201 101 206 104 l 188 94 l 69 354 l 69 359 l 253 618 l 263 613 q 268 603 267 609 q 263 590 269 598 l 113 374 z "},"›":{"ha":340,"x_min":52,"x_max":257,"o":"m 257 359 l 256 354 l 74 94 l 64 101 q 63 124 52 107 l 214 340 q 222 351 219 347 q 228 357 226 355 q 217 374 224 360 l 119 590 q 118 603 116 598 q 126 613 121 609 l 138 618 l 257 359 z "},"«":{"ha":489,"x_min":68,"x_max":418,"o":"m 112 374 q 97 357 102 360 q 101 351 99 355 q 107 340 103 347 l 206 124 q 207 110 209 115 q 200 101 206 104 l 188 94 l 68 354 l 68 359 l 252 618 l 263 613 q 268 603 267 609 q 263 590 269 598 l 112 374 m 261 374 q 246 357 251 360 q 250 351 248 355 q 256 340 253 347 l 355 124 q 357 110 358 115 q 349 101 355 104 l 337 94 l 217 354 l 217 359 l 401 618 l 412 613 q 417 603 416 609 q 412 590 418 598 l 261 374 z "},"»":{"ha":489,"x_min":53,"x_max":407,"o":"m 258 359 l 257 354 l 74 94 l 65 101 q 63 124 53 107 l 215 340 q 223 351 219 347 q 229 357 226 355 q 218 374 224 360 l 120 590 q 119 603 117 598 q 127 613 122 609 l 138 618 l 258 359 m 407 359 l 406 354 l 224 94 l 214 101 q 213 124 202 107 l 364 340 q 372 351 369 347 q 378 357 376 355 q 367 374 374 360 l 269 590 q 268 603 266 598 q 276 613 271 609 l 288 618 l 407 359 z "},"/":{"ha":551,"x_min":-2,"x_max":568,"o":"m 38 -40 q 26 -52 33 -49 q 12 -56 19 -56 l -2 -56 l 529 987 q 553 1001 537 1001 l 568 1001 l 38 -40 z "},"|":{"ha":331,"x_min":149,"x_max":178,"o":"m 149 1047 l 178 1047 l 178 -248 l 149 -248 l 149 1047 z "},"¦":{"ha":331,"x_min":149,"x_max":178,"o":"m 149 1047 l 178 1047 l 178 514 l 149 514 l 149 1047 m 149 285 l 178 285 l 178 -248 l 149 -248 l 149 285 z "},"\\":{"ha":546,"x_min":125,"x_max":435,"o":"m 125 1001 l 140 1001 q 160 987 157 1001 l 435 -56 l 422 -56 q 408 -52 415 -56 q 399 -40 401 -49 l 125 1001 z "},"-":{"ha":498,"x_min":101,"x_max":394,"o":"m 106 425 l 394 425 l 390 394 l 101 394 l 106 425 z "},"–":{"ha":806,"x_min":149,"x_max":651,"o":"m 151 411 l 651 411 l 647 383 l 149 383 l 151 411 z "},"—":{"ha":1023,"x_min":97,"x_max":919,"o":"m 101 411 l 919 411 l 915 383 l 97 383 l 101 411 z "},"_":{"ha":615,"x_min":-17,"x_max":490,"o":"m 490 -158 l 485 -185 l -17 -185 l -15 -158 l 490 -158 z "},"•":{"ha":806,"x_min":226,"x_max":577,"o":"m 226 415 q 240 484 226 451 q 277 540 253 516 q 333 578 301 564 q 400 592 365 592 q 469 578 437 592 q 525 540 501 564 q 563 484 549 516 q 577 415 577 451 q 563 347 577 379 q 525 292 549 315 q 469 254 501 268 q 400 240 437 240 q 333 254 365 240 q 277 292 301 268 q 240 347 253 315 q 226 415 226 379 z "},"·":{"ha":313,"x_min":101,"x_max":208,"o":"m 101 410 q 106 432 101 422 q 117 449 110 442 q 134 460 124 456 q 153 465 143 465 q 192 449 176 465 q 208 410 208 433 q 192 374 208 390 q 153 358 176 358 q 134 363 143 358 q 117 374 124 367 q 106 391 110 381 q 101 410 101 400 z "},"(":{"ha":338,"x_min":81,"x_max":363,"o":"m 114 316 q 120 200 114 260 q 139 81 126 140 q 170 -36 151 22 q 213 -146 188 -94 q 215 -158 217 -153 q 209 -164 213 -162 l 193 -173 q 142 -49 163 -111 q 107 75 121 14 q 88 195 94 137 q 81 309 81 254 q 84 421 81 366 q 97 531 88 476 q 124 644 106 586 q 171 765 142 701 q 242 899 200 828 q 343 1050 284 969 l 358 1041 q 361 1034 360 1039 q 358 1023 363 1030 q 251 859 297 938 q 175 696 206 779 q 129 520 144 613 q 114 316 114 427 z "},")":{"ha":338,"x_min":-21,"x_max":263,"o":"m 231 561 q 224 677 231 617 q 206 796 218 737 q 174 913 193 856 q 131 1023 156 971 q 129 1034 127 1030 q 135 1041 131 1039 l 152 1050 q 237 801 211 925 q 263 567 263 678 q 259 456 263 510 q 247 346 256 401 q 220 233 238 291 q 174 112 203 176 q 103 -22 145 49 q 2 -173 60 -92 l -12 -164 q -12 -146 -21 -159 q 94 22 49 -61 q 170 192 140 106 q 215 370 200 278 q 231 561 231 461 z "},"[":{"ha":381,"x_min":71,"x_max":408,"o":"m 406 1035 q 392 1022 404 1022 l 249 1022 l 103 -149 l 248 -149 q 260 -162 261 -149 l 258 -174 l 71 -174 l 221 1047 l 408 1047 l 406 1035 z "},"]":{"ha":383,"x_min":-20,"x_max":317,"o":"m 168 -174 l -20 -174 l -19 -162 q -3 -149 -17 -149 l 140 -149 l 284 1022 l 141 1022 q 128 1035 126 1022 l 130 1047 l 317 1047 l 168 -174 z "},"{":{"ha":380,"x_min":63,"x_max":403,"o":"m 403 1047 l 403 1033 q 389 1022 399 1022 l 364 1022 q 305 1009 333 1022 q 255 970 276 996 q 222 906 234 944 q 209 818 209 868 q 210 764 208 792 q 214 707 212 735 q 218 652 216 679 q 219 599 219 624 q 208 531 219 560 q 181 482 197 502 q 145 451 165 463 q 107 437 126 440 q 136 425 122 433 q 162 403 151 417 q 180 372 173 390 q 186 331 186 353 q 174 246 186 288 q 146 162 161 204 q 119 76 131 119 q 106 -14 106 33 q 115 -69 106 -44 q 138 -112 123 -94 q 174 -140 153 -130 q 220 -149 194 -149 l 247 -149 q 253 -152 250 -149 q 256 -160 257 -154 l 254 -174 l 218 -174 q 157 -161 184 -174 q 112 -127 131 -149 q 84 -76 94 -105 q 74 -12 74 -47 q 87 78 74 35 q 115 163 100 122 q 143 245 131 203 q 156 330 156 286 q 131 398 156 372 q 63 424 105 424 l 66 449 q 114 458 92 449 q 153 488 136 468 q 179 538 169 508 q 188 609 188 568 q 186 657 188 632 q 183 709 185 683 q 179 760 181 735 q 177 809 177 785 q 191 907 177 863 q 231 983 206 951 q 291 1031 256 1014 q 368 1047 326 1047 l 403 1047 z "},"}":{"ha":381,"x_min":-18,"x_max":324,"o":"m 168 1047 q 228 1035 202 1047 q 273 1000 255 1022 q 301 949 292 978 q 311 886 311 919 q 299 795 311 838 q 271 711 286 752 q 243 628 256 669 q 231 543 231 588 q 256 475 231 501 q 324 449 281 449 l 320 424 q 273 415 295 424 q 234 385 251 405 q 208 334 217 365 q 198 264 198 304 q 200 216 198 241 q 203 164 201 190 q 207 113 206 138 q 209 65 209 88 q 195 -34 209 10 q 155 -109 181 -78 q 95 -157 130 -140 q 18 -174 60 -174 l -18 -174 l -15 -160 q -12 -152 -15 -154 q -3 -149 -8 -149 l 22 -149 q 81 -136 53 -149 q 130 -97 109 -123 q 164 -33 151 -71 q 177 55 176 5 q 176 109 177 81 q 173 166 174 138 q 169 221 171 194 q 168 274 168 249 q 179 342 169 313 q 206 391 190 371 q 241 422 222 410 q 280 437 261 433 q 250 449 265 440 q 224 470 235 457 q 206 501 213 483 q 199 542 199 519 q 212 627 199 585 q 240 711 224 669 q 267 797 255 753 q 280 887 280 840 q 272 942 280 917 q 248 985 263 967 q 213 1013 233 1003 q 166 1022 192 1022 l 141 1022 q 133 1025 136 1022 q 131 1033 130 1027 l 132 1047 l 168 1047 z "},"*":{"ha":546,"x_min":142,"x_max":499,"o":"m 364 846 q 348 838 355 841 q 331 833 342 835 q 348 828 342 830 q 360 822 353 826 l 478 742 l 465 722 l 349 802 q 336 810 340 807 q 325 824 332 814 q 327 806 326 812 q 326 790 328 799 l 307 635 l 285 635 l 304 790 q 307 806 306 799 q 315 824 309 813 q 300 811 305 815 q 285 802 294 808 l 151 722 l 142 742 l 277 822 q 292 828 285 826 q 311 833 299 830 q 293 839 299 837 q 280 846 288 841 l 164 926 l 177 945 l 293 865 q 305 856 301 860 q 317 840 308 851 q 314 861 315 853 q 315 878 313 868 l 333 1032 l 356 1032 l 337 878 q 333 861 335 868 q 326 842 331 853 q 342 856 335 851 q 356 865 348 860 l 491 945 l 499 926 l 364 846 z "},"†":{"ha":806,"x_min":176,"x_max":686,"o":"m 447 657 q 558 661 500 658 q 669 665 617 663 q 682 659 677 665 q 685 647 686 653 l 683 635 l 444 635 l 398 259 l 341 -248 q 322 -253 332 -253 q 302 -248 311 -253 l 369 259 l 416 635 l 176 635 l 178 647 q 184 659 178 653 q 199 665 190 665 q 307 661 250 663 q 418 657 364 658 l 454 988 q 463 991 458 990 q 474 993 468 993 q 484 991 479 993 q 492 988 489 990 l 447 657 z "},"‡":{"ha":806,"x_min":113,"x_max":690,"o":"m 451 657 q 563 661 505 658 q 673 665 621 663 q 686 659 682 665 q 689 647 690 653 l 688 635 l 449 635 l 418 382 l 383 104 l 622 104 l 622 92 q 615 81 620 86 q 601 75 610 75 q 491 79 549 76 q 380 83 434 81 l 346 -248 q 326 -253 337 -253 q 307 -248 315 -253 l 353 83 q 241 79 299 81 q 130 75 183 76 q 117 81 121 75 q 114 92 113 86 l 116 104 l 356 104 l 390 382 l 420 635 l 181 635 l 183 647 q 189 659 183 653 q 203 665 194 665 q 312 661 255 663 q 423 657 369 658 l 458 988 q 467 991 463 990 q 478 993 472 993 q 489 991 484 993 q 497 988 493 990 l 451 657 z "},"§":{"ha":620,"x_min":49,"x_max":568,"o":"m 506 433 q 494 488 506 464 q 464 531 483 512 q 420 566 445 551 q 369 595 396 581 q 314 624 342 610 q 262 653 286 638 q 197 619 223 638 q 154 582 170 601 q 131 540 138 562 q 124 492 124 517 q 136 440 124 463 q 170 399 149 417 q 219 364 191 380 q 276 333 247 348 q 336 302 306 318 q 392 268 366 286 q 480 338 453 297 q 506 433 506 379 m 58 1 q 71 8 63 8 q 88 -4 78 8 q 117 -29 99 -15 q 165 -55 135 -43 q 239 -66 194 -66 q 324 -51 287 -66 q 387 -9 361 -35 q 427 51 413 17 q 440 124 440 85 q 425 183 440 158 q 386 228 410 208 q 330 266 361 249 q 266 299 299 283 q 201 332 233 315 q 145 371 170 349 q 106 420 121 393 q 91 484 91 448 q 99 538 91 512 q 126 588 108 565 q 173 632 144 612 q 243 667 201 651 q 194 719 213 689 q 175 790 175 749 q 192 865 175 829 q 239 928 209 901 q 310 971 269 955 q 400 988 351 988 q 494 971 454 988 q 568 918 535 954 l 560 906 q 549 900 556 900 q 533 909 543 900 q 507 930 524 919 q 463 950 490 941 q 396 960 436 960 q 321 946 356 960 q 261 910 287 933 q 222 858 236 888 q 208 796 208 828 q 222 742 208 765 q 259 700 236 719 q 312 665 283 681 q 373 633 342 649 q 434 600 404 617 q 486 560 463 582 q 524 509 510 538 q 538 442 538 480 q 505 328 538 375 q 409 255 472 282 q 455 201 438 231 q 473 131 473 172 q 456 45 473 86 q 409 -26 440 5 q 333 -75 378 -57 q 234 -93 289 -93 q 174 -87 201 -93 q 125 -70 147 -81 q 84 -44 102 -60 q 49 -10 65 -29 l 58 1 z "},"¶":{"ha":871,"x_min":87,"x_max":893,"o":"m 889 944 l 730 944 l 599 -128 l 565 -128 l 697 944 l 450 944 l 319 -128 l 285 -128 l 363 499 q 248 514 299 499 q 161 556 197 528 q 106 624 126 584 q 87 715 87 664 q 110 822 87 774 q 178 904 134 869 q 283 957 222 938 q 421 976 344 976 l 893 976 l 889 944 z "},"^":{"ha":806,"x_min":200,"x_max":683,"o":"m 683 560 l 658 560 q 648 564 652 560 q 640 573 643 567 l 456 905 q 442 940 447 924 q 426 905 435 922 l 243 573 q 236 565 240 569 q 225 560 232 560 l 200 560 l 431 976 l 452 976 l 683 560 z "},"~":{"ha":806,"x_min":106,"x_max":701,"o":"m 549 378 q 599 388 576 378 q 637 416 622 398 q 661 458 653 434 q 671 510 670 482 l 701 510 q 691 448 701 477 q 661 396 681 418 q 614 360 642 374 q 550 347 586 347 q 476 362 515 347 q 400 395 438 377 q 326 427 363 413 q 258 442 290 442 q 208 432 230 442 q 170 404 185 422 q 145 362 154 386 q 136 309 137 338 l 106 309 q 116 372 106 342 q 145 424 126 401 q 192 459 165 447 q 256 472 220 472 q 305 465 280 472 q 356 448 330 458 q 407 425 381 438 q 456 402 432 413 q 504 385 481 392 q 549 378 527 378 z "},"'":{"ha":250,"x_min":143,"x_max":208,"o":"m 208 976 l 183 773 l 167 667 q 154 654 165 654 q 143 667 144 654 l 153 773 l 178 976 l 208 976 z "},"\"":{"ha":422,"x_min":143,"x_max":380,"o":"m 208 976 l 183 773 l 167 667 q 154 654 165 654 q 143 667 144 654 l 153 773 l 178 976 l 208 976 m 380 976 l 355 773 l 339 667 q 326 654 337 654 q 315 667 316 654 l 324 773 l 350 976 l 380 976 z "},"&":{"ha":884,"x_min":55,"x_max":813,"o":"m 336 523 q 239 472 283 503 q 161 401 194 440 q 110 315 128 361 q 92 217 92 268 q 109 130 92 167 q 155 68 127 93 q 218 31 183 43 q 288 18 253 18 q 382 32 337 18 q 467 69 427 45 q 543 125 508 93 q 607 193 578 156 l 347 509 l 336 523 m 813 0 l 785 0 q 768 2 774 0 q 755 13 763 4 l 626 169 q 556 98 594 131 q 475 41 518 65 q 383 3 431 17 q 282 -11 334 -11 q 196 4 237 -11 q 124 48 155 19 q 74 118 92 76 q 55 213 55 159 q 76 322 55 270 q 133 416 97 374 q 218 491 169 458 q 321 542 267 523 q 265 640 283 593 q 246 738 246 687 q 264 838 246 792 q 315 917 283 884 q 393 969 348 951 q 492 988 438 988 q 565 974 531 988 q 623 936 599 960 q 662 876 648 911 q 676 799 676 842 l 658 797 q 649 799 652 796 q 644 810 645 801 q 635 857 644 831 q 609 905 627 883 q 561 943 590 928 q 490 959 531 959 q 405 943 443 959 q 338 898 366 927 q 295 830 310 869 q 280 744 280 791 q 304 639 280 692 q 373 531 328 585 l 629 222 q 691 330 667 275 q 725 434 715 385 q 730 443 726 440 q 739 447 733 447 l 760 447 q 723 324 751 390 q 649 198 695 259 l 813 0 z "},"@":{"ha":1058,"x_min":76,"x_max":996,"o":"m 731 596 q 696 605 713 601 q 654 608 678 608 q 569 594 609 608 q 494 556 528 580 q 431 499 459 531 q 384 430 403 467 q 354 355 365 394 q 344 278 344 316 q 349 233 344 254 q 367 195 355 211 q 397 170 378 179 q 439 161 415 161 q 491 170 464 161 q 546 204 519 180 q 600 269 574 228 q 650 374 627 310 l 731 596 m 865 -58 q 697 -137 786 -110 q 506 -165 608 -165 q 334 -134 413 -165 q 198 -44 256 -103 q 108 100 140 15 q 76 296 76 186 q 96 467 76 386 q 154 616 117 547 q 242 740 191 685 q 352 833 292 794 q 480 892 413 872 q 618 913 548 913 q 763 889 694 913 q 884 816 832 865 q 966 696 935 768 q 996 530 996 624 q 973 367 996 440 q 911 241 949 293 q 823 160 872 188 q 721 131 774 131 q 670 141 690 131 q 638 169 649 151 q 625 214 627 188 q 628 272 622 240 q 534 168 585 201 q 428 135 483 135 q 377 146 399 135 q 341 176 355 157 q 319 219 326 194 q 313 274 313 244 q 324 357 313 315 q 357 440 335 400 q 409 515 378 480 q 478 576 440 550 q 563 617 517 602 q 660 633 609 633 q 718 627 690 633 q 766 610 746 622 l 679 374 q 650 262 654 304 q 655 196 645 219 q 685 165 665 172 q 728 157 705 157 q 815 183 772 157 q 892 257 858 208 q 947 374 926 305 q 967 530 967 443 q 940 687 967 619 q 864 799 912 754 q 752 865 816 843 q 615 888 688 888 q 488 868 551 888 q 368 813 425 849 q 263 725 311 776 q 180 607 215 673 q 125 464 144 542 q 105 299 105 386 q 136 112 105 193 q 221 -24 167 31 q 350 -108 276 -80 q 509 -137 424 -137 q 844 -39 697 -137 q 856 -36 851 -34 q 862 -44 860 -39 l 865 -58 z "},"©":{"ha":1170,"x_min":96,"x_max":1092,"o":"m 809 278 q 817 278 813 279 l 832 264 q 788 229 811 245 q 736 202 764 213 q 674 185 708 191 q 600 178 640 178 q 479 200 534 178 q 383 263 424 222 q 321 360 343 303 q 299 488 299 417 q 322 615 299 558 q 385 714 344 672 q 484 777 426 755 q 610 800 542 800 q 676 795 647 800 q 730 781 705 790 q 777 758 755 772 q 821 726 799 744 l 813 715 q 803 710 810 710 q 786 719 798 710 q 752 741 774 729 q 696 762 731 752 q 612 772 662 772 q 498 752 549 772 q 410 695 447 732 q 353 606 373 658 q 333 488 333 553 q 353 369 333 422 q 409 281 373 317 q 494 226 445 245 q 601 207 543 207 q 670 212 640 207 q 723 226 699 217 q 768 249 747 235 q 809 278 788 262 m 96 488 q 114 620 96 557 q 164 740 131 684 q 242 840 197 795 q 343 918 288 885 q 461 968 398 951 q 594 986 525 986 q 726 968 663 986 q 845 918 790 951 q 946 840 901 885 q 1024 740 992 795 q 1075 620 1057 684 q 1092 488 1092 557 q 1075 356 1092 419 q 1024 237 1057 292 q 946 136 992 181 q 845 58 901 91 q 726 8 790 26 q 594 -10 663 -10 q 461 8 525 -10 q 343 58 398 26 q 242 136 288 91 q 164 237 197 181 q 114 356 131 292 q 96 488 96 419 m 123 488 q 160 304 123 390 q 260 153 197 217 q 410 52 324 90 q 594 15 496 15 q 720 32 659 15 q 833 80 781 49 q 929 153 885 110 q 1003 249 972 197 q 1050 363 1033 302 q 1067 488 1067 423 q 1050 614 1067 553 q 1003 728 1033 675 q 929 824 972 781 q 833 898 885 867 q 720 945 781 928 q 594 963 659 963 q 468 945 528 963 q 356 898 408 928 q 260 824 303 867 q 187 728 217 781 q 140 614 156 675 q 123 488 123 553 z "},"℗":{"ha":1170,"x_min":96,"x_max":1092,"o":"m 589 467 q 677 478 640 467 q 737 510 714 490 q 771 560 760 531 q 782 622 782 588 q 738 730 782 692 q 597 768 694 768 l 474 768 l 474 467 l 589 467 m 597 794 q 761 748 706 794 q 815 622 815 701 q 801 551 815 584 q 760 493 788 517 q 690 455 732 469 q 590 440 647 440 l 474 440 l 474 182 l 440 182 l 440 794 l 597 794 m 594 15 q 720 32 659 15 q 833 80 781 49 q 929 153 885 110 q 1003 249 972 197 q 1050 363 1033 302 q 1067 488 1067 423 q 1050 614 1067 553 q 1003 728 1033 675 q 929 824 972 781 q 833 898 885 867 q 720 945 781 928 q 594 963 659 963 q 468 945 528 963 q 356 898 408 928 q 260 824 303 867 q 187 728 217 781 q 140 614 156 675 q 123 488 123 553 q 160 304 123 390 q 260 153 197 217 q 410 52 324 90 q 594 15 496 15 m 594 986 q 726 968 663 986 q 845 918 790 951 q 946 840 901 885 q 1024 740 992 795 q 1075 620 1057 684 q 1092 488 1092 557 q 1075 356 1092 419 q 1024 237 1057 292 q 946 136 992 181 q 845 58 901 91 q 726 8 790 26 q 594 -10 663 -10 q 461 8 525 -10 q 343 58 398 26 q 242 136 288 91 q 164 237 197 181 q 114 356 131 292 q 96 488 96 419 q 114 620 96 557 q 164 740 131 684 q 242 840 197 795 q 343 918 288 885 q 461 968 398 951 q 594 986 525 986 z "},"®":{"ha":1171,"x_min":96,"x_max":1092,"o":"m 568 494 q 702 531 656 494 q 749 636 749 567 q 707 737 749 706 q 576 768 665 768 l 453 768 l 453 494 l 568 494 m 576 794 q 729 756 676 794 q 782 638 782 718 q 769 574 782 603 q 732 523 756 544 q 675 488 708 501 q 599 472 641 475 q 622 450 611 465 l 840 182 l 810 182 q 802 183 806 182 q 795 190 799 185 l 582 451 q 568 463 576 459 q 540 467 560 467 l 453 467 l 453 182 l 419 182 l 419 794 l 576 794 m 594 15 q 720 32 659 15 q 833 80 781 49 q 929 153 885 110 q 1003 249 972 197 q 1050 363 1033 302 q 1067 488 1067 423 q 1050 614 1067 553 q 1003 728 1033 675 q 929 824 972 781 q 833 898 885 867 q 720 945 781 928 q 594 963 659 963 q 468 945 528 963 q 356 898 408 928 q 260 824 303 867 q 187 728 217 781 q 140 614 156 675 q 123 488 123 553 q 160 304 123 390 q 260 153 197 217 q 410 52 324 90 q 594 15 496 15 m 594 986 q 726 968 663 986 q 845 918 790 951 q 946 840 901 885 q 1024 740 992 795 q 1075 620 1057 684 q 1092 488 1092 557 q 1075 356 1092 419 q 1024 237 1057 292 q 946 136 992 181 q 845 58 901 91 q 726 8 790 26 q 594 -10 663 -10 q 461 8 525 -10 q 343 58 398 26 q 242 136 288 91 q 164 237 197 181 q 114 356 131 292 q 96 488 96 419 q 114 620 96 557 q 164 740 131 684 q 242 840 197 795 q 343 918 288 885 q 461 968 398 951 q 594 986 525 986 z "},"™":{"ha":943,"x_min":124,"x_max":889,"o":"m 128 976 l 423 976 l 420 952 l 288 952 l 242 583 l 213 583 l 258 952 l 124 952 l 128 976 m 889 976 l 842 583 l 817 583 l 858 919 l 861 938 l 677 659 q 665 652 672 652 l 661 652 q 651 659 653 652 l 531 937 l 531 919 l 489 583 l 465 583 l 512 976 l 533 976 q 544 970 540 976 l 663 695 q 665 689 665 692 q 667 683 666 686 q 670 689 668 686 q 674 695 672 692 l 857 970 q 868 976 860 976 l 889 976 z "},"℠":{"ha":926,"x_min":134,"x_max":873,"o":"m 142 647 q 150 651 145 651 q 159 644 153 651 q 173 629 164 638 q 198 613 183 620 q 237 606 213 606 q 280 615 260 606 q 312 637 299 623 q 332 669 325 651 q 339 708 339 688 q 327 745 339 732 q 298 767 315 758 q 259 782 280 776 q 220 799 238 789 q 191 826 203 810 q 179 870 179 842 q 188 913 179 892 q 211 949 196 933 q 249 974 227 965 q 297 983 270 983 q 384 944 352 983 l 377 933 q 369 928 374 928 q 361 933 366 928 q 349 944 357 938 q 327 956 340 951 q 294 961 315 961 q 257 954 274 961 q 229 936 241 947 q 211 909 217 924 q 205 876 205 893 q 217 841 205 853 q 247 819 228 828 q 285 802 265 810 q 324 785 306 795 q 353 758 342 774 q 365 715 365 742 q 356 664 365 688 q 330 623 347 640 q 288 594 313 605 q 234 584 264 584 q 174 598 199 584 q 134 635 150 611 l 142 647 m 873 976 l 824 583 l 800 583 l 842 920 l 845 938 l 660 659 q 649 652 657 652 l 644 652 q 635 659 638 652 l 515 937 l 515 920 l 474 583 l 447 583 l 496 976 l 517 976 q 528 970 524 976 l 647 695 q 649 689 649 692 q 651 683 650 686 q 654 689 652 686 q 658 695 656 692 l 841 970 q 852 976 844 976 l 873 976 z "},"°":{"ha":563,"x_min":126,"x_max":525,"o":"m 126 790 q 142 867 126 831 q 185 930 158 903 q 248 972 212 957 q 325 988 284 988 q 403 972 367 988 q 467 930 440 957 q 509 867 494 903 q 525 790 525 831 q 509 713 525 749 q 467 650 494 677 q 403 607 440 623 q 325 592 367 592 q 248 607 284 592 q 185 650 212 623 q 142 713 158 677 q 126 790 126 749 m 153 790 q 166 724 153 755 q 203 669 180 692 q 258 633 226 646 q 325 619 290 619 q 391 633 360 619 q 445 669 422 646 q 482 724 469 692 q 495 790 495 755 q 482 857 495 826 q 445 911 469 888 q 391 948 422 934 q 325 961 360 961 q 258 948 290 961 q 203 911 226 934 q 166 857 180 888 q 153 790 153 826 z "},"¤":{"ha":806,"x_min":120,"x_max":686,"o":"m 199 465 q 215 386 199 424 q 259 322 231 349 q 324 277 287 294 q 403 261 361 261 q 483 277 446 261 q 549 322 521 294 q 593 386 576 349 q 609 465 609 424 q 593 545 609 508 q 549 611 576 583 q 483 655 521 639 q 403 672 446 672 q 324 655 361 672 q 259 611 287 639 q 215 545 231 583 q 199 465 199 508 m 667 183 l 558 291 q 488 248 527 264 q 403 233 449 233 q 320 248 359 233 q 249 292 281 264 l 140 183 l 121 202 l 229 311 q 186 382 202 342 q 171 465 171 421 q 186 550 171 510 q 229 620 202 589 l 120 728 l 140 748 l 249 640 q 319 684 280 668 q 403 699 358 699 q 488 684 449 699 q 558 640 527 668 l 666 749 l 685 728 l 578 621 q 621 550 606 590 q 637 465 637 510 q 621 382 637 421 q 578 311 606 342 l 686 203 l 667 183 z "},"€":{"ha":806,"x_min":12,"x_max":820,"o":"m 34 586 l 150 586 q 208 755 169 681 q 300 881 246 829 q 423 960 354 933 q 572 988 492 988 q 652 980 616 988 q 717 958 688 973 q 772 921 747 943 q 820 870 797 899 l 808 858 q 799 853 804 853 q 788 861 794 853 q 770 880 781 869 q 742 905 759 892 q 702 930 726 919 q 645 949 678 942 q 569 957 613 957 q 435 932 497 957 q 324 860 374 908 q 239 744 274 813 q 185 586 204 675 l 629 586 l 628 574 q 624 565 627 569 q 612 562 620 562 l 181 562 q 173 496 176 530 q 168 426 169 462 l 547 426 l 546 415 q 529 401 542 401 l 167 401 l 167 392 q 187 233 167 303 q 243 116 206 164 q 332 44 279 69 q 451 19 384 19 q 533 28 497 19 q 599 51 570 38 q 649 81 628 65 q 686 110 671 97 q 711 133 702 124 q 726 142 721 142 q 730 141 729 142 q 734 138 731 140 l 744 126 q 684 70 716 96 q 615 27 652 45 q 536 -1 578 9 q 445 -11 494 -11 q 312 16 370 -11 q 214 95 253 44 q 152 222 174 147 q 131 390 131 297 l 131 401 l 12 401 l 15 426 l 132 426 q 136 495 133 462 q 145 562 140 529 l 31 562 l 34 586 z "},"$":{"ha":806,"x_min":67,"x_max":717,"o":"m 480 957 q 370 935 418 955 q 290 883 323 915 q 241 809 258 851 q 224 723 224 768 q 239 652 224 681 q 280 601 254 622 q 340 565 306 580 q 410 536 374 549 l 480 957 m 353 19 q 473 45 419 22 q 563 107 526 69 q 621 194 601 144 q 641 298 641 243 q 623 375 641 344 q 576 427 606 406 q 508 464 547 449 q 430 492 470 478 l 353 19 m 510 988 q 629 960 580 984 q 717 889 678 935 l 709 877 q 697 870 705 870 q 678 883 690 870 q 645 912 667 896 q 591 941 624 928 q 506 957 557 955 l 435 527 q 523 495 480 512 q 600 454 566 478 q 655 394 634 430 q 676 306 676 358 q 653 187 676 243 q 588 88 631 131 q 484 18 545 44 q 348 -11 424 -8 l 322 -171 q 306 -186 320 -186 l 292 -186 l 321 -11 q 237 -1 274 -10 q 169 25 199 8 q 114 64 138 41 q 67 116 89 87 l 78 128 q 92 135 85 135 q 104 126 97 135 q 124 106 112 118 q 152 78 135 93 q 194 51 169 64 q 250 28 218 38 q 326 19 283 19 l 405 501 q 325 531 364 515 q 257 572 287 547 q 208 631 226 596 q 190 716 190 665 q 210 817 190 769 q 268 903 231 865 q 361 963 306 940 q 485 988 416 986 l 505 1111 q 519 1126 507 1126 l 533 1126 l 510 988 z "},"¢":{"ha":806,"x_min":111,"x_max":700,"o":"m 484 667 q 344 640 406 667 q 238 564 281 613 q 170 445 194 515 q 147 290 147 376 q 163 179 147 228 q 209 96 179 131 q 282 42 240 62 q 379 20 325 23 l 484 667 m 515 695 q 622 672 576 692 q 700 622 668 652 l 690 610 q 679 606 685 606 q 664 614 674 606 q 633 634 653 623 q 584 655 614 644 q 510 667 553 665 l 405 19 q 501 33 461 20 q 568 60 541 45 q 610 86 595 74 q 631 98 625 98 q 635 97 634 98 q 638 94 637 95 l 646 83 q 607 51 631 67 q 550 22 582 35 q 481 1 519 9 q 401 -8 442 -8 l 375 -167 q 360 -182 373 -182 l 347 -182 l 375 -8 q 265 16 313 -6 q 182 75 216 38 q 129 167 147 113 q 111 288 111 221 q 138 453 111 378 q 213 582 164 528 q 332 665 262 635 q 488 696 401 695 l 513 849 q 528 864 515 864 l 542 864 l 515 695 z "},"£":{"ha":806,"x_min":18,"x_max":765,"o":"m 582 458 q 566 446 580 446 l 218 446 l 188 199 q 175 139 184 165 q 152 93 167 113 q 119 56 138 72 q 75 27 100 40 q 128 31 102 31 l 715 31 l 715 17 q 708 5 714 10 q 694 0 702 0 l 18 0 l 21 27 q 68 50 47 38 q 107 82 90 63 q 135 127 124 101 q 151 193 147 154 l 182 446 l 56 446 l 58 459 q 73 472 59 472 l 185 472 l 212 690 q 245 809 219 754 q 312 903 271 863 q 409 965 353 942 q 533 988 465 988 q 627 975 588 988 q 694 941 667 963 q 738 891 721 919 q 765 830 755 862 l 749 823 q 738 822 742 821 q 729 831 733 823 q 705 877 719 854 q 668 918 691 900 q 613 946 646 935 q 529 957 579 957 q 422 937 470 957 q 337 882 373 917 q 278 798 301 847 q 248 690 255 749 l 222 472 l 583 472 l 582 458 l 582 458 z "},"¥":{"ha":806,"x_min":103,"x_max":794,"o":"m 427 424 l 682 424 l 680 400 l 416 400 l 406 315 l 669 315 l 666 290 l 403 290 l 367 0 l 331 0 l 367 290 l 103 290 l 106 315 l 369 315 l 380 400 l 117 400 l 119 424 l 374 424 l 144 976 l 174 976 q 188 966 185 976 l 393 468 q 399 451 397 459 q 403 436 401 444 q 410 451 406 444 q 419 468 414 459 l 746 966 q 754 974 750 971 q 764 976 758 976 l 794 976 l 427 424 z "},"℅":{"ha":1019,"x_min":97,"x_max":943,"o":"m 865 968 q 882 976 872 976 l 906 976 l 148 8 q 132 0 142 0 l 108 0 l 865 968 m 437 574 q 441 572 440 574 l 451 559 q 379 508 419 527 q 282 489 338 489 q 206 504 240 489 q 148 547 172 519 q 110 615 124 575 q 97 702 97 654 q 116 819 97 766 q 169 910 135 872 q 249 970 203 949 q 349 991 295 991 q 430 976 396 991 q 489 932 463 961 l 478 919 q 471 915 476 915 q 459 923 467 915 q 437 940 451 931 q 401 957 423 949 q 346 965 378 965 q 260 947 300 965 q 191 895 220 928 q 145 813 162 861 q 128 704 128 765 q 140 625 128 660 q 172 566 151 590 q 222 528 193 542 q 286 515 251 515 q 367 530 335 515 q 431 571 400 544 q 437 574 434 574 m 943 276 q 924 159 943 212 q 872 68 906 106 q 793 9 839 30 q 694 -12 747 -12 q 616 3 651 -12 q 558 47 582 19 q 521 114 534 75 q 508 201 508 153 q 526 319 508 265 q 578 410 545 372 q 657 469 612 448 q 756 490 703 490 q 833 474 799 490 q 892 431 868 459 q 930 364 917 403 q 943 276 943 324 m 911 276 q 900 354 911 319 q 868 413 889 389 q 819 451 848 438 q 753 464 790 464 q 668 446 707 464 q 600 394 628 428 q 555 311 571 360 q 538 201 538 263 q 549 124 538 158 q 581 65 560 89 q 632 27 602 40 q 697 15 661 15 q 783 33 744 15 q 851 84 822 51 q 895 167 879 118 q 911 276 911 215 z "},"№":{"ha":1444,"x_min":104,"x_max":1401,"o":"m 1235 963 q 1163 947 1196 963 q 1105 902 1129 931 q 1066 832 1080 873 q 1051 738 1051 790 q 1088 620 1051 663 q 1187 577 1124 577 q 1261 593 1227 577 q 1319 637 1294 608 q 1357 708 1343 666 q 1371 801 1371 749 q 1361 868 1371 838 q 1334 919 1352 898 q 1291 951 1317 940 q 1235 963 1266 963 m 1184 553 q 1117 566 1147 553 q 1066 603 1087 579 q 1034 661 1045 628 q 1023 737 1023 695 q 1039 839 1023 793 q 1084 918 1056 885 q 1152 969 1113 951 q 1238 987 1192 987 q 1305 974 1275 987 q 1357 936 1335 960 q 1389 878 1378 912 q 1401 802 1401 844 q 1384 700 1401 746 q 1339 621 1368 653 q 1270 570 1310 588 q 1184 553 1231 553 m 868 976 l 901 976 l 781 0 l 765 0 q 757 2 759 0 q 751 8 754 4 l 248 915 q 248 902 248 908 q 247 890 247 896 l 137 0 l 104 0 l 224 976 l 241 976 q 256 967 251 976 l 758 64 q 758 76 758 70 q 759 88 758 83 l 868 976 m 981 425 l 1357 425 l 1353 399 l 978 399 l 981 425 z "},"#":{"ha":806,"x_min":54,"x_max":771,"o":"m 573 635 l 347 635 l 247 341 l 472 341 l 573 635 m 771 661 l 767 649 q 748 635 765 635 l 603 635 l 503 341 l 676 341 q 689 325 691 341 l 685 315 l 496 315 l 388 0 l 375 0 q 364 5 367 0 q 364 19 360 9 l 465 315 l 239 315 l 138 17 q 129 4 135 8 q 117 0 124 0 l 101 0 l 208 315 l 68 315 q 58 318 61 315 q 56 331 54 322 l 58 341 l 215 341 l 316 635 l 132 635 l 135 648 q 154 661 137 661 l 322 661 l 424 959 q 447 976 431 976 l 461 976 l 353 661 l 578 661 l 687 976 l 703 976 q 713 972 710 976 q 712 957 715 967 l 610 661 l 771 661 z "},"₀":{"ha":464,"x_min":12,"x_max":372,"o":"m 372 138 q 354 4 372 60 q 308 -89 337 -52 q 240 -144 278 -126 q 161 -162 202 -162 q 101 -150 128 -162 q 54 -112 74 -137 q 23 -50 34 -87 q 12 38 12 -12 q 29 171 12 114 q 75 265 46 228 q 142 321 104 303 q 223 340 181 340 q 282 327 254 340 q 329 289 309 315 q 360 226 349 264 q 372 138 372 188 m 342 140 q 332 218 342 185 q 307 273 323 251 q 268 305 290 294 q 219 315 245 315 q 152 300 184 315 q 95 250 120 284 q 55 164 70 217 q 40 38 40 111 q 50 -41 40 -8 q 76 -96 59 -74 q 115 -128 92 -117 q 164 -138 138 -138 q 231 -122 199 -138 q 287 -73 263 -106 q 327 14 312 -39 q 342 140 342 66 z "},"₁":{"ha":464,"x_min":58,"x_max":312,"o":"m 312 -135 l 309 -157 l 58 -157 l 60 -135 l 175 -135 l 226 276 l 231 300 l 105 198 q 97 195 101 194 q 90 199 92 196 l 82 211 l 240 336 l 262 336 l 204 -135 l 312 -135 z "},"₂":{"ha":464,"x_min":2,"x_max":351,"o":"m 310 -131 q 319 -140 320 -131 l 317 -157 l 2 -157 l 3 -147 q 6 -141 4 -144 q 10 -134 7 -137 l 201 38 q 248 81 226 60 q 287 125 270 103 q 313 171 303 147 q 322 222 322 194 q 314 264 322 246 q 292 293 306 281 q 260 310 278 304 q 222 315 242 315 q 139 288 173 315 q 89 215 104 260 q 72 206 83 205 l 58 208 q 82 264 66 240 q 120 305 98 288 q 169 331 142 322 q 226 340 196 340 q 275 333 252 340 q 314 311 297 326 q 341 275 331 297 q 351 224 351 253 q 340 167 351 193 q 311 117 329 141 q 270 72 294 94 q 221 26 247 49 l 42 -135 q 90 -131 63 -131 l 310 -131 z "},"₃":{"ha":464,"x_min":12,"x_max":349,"o":"m 58 208 q 83 264 67 240 q 120 305 99 288 q 169 331 142 322 q 226 340 197 340 q 274 333 252 340 q 313 312 297 326 q 340 278 330 299 q 349 231 349 258 q 340 181 349 203 q 316 142 331 159 q 280 115 301 126 q 235 98 259 103 q 308 61 283 89 q 333 -7 333 33 q 318 -69 333 -40 q 280 -118 304 -97 q 225 -151 256 -139 q 158 -162 193 -162 q 89 -151 115 -162 q 46 -122 62 -140 q 23 -82 31 -103 q 12 -38 16 -60 l 25 -33 q 35 -32 30 -31 q 42 -40 41 -32 q 47 -60 44 -44 q 61 -94 50 -76 q 96 -125 73 -111 q 160 -139 119 -139 q 220 -127 194 -139 q 265 -97 247 -115 q 293 -56 283 -78 q 303 -11 303 -33 q 295 27 303 10 q 273 57 288 44 q 232 77 257 70 q 172 85 207 85 l 174 105 q 282 139 243 107 q 320 225 320 171 q 312 265 320 248 q 291 293 304 282 q 259 309 277 304 q 222 315 242 315 q 138 287 172 315 q 89 215 104 259 q 74 206 83 205 l 58 208 z "},"₄":{"ha":464,"x_min":-5,"x_max":363,"o":"m 243 8 l 276 275 q 279 287 278 281 q 281 300 280 293 l 27 8 l 243 8 m 363 8 l 363 -6 q 352 -14 360 -14 l 266 -14 l 249 -157 l 223 -157 l 241 -14 l 8 -14 q -4 -7 -4 -14 l -5 6 l 283 334 l 309 334 l 269 8 l 363 8 z "},"₅":{"ha":464,"x_min":14,"x_max":351,"o":"m 351 334 l 349 322 q 344 311 349 316 q 331 307 340 307 l 149 307 l 99 137 q 198 148 156 151 q 268 129 240 145 q 311 86 297 113 q 325 23 325 58 q 309 -55 325 -21 q 267 -114 293 -90 q 206 -150 240 -137 q 135 -162 172 -162 q 64 -150 95 -162 q 14 -121 32 -137 l 23 -108 q 28 -106 26 -107 q 33 -104 30 -104 q 45 -109 38 -104 q 66 -121 53 -115 q 97 -133 78 -128 q 139 -138 115 -138 q 198 -128 170 -138 q 248 -97 226 -117 q 282 -48 269 -77 q 294 20 294 -18 q 282 74 294 50 q 245 110 270 97 q 180 125 219 124 q 85 112 140 126 l 68 118 l 132 334 l 351 334 z "},"₆":{"ha":464,"x_min":26,"x_max":343,"o":"m 164 -140 q 225 -129 198 -140 q 272 -99 253 -118 q 302 -53 292 -80 q 313 4 313 -27 q 283 83 313 54 q 204 112 254 112 q 142 100 169 112 q 95 68 115 88 q 65 23 75 49 q 54 -28 54 -2 q 62 -73 54 -52 q 84 -108 69 -93 q 118 -132 98 -123 q 164 -140 138 -140 m 142 145 q 114 112 126 127 q 90 83 101 97 q 145 120 114 107 q 213 134 177 134 q 266 125 242 134 q 307 100 290 116 q 334 60 324 83 q 343 7 343 36 q 329 -61 343 -31 q 291 -115 315 -92 q 233 -150 266 -137 q 161 -162 199 -162 q 62 -126 99 -162 q 26 -26 26 -90 q 45 54 26 15 q 108 144 65 94 l 267 327 q 283 334 272 334 l 307 334 l 142 145 z "},"₇":{"ha":464,"x_min":55,"x_max":385,"o":"m 385 334 l 383 314 l 88 -157 l 55 -157 l 342 292 q 352 307 345 300 l 65 307 q 59 309 62 307 q 57 316 57 312 l 60 334 l 385 334 z "},"₈":{"ha":464,"x_min":17,"x_max":348,"o":"m 165 -140 q 222 -131 195 -140 q 267 -106 248 -122 q 298 -65 287 -89 q 309 -12 309 -41 q 298 36 309 17 q 269 66 286 55 q 232 82 252 78 q 192 87 211 87 q 145 81 170 87 q 98 60 119 75 q 61 21 76 46 q 47 -41 47 -3 q 56 -81 47 -63 q 79 -112 64 -99 q 116 -133 94 -126 q 165 -140 138 -140 m 92 202 q 99 167 92 184 q 117 138 105 151 q 149 117 130 124 q 195 109 169 109 q 250 119 226 109 q 289 145 274 128 q 313 182 305 161 q 321 226 321 203 q 295 291 321 265 q 220 317 269 317 q 167 309 191 317 q 127 284 144 300 q 101 248 110 269 q 92 202 92 226 m 243 99 q 281 85 264 94 q 311 62 299 76 q 331 30 324 49 q 338 -12 338 12 q 324 -75 338 -47 q 287 -122 310 -103 q 232 -152 264 -142 q 162 -162 199 -162 q 102 -154 128 -162 q 56 -131 75 -146 q 27 -93 38 -115 q 17 -44 17 -72 q 27 12 17 -12 q 54 54 37 36 q 94 83 71 72 q 144 99 117 94 q 85 138 105 111 q 65 201 65 165 q 76 255 65 230 q 108 299 88 281 q 158 329 129 318 q 224 340 188 340 q 276 331 253 340 q 315 307 299 322 q 340 272 331 292 q 348 228 348 251 q 321 147 348 181 q 243 99 294 112 z "},"₉":{"ha":464,"x_min":48,"x_max":352,"o":"m 182 75 q 241 87 215 75 q 287 117 268 99 q 316 160 306 136 q 326 208 326 183 q 319 251 326 231 q 297 285 311 271 q 263 308 283 300 q 219 316 243 316 q 163 306 189 316 q 118 278 137 297 q 88 235 99 260 q 77 178 77 210 q 105 103 77 131 q 182 75 133 75 m 244 44 q 269 75 258 60 q 291 103 281 89 q 237 66 268 79 q 174 53 206 53 q 122 63 145 53 q 82 88 99 72 q 57 127 66 105 q 48 177 48 150 q 62 241 48 211 q 99 293 76 271 q 155 327 123 315 q 223 340 187 340 q 276 330 252 340 q 316 302 299 320 q 343 260 333 285 q 352 206 352 236 q 347 164 352 183 q 332 125 342 144 q 307 85 322 106 q 273 42 292 65 l 117 -151 q 111 -156 115 -155 q 103 -157 108 -157 l 78 -157 l 244 44 z "},"₊":{"ha":464,"x_min":27,"x_max":353,"o":"m 351 67 l 201 67 l 181 -93 l 158 -93 l 178 67 l 27 67 l 29 88 l 180 88 l 199 247 l 222 247 l 203 88 l 353 88 l 351 67 z "},"₋":{"ha":464,"x_min":44,"x_max":334,"o":"m 47 88 l 334 88 l 331 67 l 44 67 l 47 88 z "},"₌":{"ha":464,"x_min":39,"x_max":340,"o":"m 41 36 l 327 36 l 324 15 l 39 15 l 41 36 m 54 144 l 340 144 l 338 122 l 52 122 l 54 144 z "},"₍":{"ha":232,"x_min":20,"x_max":175,"o":"m 47 32 q 60 -86 47 -26 q 100 -199 73 -147 q 101 -207 103 -204 q 96 -212 99 -210 l 83 -220 q 35 -93 49 -156 q 20 28 20 -29 q 26 120 20 76 q 48 207 32 163 q 90 298 63 251 q 158 399 117 345 l 169 392 q 174 388 173 390 q 172 378 175 385 q 78 213 109 297 q 47 32 47 129 z "},"₎":{"ha":232,"x_min":-25,"x_max":129,"o":"m 104 133 q 90 252 104 192 q 49 366 76 313 q 49 375 48 372 q 53 379 51 378 l 67 387 q 115 260 101 324 q 129 140 129 197 q 124 52 129 94 q 105 -34 119 10 q 63 -127 90 -78 q -9 -233 35 -175 l -21 -224 q -24 -220 -23 -223 q -21 -212 -25 -217 q 33 -130 10 -171 q 72 -47 56 -89 q 96 40 88 -4 q 104 133 104 85 z "},"⁄":{"ha":194,"x_min":-226,"x_max":438,"o":"m -186 14 q -198 3 -192 6 q -212 0 -204 0 l -226 0 l 397 962 q 422 976 406 976 l 438 976 l -186 14 z "},"⅔":{"ha":955,"x_min":84,"x_max":868,"o":"m 203 14 q 191 3 197 6 q 177 0 185 0 l 163 0 l 786 962 q 811 976 795 976 l 827 976 l 203 14 m 392 511 q 401 502 402 511 l 399 485 l 84 485 l 85 495 q 88 502 86 499 q 92 508 89 505 l 283 680 q 330 724 308 702 q 369 767 352 745 q 395 813 385 790 q 404 864 404 837 q 396 906 404 888 q 374 935 388 924 q 342 952 360 947 q 303 958 324 958 q 220 930 255 958 q 171 857 186 902 q 154 848 165 847 l 140 851 q 164 906 148 882 q 202 947 180 931 q 251 973 224 964 q 308 982 278 982 q 357 975 334 982 q 396 953 379 968 q 423 917 413 939 q 433 867 433 896 q 422 809 433 835 q 393 760 411 783 q 352 714 376 736 q 303 668 328 692 l 124 507 q 172 511 144 511 l 392 511 m 577 365 q 601 421 585 397 q 639 462 617 445 q 688 488 661 478 q 745 497 715 497 q 793 490 771 497 q 832 469 815 483 q 858 435 849 456 q 868 388 868 415 q 859 338 868 360 q 835 299 850 316 q 799 272 819 283 q 754 255 778 260 q 827 218 802 246 q 851 150 851 190 q 837 88 851 117 q 799 39 823 60 q 743 6 775 18 q 676 -6 712 -6 q 607 6 634 -6 q 565 35 581 17 q 542 75 549 53 q 531 119 535 97 l 544 124 q 554 125 549 126 q 561 117 560 125 q 566 97 563 113 q 580 63 569 81 q 615 32 592 46 q 678 18 638 18 q 739 30 713 18 q 784 60 766 42 q 812 101 802 78 q 822 146 822 124 q 814 184 822 167 q 791 214 807 201 q 751 234 776 227 q 690 242 726 242 l 693 262 q 800 296 762 264 q 839 382 839 328 q 831 422 839 405 q 809 450 823 439 q 778 466 796 461 q 740 472 760 472 q 657 444 691 472 q 608 372 623 416 q 592 363 602 362 l 577 365 z "},"⅖":{"ha":949,"x_min":84,"x_max":867,"o":"m 202 14 q 190 3 197 6 q 176 0 184 0 l 162 0 l 785 962 q 810 976 794 976 l 826 976 l 202 14 m 392 511 q 401 502 402 511 l 399 485 l 84 485 l 85 495 q 88 502 86 499 q 92 508 89 505 l 283 680 q 330 724 308 702 q 369 767 352 745 q 395 813 385 790 q 404 864 404 837 q 396 906 404 888 q 374 935 388 924 q 342 952 360 947 q 303 958 324 958 q 220 930 255 958 q 171 857 186 902 q 154 848 165 847 l 140 851 q 164 906 148 882 q 202 947 180 931 q 251 973 224 964 q 308 982 278 982 q 357 975 334 982 q 396 953 379 968 q 423 917 413 939 q 433 867 433 896 q 422 809 433 835 q 393 760 411 783 q 352 714 376 736 q 303 668 328 692 l 124 507 q 172 511 144 511 l 392 511 m 867 491 l 865 478 q 859 468 864 473 q 847 464 855 464 l 665 464 l 614 294 q 713 305 671 308 q 784 286 756 302 q 826 243 812 270 q 840 180 840 215 q 824 102 840 136 q 782 43 808 67 q 722 7 756 19 q 651 -6 688 -6 q 579 7 610 -6 q 529 36 547 19 l 538 49 q 543 51 541 50 q 549 53 545 53 q 561 48 553 53 q 581 36 569 42 q 612 24 594 29 q 654 19 630 19 q 714 29 685 19 q 763 60 742 40 q 797 109 784 80 q 810 177 810 139 q 798 231 810 207 q 760 267 785 254 q 695 282 735 281 q 600 269 655 283 l 583 275 l 647 491 l 867 491 z "},"+":{"ha":806,"x_min":85,"x_max":733,"o":"m 731 451 l 422 451 l 382 129 l 353 129 l 392 451 l 85 451 l 89 479 l 396 479 l 435 801 l 465 801 l 425 479 l 733 479 l 731 451 z "},"−":{"ha":806,"x_min":124,"x_max":690,"o":"m 126 479 l 690 479 l 688 451 l 124 451 l 126 479 z "},"×":{"ha":806,"x_min":90,"x_max":726,"o":"m 430 465 l 662 200 l 641 181 l 408 446 l 108 179 l 90 199 l 390 466 l 157 730 l 181 751 l 412 485 l 708 749 l 726 728 l 430 465 z "},"÷":{"ha":806,"x_min":84,"x_max":732,"o":"m 88 479 l 732 479 l 729 451 l 84 451 l 88 479 m 385 705 q 390 728 385 717 q 403 747 395 739 q 422 760 411 755 q 444 765 432 765 q 478 750 465 765 q 491 717 491 736 q 486 694 491 704 q 472 676 481 683 q 453 664 464 668 q 431 660 442 660 q 398 673 410 660 q 385 705 385 687 m 324 210 q 329 234 324 223 q 342 252 334 244 q 360 265 350 260 q 383 270 371 270 q 417 256 403 270 q 430 222 430 242 q 425 199 430 210 q 412 181 420 189 q 393 169 403 174 q 370 165 382 165 q 337 179 350 165 q 324 210 324 192 z "},"=":{"ha":806,"x_min":110,"x_max":702,"o":"m 114 379 l 676 379 l 674 351 l 110 351 l 114 379 m 140 588 l 702 588 l 699 560 l 136 560 l 140 588 z "},"≠":{"ha":806,"x_min":226,"x_max":593,"o":"m 565 784 l 593 784 l 254 156 l 226 156 l 565 784 z "},"≈":{"ha":806,"x_min":138,"x_max":678,"o":"m 555 544 q 620 559 589 544 q 670 597 651 574 l 678 577 q 622 532 656 549 q 551 516 588 516 q 482 529 515 516 q 417 558 449 542 q 353 587 385 574 q 289 600 322 600 q 223 585 253 600 q 174 548 192 570 l 165 567 q 220 612 187 596 q 293 628 253 628 q 363 615 329 628 q 428 586 397 602 q 491 558 460 571 q 555 544 522 544 m 529 333 q 594 349 563 333 q 644 385 626 364 l 653 366 q 596 322 631 338 q 525 306 562 306 q 456 319 490 306 q 391 348 423 332 q 326 376 358 363 q 262 390 294 390 q 196 374 226 390 q 148 337 166 359 l 138 356 q 194 401 161 385 q 267 417 228 417 q 337 404 303 417 q 402 375 371 391 q 465 347 434 360 q 529 333 497 333 z "},"<":{"ha":806,"x_min":131,"x_max":677,"o":"m 677 736 l 675 713 q 670 703 674 708 q 657 694 666 699 l 209 481 q 188 473 199 476 q 165 466 177 469 q 205 450 186 461 l 601 236 q 614 218 615 228 l 611 195 l 131 458 l 132 470 l 133 474 l 677 736 z "},">":{"ha":806,"x_min":138,"x_max":685,"o":"m 683 461 l 683 458 l 138 195 l 141 218 q 146 228 142 224 q 158 236 149 232 l 606 450 q 628 459 617 455 q 651 465 639 463 q 610 481 629 470 l 215 694 q 204 703 207 699 q 202 713 201 708 l 204 736 l 685 474 l 683 461 z "},"±":{"ha":806,"x_min":40,"x_max":738,"o":"m 43 83 l 688 83 l 685 56 l 40 56 l 43 83 m 738 490 l 735 462 l 426 462 l 390 170 l 360 170 l 396 462 l 90 462 l 93 490 l 400 490 l 435 782 l 465 782 l 430 490 l 738 490 z "},"≤":{"ha":806,"x_min":103,"x_max":699,"o":"m 699 743 l 697 722 q 692 711 696 715 q 678 702 688 707 l 232 491 q 210 483 221 487 q 187 476 199 479 q 228 461 210 470 l 622 249 q 634 241 631 245 q 637 231 638 236 l 634 208 l 153 468 l 154 472 l 153 472 l 155 478 l 155 481 l 156 484 l 699 743 m 106 84 l 619 84 l 615 56 l 103 56 l 106 84 z "},"≥":{"ha":806,"x_min":107,"x_max":673,"o":"m 671 472 l 670 468 l 126 208 l 129 231 q 134 241 130 236 q 147 249 138 245 l 594 461 q 640 476 615 470 q 618 483 628 479 q 598 491 608 487 l 203 702 q 191 711 194 707 q 189 722 188 715 l 192 743 l 673 484 l 671 472 m 111 84 l 624 84 l 619 56 l 107 56 l 111 84 z "},"¬":{"ha":806,"x_min":127,"x_max":694,"o":"m 691 451 l 690 451 l 665 244 l 633 244 l 659 451 l 127 451 l 130 479 l 694 479 l 691 451 z "},"℮":{"ha":1155,"x_min":98,"x_max":1093,"o":"m 1049 547 q 1034 656 1049 603 q 992 755 1019 708 q 925 839 965 801 q 836 905 885 877 q 727 947 786 932 q 601 963 668 963 q 421 929 503 963 q 279 838 339 896 q 184 703 219 781 q 147 538 149 626 l 1049 538 l 1049 547 m 147 456 q 161 351 147 404 q 204 250 176 299 q 273 159 232 201 q 367 85 314 117 q 484 36 420 54 q 624 18 549 18 q 849 67 753 18 q 1014 202 945 115 l 1035 186 q 861 44 966 96 q 618 -8 757 -8 q 468 11 538 -8 q 341 64 399 30 q 238 143 283 97 q 162 245 193 190 q 114 362 131 300 q 98 489 98 424 q 135 686 98 595 q 238 844 172 778 q 397 949 305 911 q 601 988 490 988 q 800 952 710 988 q 955 853 890 916 q 1056 703 1020 790 q 1093 515 1092 616 l 147 515 l 147 456 z "},"ℓ":{"ha":620,"x_min":35,"x_max":608,"o":"m 483 958 q 382 918 431 958 q 292 809 333 878 q 223 646 251 740 q 183 444 194 552 q 344 514 272 474 q 468 605 416 555 q 548 711 519 654 q 576 831 576 769 q 550 926 576 895 q 483 958 525 958 m 35 404 q 93 417 65 410 q 147 433 121 424 q 171 583 154 511 q 212 716 188 654 q 267 828 236 778 q 333 913 298 878 q 407 968 369 949 q 486 988 446 988 q 542 974 519 988 q 580 940 565 961 q 601 891 594 919 q 608 835 608 864 q 578 703 608 765 q 493 586 548 640 q 359 489 438 533 q 181 414 280 446 q 179 371 180 392 q 178 328 178 350 q 185 183 178 242 q 208 87 193 124 q 247 34 224 50 q 301 17 270 17 q 356 29 328 17 q 410 65 384 40 q 462 130 437 90 q 508 224 487 169 l 538 216 q 502 133 525 174 q 448 60 479 92 q 379 7 417 27 q 297 -13 341 -13 q 230 4 258 -13 q 181 61 201 22 q 152 165 162 101 q 142 324 142 230 q 143 364 142 344 q 145 403 144 383 q 94 389 120 395 q 41 377 68 383 l 35 404 z "},"∞":{"ha":958,"x_min":88,"x_max":867,"o":"m 828 410 q 826 483 833 451 q 802 538 819 515 q 760 572 785 560 q 704 584 735 584 q 646 569 674 584 q 593 531 618 555 q 543 475 567 506 q 494 410 518 444 q 527 345 510 377 q 564 290 544 314 q 607 251 583 265 q 663 236 631 236 q 721 248 693 236 q 771 282 749 260 q 808 336 793 304 q 828 410 824 369 m 249 236 q 308 251 281 236 q 361 290 335 265 q 411 345 387 314 q 460 410 436 376 q 427 475 444 443 q 391 531 410 506 q 347 569 371 555 q 292 584 323 584 q 233 572 261 584 q 183 538 206 560 q 145 483 160 515 q 125 410 130 451 q 127 336 119 369 q 152 282 135 304 q 194 248 169 260 q 249 236 219 236 m 709 614 q 775 600 744 614 q 827 560 806 586 q 858 495 848 533 q 861 410 867 458 q 836 325 856 363 q 790 260 817 287 q 728 220 762 234 q 659 206 694 206 q 597 220 624 206 q 548 260 569 235 q 508 316 526 285 q 474 382 490 348 q 423 316 449 348 q 369 260 397 285 q 310 220 341 235 q 244 206 279 206 q 180 220 210 206 q 128 260 149 234 q 97 325 107 287 q 94 410 88 363 q 118 495 99 458 q 165 560 138 533 q 226 600 192 586 q 294 614 260 614 q 357 599 330 614 q 406 559 384 584 q 446 503 428 535 q 481 438 464 472 q 531 503 506 472 q 585 559 557 535 q 643 599 613 584 q 709 614 674 614 z "},"∂":{"ha":726,"x_min":48,"x_max":688,"o":"m 254 22 q 364 49 312 22 q 460 126 416 76 q 539 245 503 176 q 597 399 574 315 q 586 476 596 438 q 556 544 576 514 q 502 593 535 574 q 422 611 469 611 q 299 584 356 611 q 200 509 243 556 q 130 397 158 461 q 92 258 101 333 q 94 159 86 203 q 124 84 103 115 q 179 38 146 54 q 254 22 212 22 m 322 933 q 411 976 371 963 q 496 990 451 990 q 589 965 550 990 q 651 894 628 941 q 681 780 674 847 q 677 626 688 712 q 646 456 666 537 q 598 304 626 374 q 533 176 569 233 q 452 78 496 119 q 356 15 408 37 q 246 -8 304 -8 q 157 11 196 -8 q 93 63 118 29 q 58 146 68 97 q 56 257 48 195 q 97 406 65 336 q 176 528 128 476 q 286 610 224 580 q 421 640 349 640 q 487 630 455 640 q 545 597 519 619 q 589 541 571 575 q 615 458 608 506 q 625 508 621 483 q 633 555 630 533 q 639 596 637 577 q 643 626 642 615 q 623 873 663 786 q 489 959 584 959 q 430 952 456 959 q 385 936 404 944 q 355 920 367 928 q 337 913 342 913 q 328 920 331 913 l 322 933 z "},"∫":{"ha":568,"x_min":-59,"x_max":632,"o":"m 315 874 q 344 989 323 941 q 397 1068 365 1037 q 468 1113 428 1099 q 554 1127 508 1127 q 597 1124 576 1127 q 632 1113 618 1121 l 628 1099 q 622 1092 626 1093 q 610 1093 617 1092 q 590 1097 602 1094 q 559 1099 578 1099 q 482 1086 517 1099 q 420 1048 447 1074 q 376 978 394 1021 q 351 874 358 935 l 258 0 q 229 -115 250 -67 q 176 -194 208 -163 q 105 -239 145 -225 q 19 -253 65 -253 q -24 -250 -3 -253 q -59 -240 -45 -247 l -56 -225 q -49 -219 -53 -219 q -37 -219 -45 -218 q -17 -223 -29 -221 q 14 -225 -5 -225 q 91 -213 56 -225 q 152 -174 126 -201 q 197 -105 179 -147 q 222 -1 215 -62 l 315 874 z "},"√":{"ha":876,"x_min":54,"x_max":947,"o":"m 947 1197 l 411 0 l 383 0 l 250 490 l 70 490 q 58 493 63 490 q 56 506 54 497 l 56 516 l 267 516 q 278 512 274 516 q 283 503 282 508 l 396 81 q 402 42 401 60 q 415 78 408 61 l 910 1184 q 918 1193 913 1190 q 928 1197 923 1197 l 947 1197 z "},"∏":{"ha":921,"x_min":109,"x_max":940,"o":"m 936 945 l 781 945 l 635 -248 l 599 -248 l 744 945 l 299 945 l 153 -248 l 117 -248 l 263 945 l 109 945 l 113 976 l 940 976 l 936 945 z "},"∑":{"ha":874,"x_min":-31,"x_max":876,"o":"m 873 944 l 172 944 l 536 369 l 535 360 l 28 -216 l 731 -216 l 726 -248 l -31 -248 l -28 -233 q -27 -226 -28 -229 q -22 -220 -26 -222 l 493 365 l 121 947 q 118 954 118 951 q 118 961 117 958 l 120 976 l 876 976 l 873 944 z "},"◊":{"ha":806,"x_min":113,"x_max":705,"o":"m 672 463 l 420 976 q 409 1008 413 992 q 404 993 407 1001 q 397 976 401 985 l 147 463 l 397 -51 q 404 -68 401 -60 q 409 -83 407 -76 q 420 -51 413 -67 l 672 463 m 705 463 l 422 -119 l 397 -119 l 113 463 l 397 1044 l 422 1044 l 705 463 z "},"←":{"ha":1389,"x_min":90,"x_max":1294,"o":"m 90 440 l 466 816 l 477 806 q 481 794 483 799 q 474 783 479 789 l 175 485 q 155 466 164 474 q 137 452 145 458 q 168 455 151 454 q 208 456 185 456 l 1294 456 l 1294 422 l 208 422 q 168 423 185 422 q 138 426 151 424 q 155 413 145 421 q 175 394 164 405 l 477 92 q 484 82 482 86 q 480 71 485 77 l 469 59 l 90 440 z "},"→":{"ha":1389,"x_min":94,"x_max":1299,"o":"m 1299 439 l 922 63 l 912 73 q 908 85 906 80 q 915 95 910 90 l 1214 394 q 1234 413 1225 405 q 1251 426 1244 421 q 1220 423 1238 424 q 1180 422 1203 422 l 94 422 l 94 456 l 1180 456 q 1220 455 1203 456 q 1251 452 1238 453 q 1234 466 1244 458 q 1214 485 1225 474 l 912 787 q 905 797 907 792 q 909 808 903 801 l 919 819 l 1299 439 z "},"↑":{"ha":1042,"x_min":142,"x_max":898,"o":"m 898 671 l 888 660 q 876 657 881 655 q 865 664 871 658 l 567 963 q 548 983 556 974 q 534 1001 540 992 q 537 970 536 987 q 538 928 538 953 l 538 -157 l 504 -157 l 504 928 q 506 969 504 952 q 508 1000 507 986 q 495 983 503 992 q 476 963 487 974 l 174 661 q 164 654 169 656 q 153 658 160 652 l 142 669 l 522 1048 l 898 671 z "},"↓":{"ha":1042,"x_min":534,"x_max":890,"o":"m 534 -181 q 548 -164 540 -173 q 567 -143 556 -154 l 868 159 q 878 166 874 164 q 890 162 883 167 l 534 -181 z "},"↗":{"ha":1042,"x_min":47,"x_max":910,"o":"m 910 858 l 910 324 l 895 325 q 884 330 886 326 q 882 342 882 335 l 882 765 q 883 793 882 781 q 885 815 884 805 q 866 790 877 803 q 838 761 855 778 l 70 -6 l 47 17 l 815 785 q 844 813 831 801 q 867 833 856 824 q 845 830 858 831 q 818 829 833 829 l 391 829 q 379 831 383 829 q 374 842 374 833 l 373 858 l 910 858 z "},"↖":{"ha":1042,"x_min":131,"x_max":994,"o":"m 994 17 l 972 -6 l 203 761 q 176 790 187 778 q 156 815 165 803 q 159 793 158 805 q 160 765 160 781 l 160 342 q 158 330 160 335 q 147 325 156 326 l 131 324 l 131 858 l 669 858 l 668 842 q 663 831 667 833 q 651 829 658 829 l 224 829 q 196 830 208 829 q 174 833 184 831 q 198 813 185 824 q 227 785 210 801 l 994 17 z "},"↘":{"ha":1042,"x_min":47,"x_max":910,"o":"m 910 533 l 910 0 l 373 0 l 374 15 q 379 26 374 24 q 391 28 383 28 l 818 28 q 845 27 833 28 q 867 25 858 26 q 843 45 856 34 q 815 72 831 56 l 47 840 l 70 863 l 838 96 q 866 67 855 79 q 885 43 876 55 q 883 65 884 53 q 882 92 882 77 l 882 515 q 884 527 882 523 q 895 533 886 532 l 910 533 z "},"↙":{"ha":1042,"x_min":131,"x_max":994,"o":"m 131 0 l 131 533 l 147 533 q 158 527 156 532 q 160 515 160 522 l 160 92 q 159 65 160 76 q 156 43 158 53 q 176 67 165 54 q 203 96 187 79 l 972 863 l 994 840 l 227 72 q 198 45 210 56 q 174 25 185 34 q 196 27 184 26 q 224 28 208 28 l 651 28 q 663 26 658 28 q 668 15 667 24 l 669 0 l 131 0 z "},"↔":{"ha":1389,"x_min":90,"x_max":1299,"o":"m 1299 439 l 922 63 l 912 73 q 908 85 906 80 q 915 95 910 90 l 1214 394 q 1234 413 1225 405 q 1251 426 1244 421 q 1220 423 1238 424 q 1180 422 1203 422 l 143 422 q 158 410 151 417 q 175 394 166 403 l 477 92 q 484 82 482 86 q 480 71 485 77 l 469 59 l 90 440 l 466 816 l 477 806 q 481 794 483 799 q 474 783 479 789 l 175 485 q 158 469 165 476 q 142 456 150 462 l 1180 456 q 1220 455 1203 456 q 1251 452 1238 453 q 1234 466 1244 458 q 1214 485 1225 474 l 912 787 q 905 797 907 792 q 909 808 903 801 l 919 819 l 1299 439 z "},"↕":{"ha":1042,"x_min":141,"x_max":902,"o":"m 522 -228 l 144 148 l 156 159 q 167 163 162 165 q 178 156 172 161 l 476 -143 q 492 -160 485 -152 q 504 -174 499 -167 l 504 928 q 505 969 504 952 q 508 1000 506 986 q 476 963 498 985 l 174 660 q 164 654 168 656 q 153 658 159 652 l 141 668 l 522 1048 l 898 671 l 888 660 q 876 657 881 655 q 865 664 871 658 l 567 963 q 548 983 556 974 q 534 1000 540 992 q 537 969 536 986 q 538 928 538 952 l 538 -176 q 551 -160 544 -168 q 567 -143 558 -153 l 869 159 q 879 166 874 164 q 890 162 884 167 l 902 151 l 522 -228 z "},"Ơ":{"ha":1066,"x_min":90,"x_max":1094,"o":"m 459 22 q 637 59 555 22 q 778 167 719 97 q 872 338 838 238 q 906 565 906 439 q 882 728 906 656 q 815 851 858 800 q 711 929 772 901 q 574 956 650 956 q 399 918 481 956 q 257 810 317 881 q 163 639 197 740 q 128 413 128 538 q 152 250 128 322 q 219 127 176 178 q 323 49 263 76 q 459 22 384 22 m 1090 1068 q 1093 1046 1092 1058 q 1094 1025 1094 1034 q 1076 934 1094 973 q 1030 870 1059 896 q 964 832 1001 845 q 885 815 926 818 q 930 702 915 765 q 945 566 945 640 q 908 328 945 435 q 805 147 871 222 q 650 31 740 72 q 456 -10 560 -10 q 305 20 372 -10 q 189 105 237 50 q 116 238 142 160 q 90 410 90 315 q 128 648 90 542 q 231 830 165 754 q 386 947 297 906 q 578 988 475 988 q 750 948 676 988 q 873 836 825 908 q 937 847 906 837 q 992 873 968 856 q 1032 911 1017 889 q 1047 960 1047 933 q 1042 982 1047 974 q 1034 997 1038 990 q 1025 1010 1029 1003 q 1021 1027 1021 1017 q 1032 1058 1021 1047 q 1062 1068 1043 1068 l 1090 1068 z "},"Ư":{"ha":1017,"x_min":119,"x_max":1079,"o":"m 1076 1068 q 1078 1046 1078 1058 q 1079 1025 1079 1034 q 1060 929 1079 969 q 1008 864 1040 890 q 934 827 976 839 q 849 815 893 815 l 794 366 q 752 218 783 288 q 671 98 720 149 q 557 17 622 47 q 415 -12 492 -12 q 280 17 338 -12 q 185 98 222 47 q 134 218 149 149 q 129 366 119 288 l 204 976 l 242 976 l 167 367 q 170 232 158 295 q 215 122 183 169 q 299 48 247 75 q 419 21 350 21 q 546 48 488 21 q 647 121 603 74 q 719 231 691 168 q 756 366 747 294 l 831 976 l 869 976 l 851 836 q 917 845 885 836 q 975 871 950 855 q 1016 910 1001 888 q 1032 960 1032 933 q 1028 982 1032 974 q 1019 997 1024 990 q 1010 1010 1015 1003 q 1006 1027 1006 1017 q 1017 1058 1006 1047 q 1047 1068 1028 1068 l 1076 1068 z "},"ơ":{"ha":756,"x_min":60,"x_max":785,"o":"m 302 21 q 421 55 367 21 q 513 144 475 88 q 573 270 551 199 q 594 417 594 342 q 580 522 594 475 q 539 600 565 568 q 474 650 512 633 q 388 667 435 667 q 306 651 344 667 q 235 609 267 636 q 177 545 203 582 q 133 464 151 508 q 106 370 115 419 q 97 271 97 322 q 111 166 97 213 q 151 87 125 119 q 216 38 178 55 q 302 21 254 21 m 782 788 q 784 768 783 779 q 785 750 785 758 q 770 669 785 703 q 730 611 756 635 q 672 576 705 588 q 603 560 639 563 q 631 417 631 499 q 620 310 631 363 q 589 210 609 258 q 539 123 568 163 q 473 53 510 83 q 392 8 436 24 q 299 -8 348 -8 q 200 11 244 -8 q 125 67 156 31 q 77 155 94 103 q 60 271 60 206 q 84 429 60 353 q 152 565 108 506 q 256 660 195 624 q 392 696 317 696 q 512 666 461 696 q 594 580 563 635 q 651 590 624 581 q 699 615 678 599 q 731 651 719 630 q 743 697 743 672 q 739 713 743 707 q 731 725 735 719 q 723 735 727 730 q 719 751 719 741 q 729 778 719 769 q 756 788 739 788 l 782 788 z "},"ư":{"ha":768,"x_min":73,"x_max":803,"o":"m 799 788 q 802 768 801 779 q 803 750 803 758 q 787 666 803 701 q 744 608 771 631 q 682 573 717 585 q 609 560 647 562 l 542 0 l 527 0 q 515 5 519 0 q 512 16 512 10 l 540 254 q 476 145 512 194 q 401 63 441 97 q 318 10 361 28 q 233 -8 275 -8 q 108 59 144 -8 q 88 249 73 126 l 140 685 l 175 685 l 123 249 q 120 152 117 194 q 138 81 124 110 q 178 37 152 52 q 242 22 203 22 q 325 42 283 22 q 407 101 367 63 q 482 193 447 139 q 545 315 517 247 l 589 685 l 624 685 l 612 580 q 669 590 642 581 q 716 615 696 599 q 749 651 737 630 q 760 697 760 672 q 757 713 760 707 q 748 725 753 719 q 740 735 744 730 q 736 751 736 741 q 746 778 736 769 q 774 788 756 788 l 799 788 z "},"₫":{"ha":750,"x_min":8,"x_max":736,"o":"m 11 -133 l 588 -133 l 585 -159 l 8 -159 l 11 -133 m 565 549 q 529 602 549 581 q 485 638 509 624 q 436 657 462 651 q 384 663 410 663 q 296 644 337 663 q 222 593 256 626 q 163 518 188 561 q 119 427 137 475 q 92 329 101 379 q 83 233 83 279 q 93 144 83 183 q 122 78 103 106 q 170 35 142 50 q 235 21 198 21 q 320 43 278 21 q 403 108 363 66 q 477 209 442 150 q 540 342 513 269 l 565 549 m 733 809 l 633 809 l 534 0 l 519 0 q 507 5 510 0 q 504 16 504 10 l 533 274 q 472 159 506 211 q 397 70 437 108 q 315 12 358 33 q 227 -8 272 -8 q 148 9 182 -8 q 92 59 115 27 q 59 134 70 90 q 48 230 48 178 q 58 335 48 281 q 89 440 69 389 q 138 538 109 492 q 205 617 167 583 q 286 672 242 651 q 382 692 331 692 q 438 685 410 692 q 490 665 465 678 q 534 631 514 651 q 569 583 555 610 l 598 809 l 450 809 q 438 814 440 809 q 437 825 435 819 l 440 835 l 601 835 l 622 1004 l 657 1004 l 636 835 l 736 835 l 733 809 z "},"○":{"ha":922,"x_min":85,"x_max":847,"o":"m 85 453 q 115 601 85 532 q 196 723 144 671 q 317 804 248 774 q 465 834 387 834 q 613 804 544 834 q 734 723 683 774 q 816 601 786 671 q 847 453 847 532 q 816 306 847 375 q 734 184 786 236 q 613 103 683 133 q 465 73 544 73 q 317 103 387 73 q 196 184 248 133 q 115 306 144 236 q 85 453 85 375 m 118 453 q 145 318 118 381 q 219 207 172 254 q 330 133 266 160 q 465 106 393 106 q 601 133 538 106 q 712 207 665 160 q 786 317 759 253 q 813 453 813 381 q 786 589 813 526 q 712 700 759 653 q 601 774 665 747 q 465 801 538 801 q 330 774 393 801 q 219 700 266 747 q 145 590 172 653 q 118 453 118 526 z "},"◌":{"ha":922,"x_min":107,"x_max":827,"o":"m 442 790 q 450 806 442 799 q 467 813 457 813 q 484 806 476 813 q 491 790 491 799 q 484 773 491 780 q 467 765 476 765 q 450 773 457 765 q 442 790 442 780 m 570 764 q 577 781 570 774 q 594 788 584 788 q 611 781 603 788 q 618 764 618 774 q 611 747 618 754 q 594 740 603 740 q 577 747 584 740 q 570 764 570 754 m 679 692 q 686 708 679 701 q 703 715 693 715 q 720 708 713 715 q 727 692 727 701 q 720 675 727 682 q 703 667 713 667 q 686 675 693 667 q 679 692 679 682 m 750 584 q 757 601 750 594 q 774 608 764 608 q 791 601 783 608 q 798 584 798 594 q 791 567 798 574 q 774 560 783 560 q 757 567 764 560 q 750 584 750 574 m 779 454 q 786 471 779 464 q 803 478 793 478 q 820 471 813 478 q 827 454 827 464 q 820 437 827 444 q 803 430 813 430 q 786 437 793 430 q 779 454 779 444 m 313 764 q 320 781 313 774 q 337 788 327 788 q 354 781 347 788 q 361 764 361 774 q 354 747 361 754 q 337 740 347 740 q 320 747 327 740 q 313 764 313 754 m 205 692 q 212 708 205 701 q 228 715 219 715 q 246 708 238 715 q 253 692 253 701 q 246 675 253 682 q 228 667 238 667 q 212 675 219 667 q 205 692 205 682 m 133 584 q 140 601 133 594 q 157 608 147 608 q 174 601 167 608 q 181 584 181 594 q 174 567 181 574 q 157 560 167 560 q 140 567 147 560 q 133 584 133 574 m 107 454 q 114 471 107 464 q 131 478 122 478 q 148 471 141 478 q 156 454 156 464 q 148 437 156 444 q 131 430 141 430 q 114 437 122 430 q 107 454 107 444 m 750 326 q 757 343 750 336 q 774 351 764 351 q 791 343 783 351 q 798 326 798 336 q 791 309 798 317 q 774 302 783 302 q 757 309 764 302 q 750 326 750 317 m 133 326 q 140 343 133 336 q 157 351 147 351 q 174 343 167 351 q 181 326 181 336 q 174 309 181 317 q 157 302 167 302 q 140 309 147 302 q 133 326 133 317 m 679 217 q 686 234 679 227 q 703 242 693 242 q 720 234 713 242 q 727 217 727 227 q 720 200 727 208 q 703 193 713 193 q 686 200 693 193 q 679 217 679 208 m 205 217 q 212 234 205 227 q 228 242 219 242 q 246 234 238 242 q 253 217 253 227 q 246 200 253 208 q 228 193 238 193 q 212 200 219 193 q 205 217 205 208 m 570 147 q 577 164 570 157 q 594 171 584 171 q 611 164 603 171 q 618 147 618 157 q 611 130 618 138 q 594 122 603 122 q 577 130 584 122 q 570 147 570 138 m 313 147 q 320 164 313 157 q 337 171 327 171 q 354 164 347 171 q 361 147 361 157 q 354 130 361 138 q 337 122 347 122 q 320 130 327 122 q 313 147 313 138 m 442 118 q 450 135 442 128 q 467 142 457 142 q 484 135 476 142 q 491 118 491 128 q 484 101 491 108 q 467 93 476 93 q 450 101 457 93 q 442 118 442 108 z "},"͏":{"ha":0,"x_min":0,"x_max":0,"o":""},"᷂":{"ha":0,"x_min":-90,"x_max":24,"o":"m -90 -60 q -85 -53 -90 -57 q -73 -47 -80 -50 q -58 -43 -65 -44 q -46 -41 -50 -41 q -39 -43 -41 -41 q -34 -48 -37 -45 q -26 -55 -31 -51 q -8 -63 -20 -59 q 24 -96 24 -74 q 13 -120 24 -110 q -12 -138 1 -131 q -37 -152 -26 -146 q -48 -167 -48 -158 q -41 -179 -48 -173 q -25 -192 -33 -185 q -9 -207 -16 -199 q -1 -226 -1 -215 q -9 -247 -1 -239 q -27 -263 -17 -256 q -45 -277 -37 -270 q -53 -294 -53 -284 q -44 -313 -53 -305 q -28 -325 -36 -321 q -28 -326 -28 -326 q -31 -330 -28 -330 q -56 -316 -44 -326 q -67 -292 -67 -306 q -60 -272 -67 -281 q -43 -256 -52 -263 q -27 -242 -35 -249 q -19 -229 -19 -236 q -27 -216 -19 -222 q -45 -203 -35 -210 q -62 -188 -54 -197 q -70 -169 -70 -180 q -59 -146 -70 -156 q -34 -129 -47 -137 q -9 -114 -20 -121 q 3 -98 3 -106 q -5 -85 3 -90 q -26 -80 -13 -80 q -35 -81 -32 -80 q -40 -83 -37 -82 q -44 -86 -42 -85 q -51 -87 -47 -87 q -66 -84 -59 -87 q -78 -77 -73 -81 q -87 -68 -83 -73 q -90 -60 -90 -64 z "},"Ɓ":{"ha":963,"x_min":88,"x_max":880,"o":"m 534 31 q 656 48 602 31 q 747 97 710 65 q 804 178 784 130 q 824 288 824 226 q 808 367 824 331 q 762 428 792 403 q 688 467 732 453 q 590 481 644 481 l 349 481 l 293 31 l 534 31 m 352 509 l 563 509 q 690 532 637 509 q 776 590 742 554 q 826 671 810 626 q 842 761 842 716 q 786 897 842 849 q 613 946 729 946 l 406 946 l 352 509 m 617 976 q 815 921 750 976 q 880 767 880 866 q 863 674 880 718 q 816 593 846 629 q 744 532 785 557 q 653 499 702 508 q 807 432 752 486 q 861 290 861 378 q 839 168 861 222 q 773 77 816 115 q 669 20 731 40 q 530 0 608 0 l 252 0 l 368 947 l 336 947 q 242 934 282 947 q 174 897 201 921 q 134 838 147 872 q 120 760 120 803 q 121 735 120 750 q 124 709 122 720 q 124 697 126 702 q 115 690 123 691 l 95 685 q 90 722 92 703 q 88 757 88 742 q 104 848 88 808 q 153 917 121 889 q 232 961 185 946 q 339 976 279 976 l 617 976 z "},"Ƅ":{"ha":804,"x_min":117,"x_max":738,"o":"m 389 31 q 526 54 467 31 q 624 118 585 78 q 682 212 663 158 q 701 326 701 265 q 685 411 701 370 q 639 482 670 451 q 562 532 608 513 q 453 550 516 550 l 222 550 l 169 124 l 158 31 l 389 31 m 456 580 q 579 560 526 580 q 667 505 632 540 q 720 425 702 471 q 738 328 738 379 q 715 201 738 260 q 648 96 692 141 q 538 26 604 51 q 385 0 472 0 l 117 0 l 208 744 l 118 799 l 247 976 l 274 976 l 226 580 l 456 580 z "},"Ɔ":{"ha":886,"x_min":25,"x_max":814,"o":"m 49 144 q 57 140 53 144 q 108 89 82 111 q 167 51 135 67 q 238 28 199 36 q 330 21 278 21 q 502 58 422 21 q 644 165 583 95 q 740 335 705 235 q 776 561 776 435 q 751 724 776 651 q 682 848 727 797 q 574 928 638 900 q 434 956 511 956 q 352 948 390 956 q 285 929 315 940 q 232 904 256 917 q 193 879 209 890 q 166 860 176 867 q 152 852 156 852 q 146 853 149 852 q 142 857 144 853 l 134 872 q 274 958 201 928 q 438 988 347 988 q 594 956 524 988 q 712 869 663 925 q 788 734 761 813 q 814 561 814 656 q 776 326 814 431 q 673 145 738 220 q 518 30 607 70 q 328 -11 430 -11 q 226 -1 272 -11 q 145 27 181 9 q 79 70 108 45 q 25 126 49 96 l 42 141 q 49 144 45 144 z "},"Ƈ":{"ha":879,"x_min":90,"x_max":1110,"o":"m 790 126 q 723 70 758 96 q 646 27 687 45 q 557 -1 605 9 q 454 -11 510 -11 q 304 19 372 -11 q 189 105 237 49 q 116 238 142 160 q 90 412 90 316 q 128 646 90 540 q 233 828 166 752 q 392 946 301 904 q 590 988 483 988 q 667 982 632 988 q 733 964 703 976 q 790 936 763 953 q 840 896 816 919 q 843 926 842 912 q 846 955 844 940 q 865 1044 851 1004 q 899 1113 878 1084 q 950 1156 921 1141 q 1017 1172 979 1172 q 1064 1167 1041 1172 q 1110 1152 1086 1162 l 1103 1135 q 1095 1127 1101 1128 q 1084 1128 1090 1126 q 1050 1138 1067 1135 q 1017 1141 1033 1141 q 922 1091 957 1141 q 876 954 887 1042 l 866 870 l 856 857 q 843 852 851 852 q 831 860 838 852 q 811 879 824 867 q 779 904 798 890 q 733 929 760 917 q 670 948 706 940 q 588 956 635 956 q 407 918 490 956 q 261 809 323 880 q 163 639 199 739 q 128 414 128 538 q 152 250 128 323 q 220 127 176 178 q 325 48 264 76 q 459 21 386 21 q 556 30 513 21 q 632 53 599 39 q 689 83 665 67 q 731 113 714 99 q 757 135 747 126 q 772 144 767 144 q 777 142 774 144 l 790 126 z "},"Ɗ":{"ha":1136,"x_min":88,"x_max":1063,"o":"m 580 31 q 757 67 676 31 q 898 171 838 103 q 990 339 957 240 q 1024 565 1024 438 q 1000 725 1024 654 q 934 845 977 796 q 829 920 890 894 q 692 946 767 946 l 406 946 l 293 31 l 580 31 m 696 976 q 848 948 780 976 q 964 866 916 919 q 1038 736 1012 813 q 1063 565 1063 660 q 1026 328 1063 433 q 924 151 990 224 q 770 39 859 78 q 576 0 681 0 l 252 0 l 368 947 l 336 947 q 242 934 282 947 q 174 897 201 921 q 134 838 147 872 q 120 760 120 803 q 121 735 120 750 q 124 709 122 720 q 124 697 126 702 q 115 690 123 691 l 95 685 q 90 722 92 703 q 88 757 88 742 q 104 848 88 808 q 153 917 121 889 q 232 961 185 946 q 339 976 279 976 l 696 976 z "},"Ƌ":{"ha":774,"x_min":52,"x_max":697,"o":"m 600 493 l 372 493 q 161 428 234 493 q 89 231 89 363 q 147 84 89 137 q 317 31 205 31 l 542 31 l 600 493 m 697 976 l 577 0 l 313 0 q 200 16 249 0 q 119 62 151 32 q 69 134 86 92 q 52 231 52 177 q 73 355 52 301 q 134 447 94 410 q 236 503 175 484 q 376 523 297 523 l 603 523 l 656 946 l 165 946 l 168 976 l 697 976 z "},"Ǝ":{"ha":749,"x_min":20,"x_max":672,"o":"m 552 0 l 20 0 l 23 32 l 517 32 l 572 480 l 158 480 l 161 511 l 576 511 l 629 944 l 136 944 l 140 976 l 672 976 l 552 0 z "},"Ə":{"ha":903,"x_min":69,"x_max":829,"o":"m 109 403 q 114 243 98 314 q 166 124 130 173 q 256 49 203 75 q 372 24 309 24 q 517 50 451 24 q 636 126 584 77 q 723 246 688 176 q 776 403 758 317 l 109 403 m 152 858 q 216 910 181 886 q 293 951 251 934 q 382 979 334 969 q 484 989 430 989 q 629 959 565 989 q 738 875 693 930 q 806 742 782 821 q 829 566 829 664 q 797 333 829 439 q 704 152 764 228 q 559 34 644 76 q 369 -8 474 -8 q 248 16 303 -8 q 152 85 192 40 q 91 196 113 131 q 69 346 69 262 q 71 393 69 376 q 76 419 73 410 q 85 430 80 428 q 99 433 91 433 l 781 433 q 788 497 785 464 q 790 564 790 529 q 768 730 790 657 q 706 853 747 803 q 608 930 666 903 q 479 956 551 956 q 388 948 428 956 q 314 927 347 940 q 258 899 282 914 q 216 871 233 884 q 188 850 199 858 q 171 842 176 842 q 160 847 164 842 l 152 858 z "},"Ɛ":{"ha":762,"x_min":67,"x_max":740,"o":"m 661 119 q 611 71 642 94 q 542 29 581 47 q 457 0 503 11 q 360 -11 410 -11 q 238 7 292 -11 q 146 59 184 26 q 88 138 108 92 q 67 240 67 184 q 85 339 67 290 q 138 427 103 387 q 224 497 172 467 q 343 538 275 526 q 255 565 291 547 q 195 607 218 583 q 162 660 172 631 q 151 721 151 690 q 175 825 151 776 q 242 909 199 873 q 347 966 285 945 q 485 986 408 986 q 569 979 531 986 q 639 958 608 972 q 695 926 670 945 q 740 885 720 908 l 731 873 q 719 867 725 867 q 698 881 713 867 q 657 911 684 894 q 587 941 630 927 q 480 955 544 955 q 356 936 410 955 q 265 885 302 917 q 209 811 228 853 q 190 722 190 769 q 210 647 190 679 q 263 594 229 615 q 342 562 297 573 q 440 551 388 551 l 583 551 l 580 523 l 434 523 q 296 500 357 523 q 193 440 235 478 q 128 351 151 401 q 106 247 106 301 q 124 156 106 197 q 177 85 142 115 q 260 38 211 55 q 370 21 308 21 q 448 29 413 21 q 512 49 483 37 q 563 75 540 61 q 600 102 585 90 q 624 123 615 115 q 633 132 632 131 q 638 135 636 134 q 642 137 640 137 q 649 133 647 137 l 661 119 z "},"Ƒ":{"ha":734,"x_min":-144,"x_max":746,"o":"m 249 944 l 194 497 l 624 497 l 619 465 l 190 465 l 134 7 l 128 -43 q 107 -133 122 -93 q 69 -201 92 -173 q 16 -244 46 -229 q -51 -260 -15 -260 q -98 -255 -76 -260 q -144 -240 -120 -250 l -137 -224 q -129 -216 -134 -216 q -117 -217 -124 -215 q -84 -226 -101 -223 q -51 -229 -67 -229 q 44 -180 9 -229 q 90 -43 79 -130 l 97 7 l 96 7 l 215 976 l 746 976 l 742 944 l 249 944 z "},"Ɠ":{"ha":953,"x_min":90,"x_max":1136,"o":"m 894 874 l 883 860 q 875 854 879 856 q 866 854 872 852 q 854 863 862 855 q 832 882 846 871 q 799 907 819 894 q 750 930 778 919 q 685 948 722 941 q 599 956 647 956 q 409 918 495 956 q 260 810 322 880 q 164 639 198 740 q 129 413 129 539 q 153 250 129 322 q 222 126 177 177 q 330 47 267 74 q 473 19 394 19 q 566 26 524 19 q 646 44 608 32 q 717 73 683 56 q 787 111 751 90 l 822 399 l 634 399 q 626 403 629 399 q 624 410 623 406 l 626 429 l 860 429 l 819 96 q 745 51 783 71 q 664 17 707 31 q 573 -4 622 3 q 467 -11 524 -11 q 311 19 381 -11 q 192 104 241 49 q 117 237 143 159 q 90 411 90 315 q 127 649 90 542 q 232 830 165 755 q 395 947 300 906 q 604 988 490 988 q 686 982 649 988 q 756 966 724 976 q 815 938 788 955 q 867 900 842 922 q 869 927 868 914 q 872 955 870 940 q 891 1043 878 1003 q 926 1112 905 1083 q 978 1156 948 1140 q 1045 1172 1008 1172 q 1091 1167 1069 1172 q 1136 1152 1113 1162 l 1130 1135 q 1122 1127 1127 1128 q 1110 1128 1117 1126 q 1044 1141 1078 1141 q 949 1091 984 1141 q 903 954 914 1042 l 894 874 z "},"Ɣ":{"ha":813,"x_min":63,"x_max":881,"o":"m 553 30 q 542 42 546 36 l 392 338 q 381 323 388 330 l 171 40 q 158 30 165 33 l 553 30 m 419 359 l 608 0 l 97 0 l 374 360 l 63 977 l 100 977 q 109 973 106 977 q 115 965 113 969 l 401 385 l 404 390 l 828 965 q 835 973 831 969 q 844 977 840 977 l 881 977 l 419 359 z "},"Ɩ":{"ha":364,"x_min":101,"x_max":302,"o":"m 210 976 l 248 976 l 150 176 q 261 21 131 21 l 302 21 l 301 7 q 288 -5 299 -1 q 247 -9 277 -9 q 136 39 171 -9 q 111 174 101 88 l 210 976 z "},"Ƙ":{"ha":826,"x_min":95,"x_max":869,"o":"m 195 513 l 253 513 q 274 513 265 513 q 292 517 284 514 q 309 526 301 520 q 326 544 317 533 l 610 897 q 688 964 646 941 q 784 986 730 986 q 831 981 810 986 q 869 967 852 976 l 864 951 q 855 942 860 943 q 840 945 849 942 q 814 953 828 950 q 781 956 799 956 q 707 938 740 956 q 640 882 673 920 l 360 536 q 338 514 349 522 q 313 501 327 506 q 340 490 329 498 q 363 468 351 483 l 731 0 l 703 0 q 686 3 691 0 q 676 13 681 6 l 329 448 q 317 463 323 456 q 304 474 311 469 q 286 481 297 478 q 261 483 276 483 l 192 483 l 133 0 l 95 0 l 215 978 l 253 978 l 195 513 z "},"Ɯ":{"ha":1358,"x_min":119,"x_max":1281,"o":"m 1281 976 l 1161 0 l 1144 0 q 1133 5 1136 0 q 1131 19 1130 9 l 1167 343 q 1108 194 1141 260 q 1035 84 1074 129 q 952 14 997 38 q 860 -10 908 -10 q 772 10 810 -10 q 707 67 733 31 q 667 157 681 104 q 651 276 653 210 q 597 156 630 208 q 524 66 564 103 q 439 10 484 29 q 350 -10 394 -10 q 242 15 288 -10 q 167 87 196 39 q 129 207 139 135 q 130 374 119 279 l 205 976 l 242 976 l 168 374 q 167 220 158 287 q 199 110 175 154 q 264 43 224 65 q 357 20 303 20 q 454 48 406 20 q 543 126 502 76 q 613 245 583 176 q 651 397 642 315 l 724 976 l 762 976 l 689 397 q 686 241 680 310 q 714 122 692 171 q 774 47 735 73 q 867 20 812 20 q 959 49 915 20 q 1042 132 1003 78 q 1114 261 1081 186 q 1176 430 1148 337 l 1242 976 l 1281 976 z "}}}
